<?xml version="1.0" encoding="UTF-8"?>
<svg version="1.1" xmlns="http://www.w3.org/2000/svg" width="510" height="510">
<path d="M0 0 C68.97 0 137.94 0 209 0 C209 22.44 209 44.88 209 68 C206.65715206 70.34284794 201.37225063 69.97950971 198.19921875 70.40234375 C195.08065615 70.82428652 195.08065615 70.82428652 192.83203125 72.12890625 C191 73 191 73 189.015625 72.81640625 C186.59178567 71.83465737 184.82592492 70.53073608 182.75 68.9375 C164.39228615 55.83640025 144.24756895 50.41920785 121.79345703 53.28125 C104.32671676 56.27093761 87.41246116 67.1671367 76.84375 81.22265625 C62.97716967 102.11066179 60.81736138 126.47209229 65.390625 150.84277344 C66.17938169 154.58514223 67.06972449 158.2901061 68 162 C68.3448591 163.66432001 68.68456477 165.32985345 69 167 C68.360625 166.835 67.72125 166.67 67.0625 166.5 C59.59679067 165.28110868 54.07035521 165.61623937 47.3046875 169.3046875 C42.44578139 172.87886589 39.12015392 178.06197978 38 184 C37.29911878 193.11145582 40.52361391 199.02797626 46.1484375 205.9453125 C48.57259615 208.6354126 51.11400359 210.81790515 54 213 C52 214 52 214 50.2322998 213.53974915 C49.52077759 213.26535507 48.80925537 212.990961 48.07617188 212.70825195 C47.26772827 212.40075516 46.45928467 212.09325836 45.62634277 211.77644348 C44.74933716 211.43384995 43.87233154 211.09125641 42.96875 210.73828125 C42.06306274 210.39121628 41.15737549 210.04415131 40.22424316 209.68656921 C37.31335038 208.56903562 34.40672028 207.44083596 31.5 206.3125 C29.57057643 205.57027709 27.6408918 204.82873243 25.7109375 204.08789062 C17.11666735 200.78256849 8.5499347 197.41997388 0 194 C0 129.98 0 65.96 0 0 Z " fill="#000000" transform="translate(0,0)"/>
<path d="M0 0 C17.16 0 34.32 0 52 0 C46.69204361 9.95241823 41.32441379 19.72898661 35.57250977 29.40820312 C32.38193586 34.81234513 29.31813024 40.24183805 26.44140625 45.8203125 C15.75941624 66.33109842 15.75941624 66.33109842 3 72 C1.29668066 73.28617991 -0.382189 74.607792 -2 76 C-3.98 75.01 -5.96 74.02 -8 73 C-8.27703457 65.24303215 -7.2244054 57.68258175 -6.25 50 C-6.07021243 48.5541707 -5.8908574 47.10828755 -5.71191406 45.66235352 C-5.24274858 41.88073947 -4.76775922 38.09987963 -4.29150391 34.31915283 C-3.71969346 29.76993139 -3.15520789 25.21979582 -2.58947754 20.66981506 C-1.73189154 13.77916485 -0.86507848 6.88973219 0 0 Z " fill="#000000" transform="translate(240,0)"/>
<path d="M0 0 C0.85049423 0.00222061 1.70098846 0.00444122 2.57725525 0.00672913 C4.01863609 0.00684242 4.01863609 0.00684242 5.48913574 0.00695801 C7.05630592 0.01469994 7.05630592 0.01469994 8.65513611 0.02259827 C9.71913132 0.02401321 10.78312653 0.02542816 11.87936401 0.02688599 C15.29293069 0.03250388 18.70643286 0.04505941 22.11997986 0.05775452 C24.42792162 0.06276721 26.73586441 0.06733052 29.04380798 0.07142639 C34.71505412 0.08247912 40.38626238 0.09923465 46.05747986 0.12025452 C43.43989791 4.75346697 40.74744796 9.11336771 37.61997986 13.43275452 C36.97863098 14.32281189 36.97863098 14.32281189 36.32432556 15.23085022 C34.40154694 17.89666872 32.46864323 20.55506971 30.53501892 23.21302795 C28.93682244 25.41017378 27.34027959 27.60850451 25.74497986 29.80775452 C25.20075378 30.55790833 24.65652771 31.30806213 24.09580994 32.08094788 C19.50469148 38.43886371 15.0826646 44.90410582 10.68052673 51.39369202 C6.32770753 57.78639329 1.78529494 63.99974972 -2.94252014 70.12025452 C-6.94486891 68.54613851 -10.85168154 66.81708681 -14.75892639 65.02259827 C-16.81045752 64.1748278 -18.77809997 63.59632879 -20.94252014 63.12025452 C-20.35203462 55.92015838 -18.35600191 49.42408847 -16.16127014 42.56166077 C-15.787724 41.37676559 -15.41417786 40.19187042 -15.02931213 38.97106934 C-14.04181001 35.8446969 -13.04803131 32.72040969 -12.05158997 29.59687805 C-11.03573494 26.40435081 -10.03114637 23.20829111 -9.02455139 20.01283264 C-8.25825584 17.59140873 -7.49135037 15.17017774 -6.72377014 12.74916077 C-6.36021423 11.59823441 -5.99665833 10.44730804 -5.62208557 9.26150513 C-5.28503601 8.20628159 -4.94798645 7.15105804 -4.60072327 6.06385803 C-4.30395691 5.13090408 -4.00719055 4.19795013 -3.70143127 3.23672485 C-2.59850783 0.16086438 -2.59850783 0.16086438 0 0 Z " fill="#000000" transform="translate(296.94252014160156,-0.1202545166015625)"/>
<path d="M0 0 C0.99773437 0.02320312 1.99546875 0.04640625 3.0234375 0.0703125 C4.52777344 0.09738281 4.52777344 0.09738281 6.0625 0.125 C6.83335937 0.14820312 7.60421875 0.17140625 8.3984375 0.1953125 C3.5717273 6.1651909 -1.82794746 11.1500612 -7.6015625 16.1953125 C-8.37757813 16.88625 -9.15359375 17.5771875 -9.953125 18.2890625 C-15.32926203 23.05916227 -15.32926203 23.05916227 -17.6015625 24.1953125 C-15.39082763 19.6417629 -12.73968742 15.38538504 -10.1015625 11.0703125 C-9.35326172 9.83474609 -9.35326172 9.83474609 -8.58984375 8.57421875 C-7.86861328 7.39279297 -7.86861328 7.39279297 -7.1328125 6.1875 C-6.69517578 5.46933105 -6.25753906 4.75116211 -5.80664062 4.01123047 C-3.30959928 0.24846841 -3.30959928 0.24846841 0 0 Z " fill="#000000" transform="translate(358.6015625,-0.1953125)"/>
<path d="M0 0 C1.59992873 0.01681826 3.19990429 0.02961422 4.79989624 0.03858948 C8.98011722 0.0727041 13.15745452 0.16087942 17.33654785 0.26092529 C22.36717639 0.36986991 27.39877773 0.41062392 32.43025208 0.46300507 C40.04664328 0.54983472 47.6567275 0.72239851 55.2734375 0.87890625 C55.2734375 19.68890625 55.2734375 38.49890625 55.2734375 57.87890625 C36.43968422 65.99344889 17.55048343 73.95436083 -1.38630676 81.82443237 C-10.86079639 85.76358522 -20.32487353 89.727585 -29.7890625 93.69140625 C-31.5878046 94.44459118 -33.38655135 95.19776498 -35.18530273 95.95092773 C-43.61929683 99.48259079 -52.05276419 103.01551048 -60.48600769 106.54896545 C-64.3468268 108.16649935 -68.20781 109.7836413 -72.06881714 111.40072632 C-74.75576136 112.52627557 -77.44246116 113.65240672 -80.12915039 114.77856445 C-84.20199203 116.48519061 -88.27646734 118.18785945 -92.35217285 119.88763428 C-93.96948417 120.56283743 -95.58624361 121.23936368 -97.20251465 121.91705322 C-99.58154031 122.91420628 -101.96240715 123.90683336 -104.34375 124.8984375 C-105.06144562 125.20037521 -105.77914124 125.50231293 -106.51858521 125.81340027 C-111.49845091 127.87890625 -111.49845091 127.87890625 -113.7265625 127.87890625 C-114.00628906 127.0075 -114.28601563 126.13609375 -114.57421875 125.23828125 C-117.418368 116.78814008 -120.95922766 109.45919459 -125.7265625 101.87890625 C-126.72959176 100.21406089 -127.73056003 98.54796493 -128.7265625 96.87890625 C-122.21550509 90.79964671 -115.63899536 84.9081687 -108.69921875 79.31640625 C-105.19337381 76.44170554 -101.76994608 73.48158624 -98.3515625 70.50390625 C-89.78594259 63.04790128 -81.17155859 55.65877034 -72.3515625 48.50390625 C-65.98967328 43.32390647 -59.82343708 37.92440218 -53.63623047 32.53857422 C-45.73124417 25.66845189 -37.79778992 18.84646062 -29.6171875 12.3046875 C-26.77093781 10.04640168 -26.77093781 10.04640168 -24.84481812 7.7041626 C-17.30347102 -0.40082214 -10.31346998 -0.32092967 0 0 Z " fill="#000000" transform="translate(454.7265625,-0.87890625)"/>
<path d="M0 0 C0 6.6 0 13.2 0 20 C-15.29571037 25.26025839 -30.60406296 30.34203305 -46.1875 34.6875 C-47.42717529 35.038125 -48.66685059 35.38875 -49.9440918 35.75 C-51.09047119 36.06324219 -52.23685059 36.37648437 -53.41796875 36.69921875 C-54.42625732 36.97596436 -55.4345459 37.25270996 -56.47338867 37.5378418 C-59 38 -59 38 -62 37 C-53.5448677 31.79860425 -45.07100595 26.63059019 -36.546875 21.54296875 C-35.89643219 21.15435669 -35.24598938 20.76574463 -34.57583618 20.36535645 C-29.28853707 17.20667856 -29.28853707 17.20667856 -26.70257568 15.67047119 C-19.07369628 11.13846118 -11.60762423 6.49009411 -4.30615234 1.44018555 C-2 0 -2 0 0 0 Z " fill="#000000" transform="translate(510,86)"/>
<path d="M0 0 C3.35661674 1.40644416 4.95621888 2.93374811 7.0625 5.875 C10.07380174 9.89658695 13.2840966 13.62495978 16.6875 17.3125 C17.15099854 17.81571777 17.61449707 18.31893555 18.09204102 18.83740234 C20.67086896 21.6180274 23.29954253 24.33748807 26 27 C24.02 29.64 22.04 32.28 20 35 C15.53008546 33.56995421 12.53691406 31.11054368 9.1875 27.9375 C8.66486572 27.45015381 8.14223145 26.96280762 7.60375977 26.46069336 C1.89332441 21.06804088 -3.34186188 15.32883811 -8 9 C-6.4169423 4.7257442 -3.49431596 2.73468206 0 0 Z " fill="#000000" transform="translate(257,89)"/>
<path d="M0 0 C2.640625 1.6640625 2.640625 1.6640625 5.25 3.625 C6.21421875 4.34429687 7.1784375 5.06359375 8.171875 5.8046875 C10.66203516 7.73765712 13.081551 9.72898843 15.5 11.75 C26.06649328 20.3183423 38.2784587 27.1297907 50 34 C46.50164156 37.70605319 42.99149936 40.52199492 38.6875 43.3125 C37.61886719 44.00988281 36.55023438 44.70726562 35.44921875 45.42578125 C34.64097656 45.94527344 33.83273437 46.46476562 33 47 C29.18830986 43.79471511 25.48988918 40.52373378 21.87353516 37.09838867 C14.98705247 30.61468332 7.51259815 24.25629907 -1 20 C-1.33 27.26 -1.66 34.52 -2 42 C-12.125 38.625 -12.125 38.625 -17.0625 36.3125 C-18.00222656 35.87550781 -18.94195312 35.43851563 -19.91015625 34.98828125 C-20.59980469 34.66214844 -21.28945312 34.33601563 -22 34 C-21.69707031 34.4940332 -21.39414063 34.98806641 -21.08203125 35.49707031 C-19.71216884 37.74259092 -18.3560108 39.99609016 -17 42.25 C-16.52304688 43.02730469 -16.04609375 43.80460937 -15.5546875 44.60546875 C-15.10351562 45.35957031 -14.65234375 46.11367187 -14.1875 46.890625 C-13.76855469 47.58188477 -13.34960938 48.27314453 -12.91796875 48.98535156 C-12 51 -12 51 -12 55 C-13.8984375 56.703125 -13.8984375 56.703125 -16.375 58.25 C-17.59316406 59.03117187 -17.59316406 59.03117187 -18.8359375 59.828125 C-21 61 -21 61 -23 61 C-25.17644365 56.15307334 -27.33009978 51.29688066 -29.46362305 46.4309082 C-30.19187891 44.77845828 -30.92619108 43.12866326 -31.66674805 41.48168945 C-32.73284977 39.10787451 -33.77649566 36.72522803 -34.81640625 34.33984375 C-35.14967422 33.61039047 -35.4829422 32.88093719 -35.8263092 32.12937927 C-37.92079553 27.24715991 -38.21773758 24.18952715 -37 19 C-32.58614043 17.47173883 -29.96307586 18.85430172 -25.81640625 20.609375 C-20.95535174 23.0095628 -16.49817899 25.98916546 -12 29 C-12.01047363 28.26362305 -12.02094727 27.52724609 -12.03173828 26.76855469 C-12.07333702 23.42907124 -12.09933864 20.08964235 -12.125 16.75 C-12.14175781 15.59113281 -12.15851563 14.43226562 -12.17578125 13.23828125 C-12.18222656 12.12324219 -12.18867188 11.00820312 -12.1953125 9.859375 C-12.20578613 8.83295898 -12.21625977 7.80654297 -12.22705078 6.74902344 C-11.99558541 3.94655019 -11.50105768 2.35279268 -10 0 C-6.3642623 -2.85665105 -4.05541405 -1.61023793 0 0 Z " fill="#000000" transform="translate(239,105)"/>
<path d="M0 0 C3.5786304 1.65167557 6.74820188 3.78286492 10 6 C9.42647107 9.87132028 7.51295648 12.08172796 5 15 C1.00499382 13.6302836 -1.80009492 11.74277578 -5 9 C-3.7508258 5.54074837 -2.32472205 2.85306797 0 0 Z " fill="#000000" transform="translate(288,121)"/>
<path d="M0 0 C0.33 1.32 0.66 2.64 1 4 C-12.6332574 7.44419134 -12.6332574 7.44419134 -19 7 C-16.50321175 5.3354745 -14.97578432 4.55263843 -12.20703125 3.7109375 C-11.49482422 3.49179688 -10.78261719 3.27265625 -10.04882812 3.046875 C-8.9418457 2.71429688 -8.9418457 2.71429688 -7.8125 2.375 C-7.06291016 2.14554688 -6.31332031 1.91609375 -5.54101562 1.6796875 C-3.69534551 1.11540619 -1.84784504 0.55711784 0 0 Z " fill="#000000" transform="translate(509,129)"/>
<path d="M0 0 C6.86441756 2.93262451 9.49143721 7.94717489 12.19140625 14.6328125 C13.63987013 22.53352459 14.2674877 31.30445532 9.87890625 38.3828125 C7.17825013 41.96829898 4.67539334 44.06731912 0.1875 44.85546875 C-5.29497329 45.02702914 -9.41834906 44.43324149 -14.12109375 41.3828125 C-13.79109375 42.3728125 -13.46109375 43.3628125 -13.12109375 44.3828125 C-13.5217852 53.04017623 -15.37310959 60.72792418 -21.12109375 67.3828125 C-25.85136559 71.29086971 -30.7794919 71.89690455 -36.77734375 71.65625 C-39.74409835 71.31012863 -42.37196927 70.5403386 -45.12109375 69.3828125 C-45.17265625 69.99125 -45.22421875 70.5996875 -45.27734375 71.2265625 C-47.11398902 85.41882137 -55.18357123 97.55847967 -64.12109375 108.3828125 C-64.77803223 109.18984619 -64.77803223 109.18984619 -65.44824219 110.01318359 C-71.37201641 117.26426784 -77.65539752 124.10777627 -84.24609375 130.7578125 C-84.89787598 131.41885986 -85.5496582 132.07990723 -86.22119141 132.76098633 C-86.8301123 133.36579834 -87.4390332 133.97061035 -88.06640625 134.59375 C-88.60797363 135.13306152 -89.14954102 135.67237305 -89.70751953 136.22802734 C-91.12109375 137.3828125 -91.12109375 137.3828125 -93.12109375 137.3828125 C-93.27872192 136.78544281 -93.4363501 136.18807312 -93.59875488 135.57260132 C-94.96377884 130.39977264 -96.32921725 125.2270537 -97.69506836 120.05444336 C-98.9812363 115.18325549 -100.26570297 110.31162317 -101.54907227 105.43969727 C-105.65390036 89.86740142 -105.65390036 89.86740142 -109.8671875 74.32421875 C-110.25006791 72.9233584 -110.63288401 71.52248048 -111.015625 70.12158203 C-111.69369077 67.65026086 -112.37947233 65.18103926 -113.07421875 62.71435547 C-113.36683594 61.64459473 -113.65945312 60.57483398 -113.9609375 59.47265625 C-114.21222412 58.57409912 -114.46351074 57.67554199 -114.72241211 56.74975586 C-115.15351641 54.19032157 -115.09831202 52.77804906 -114.12109375 50.3828125 C-111.96905958 48.51433346 -109.88139824 46.88601162 -107.55859375 45.2578125 C-106.89545166 44.78351807 -106.23230957 44.30922363 -105.54907227 43.82055664 C-100.64051409 40.35173487 -95.63463231 37.03833389 -90.55859375 33.8203125 C-89.9049585 33.40313965 -89.25132324 32.9859668 -88.57788086 32.55615234 C-80.98818197 27.84907478 -74.05409993 26.36798291 -65.12109375 27.3828125 C-61.88685349 29.12930224 -60.70399632 30.48196307 -58.74609375 33.5078125 C-57.02509579 41.42440312 -59.48955394 48.389987 -63.12109375 55.3828125 C-62.19296875 55.1971875 -61.26484375 55.0115625 -60.30859375 54.8203125 C-57.12109375 54.3828125 -57.12109375 54.3828125 -54.12109375 55.3828125 C-54.47171875 54.3103125 -54.82234375 53.2378125 -55.18359375 52.1328125 C-57.46044002 42.84524535 -55.49200122 32.77395292 -51.12109375 24.3828125 C-48.02195646 19.95547352 -44.90122521 16.34705037 -40.12109375 13.7578125 C-32.76122254 12.8378286 -28.18310896 14.46776101 -22.12109375 18.3828125 C-22.04632813 17.74214844 -21.9715625 17.10148437 -21.89453125 16.44140625 C-20.91257965 9.98170501 -19.19025402 5.65157904 -14.12109375 1.3828125 C-9.56429768 -1.32221784 -5.01525818 -1.45932006 0 0 Z M-5.28125 15.01953125 C-8.160454 18.71787184 -7.66847936 21.92121144 -7.5078125 26.453125 C-6.95769881 30.62065292 -6.13502749 32.45033643 -3.12109375 35.3828125 C-0.62109375 36.29947917 -0.62109375 36.29947917 1.87890625 35.3828125 C4.73556138 33.14381254 5.74471128 31.3773463 6.23046875 27.77734375 C6.35435049 23.60478141 6.17363706 20.2015092 4.75390625 16.2578125 C2.92636032 14.16499539 2.92636032 14.16499539 -0.05859375 13.3203125 C-3.16578548 13.08371737 -3.16578548 13.08371737 -5.28125 15.01953125 Z M-36.68359375 30.5078125 C-40.98067895 35.5761694 -41.52664411 40.39622239 -41.37109375 46.8515625 C-40.84747982 52.1531535 -39.38115662 55.98652661 -35.80859375 59.9453125 C-33.17878276 61.6132373 -33.17878276 61.6132373 -30.05859375 61.4453125 C-26.41791317 60.12847059 -25.19383435 58.60707566 -23.12109375 55.3828125 C-20.98177587 48.96485887 -20.94608797 40.95606091 -23.80859375 34.7578125 C-25.69709733 31.58351926 -27.64616478 29.80842438 -31.12109375 28.3828125 C-34.29104285 28.06364457 -34.29104285 28.06364457 -36.68359375 30.5078125 Z M-101.12109375 55.3828125 C-98.67998679 65.91217626 -95.60414041 76.25395011 -92.50537109 86.60473633 C-91.91045781 88.59988036 -91.3210324 90.59666813 -90.73681641 92.5949707 C-89.88718955 95.50058109 -89.02171293 98.40102567 -88.15234375 101.30078125 C-87.89287964 102.19854782 -87.63341553 103.09631439 -87.36608887 104.02128601 C-87.11572876 104.84337051 -86.86536865 105.66545502 -86.60742188 106.51245117 C-86.39218872 107.23792648 -86.17695557 107.96340179 -85.9552002 108.71086121 C-85.67994507 109.26260513 -85.40468994 109.81434906 -85.12109375 110.3828125 C-83.63609375 110.8778125 -83.63609375 110.8778125 -82.12109375 111.3828125 C-66.59571191 93.60979178 -66.59571191 93.60979178 -57.12109375 72.3828125 C-57.45310864 68.99919014 -57.69160659 67.81229966 -60.12109375 65.3828125 C-68.31537665 65.22523014 -75.09718733 69.62198071 -82.12109375 73.3828125 C-83.11109375 73.8778125 -83.11109375 73.8778125 -84.12109375 74.3828125 C-83.76281494 73.662146 -83.40453613 72.94147949 -83.03540039 72.19897461 C-81.40793403 68.91102237 -79.79567306 65.61583445 -78.18359375 62.3203125 C-77.61962891 61.18658203 -77.05566406 60.05285156 -76.47460938 58.88476562 C-75.93642578 57.77939453 -75.39824219 56.67402344 -74.84375 55.53515625 C-74.34625244 54.52445068 -73.84875488 53.51374512 -73.33618164 52.47241211 C-71.99040895 49.05052073 -71.3529496 46.05077761 -71.12109375 42.3828125 C-71.78109375 41.7228125 -72.44109375 41.0628125 -73.12109375 40.3828125 C-83.23078663 40.3828125 -93.38526552 49.48104504 -101.12109375 55.3828125 Z " fill="#000000" transform="translate(196.12109375,136.6171875)"/>
<path d="M0 0 C0.02286442 44.95309068 0.04049723 89.90618074 0.05106533 134.85927608 C0.05231611 140.16049722 0.05361042 145.46171834 0.05493164 150.76293945 C0.05532511 152.34607651 0.05532511 152.34607651 0.05572652 153.96119613 C0.06008364 171.07418461 0.06797142 188.18716974 0.0771528 205.30015623 C0.08648816 222.84586339 0.09205536 240.39156879 0.09408849 257.93727833 C0.09546397 268.77311439 0.09981586 279.608941 0.10791647 290.44477416 C0.11318249 297.86466214 0.11480463 305.28454521 0.11350138 312.70443492 C0.11285777 316.99205447 0.11387805 321.27965746 0.11920547 325.56727409 C0.12403918 329.48591416 0.12433884 333.40452639 0.12089889 337.32316769 C0.12047317 338.74713355 0.12176915 340.17110109 0.12488318 341.59506362 C0.12884682 343.51804521 0.12615652 345.44103719 0.12304783 347.36402035 C0.12342755 348.43597084 0.12380727 349.50792133 0.1241985 350.61235517 C0 353 0 353 -1 354 C-3.17356601 354.09805334 -5.35039332 354.12371138 -7.52616978 354.12304783 C-8.56625036 354.1247786 -8.56625036 354.1247786 -9.62734267 354.12654433 C-11.98006517 354.12921767 -14.33272095 354.12468298 -16.68544006 354.12025452 C-18.37747143 354.12069007 -20.06950274 354.12156469 -21.76153368 354.12284368 C-26.43392812 354.12509172 -31.10629986 354.12106317 -35.77869141 354.11606562 C-40.80871401 354.11176571 -45.83873523 354.11320722 -50.86875916 354.1139679 C-59.59119536 354.11449342 -68.3136241 354.11134362 -77.03605843 354.10573006 C-89.6473897 354.09761894 -102.25871736 354.09500024 -114.87005096 354.09374207 C-135.32881532 354.09155093 -155.78757569 354.08488919 -176.24633789 354.07543945 C-196.12556946 354.06626692 -216.00479995 354.05918531 -235.8840332 354.05493164 C-237.10843867 354.05466892 -238.33284413 354.05440619 -239.59435279 354.05413551 C-245.73655136 354.05283052 -251.87874994 354.0515668 -258.02094853 354.05032361 C-309.01396844 354.03994908 -360.00698402 354.02232911 -411 354 C-410.02479669 346.23996689 -409.04582096 338.48041643 -408.06420898 330.72119141 C-407.73038185 328.08103298 -407.39796842 325.44070739 -407.06616211 322.80029297 C-406.58935225 319.00719572 -406.10943629 315.21450252 -405.62890625 311.421875 C-405.48095108 310.23946228 -405.33299591 309.05704956 -405.18055725 307.83880615 C-405.04048752 306.73796692 -404.90041779 305.63712769 -404.75610352 304.50292969 C-404.63396988 303.53474304 -404.51183624 302.5665564 -404.38600159 301.56903076 C-404 299 -404 299 -403.40267944 296.79855347 C-402.79649921 294.09107094 -403.8433436 292.63831942 -405.09765625 290.2109375 C-405.56703613 289.27749512 -406.03641602 288.34405273 -406.52001953 287.38232422 C-407.02903809 286.38990723 -407.53805664 285.39749023 -408.0625 284.375 C-416.29815163 267.79626381 -425.40536647 247.86830913 -419.875 229 C-417.2354625 222.48095621 -412.78321247 217.57792788 -406.3671875 214.64453125 C-401.64251941 213.35811172 -396.84437131 213.76043295 -392 214 C-391.96261719 213.25766113 -391.92523438 212.51532227 -391.88671875 211.75048828 C-391.24322928 201.07455637 -389.85617584 190.53052678 -388.41601562 179.9375 C-387.99619888 176.84701807 -387.58356457 173.75563655 -387.171875 170.6640625 C-386.90666564 168.69004828 -386.64105545 166.71608786 -386.375 164.7421875 C-386.25205566 163.82243134 -386.12911133 162.90267517 -386.00244141 161.95504761 C-385.88562012 161.09960358 -385.76879883 160.24415955 -385.6484375 159.36279297 C-385.54708496 158.61448212 -385.44573242 157.86617126 -385.34130859 157.09518433 C-385.00399431 155.0245198 -384.53908454 153.02661557 -384 151 C-382.78183594 151.01160156 -381.56367188 151.02320313 -380.30859375 151.03515625 C-378.68489738 151.04454178 -377.06119933 151.05364116 -375.4375 151.0625 C-374.63763672 151.07087891 -373.83777344 151.07925781 -373.01367188 151.08789062 C-368.23250962 151.10740557 -363.70465767 150.88405525 -359 150 C-357.37772165 148.37772165 -357.54392809 146.40839267 -357.23828125 144.171875 C-352.38348176 110.36768924 -342.59748243 75.77407623 -314.90625 53.30078125 C-289.76263004 34.65259644 -258.9779205 29.96857221 -228.5 34.1875 C-210.15587781 36.99393416 -192.57174672 42.13087886 -175 48 C-174.52288922 46.43806402 -174.0480867 44.87542287 -173.57421875 43.3125 C-173.30955811 42.44238281 -173.04489746 41.57226562 -172.7722168 40.67578125 C-171.83058878 37.41297915 -171.06034097 34.12838166 -170.33203125 30.8125 C-168.05272393 27.71103784 -164.6004608 27.58150986 -161 27 C-158.56260572 26.65399602 -156.12361593 26.31914524 -153.68359375 25.9921875 C-151.63446814 25.71262641 -149.58536981 25.43287635 -147.53637695 25.15234375 C-146.13671952 24.96739425 -144.73559378 24.79323717 -143.33325195 24.62988281 C-133.4776674 23.61896915 -133.4776674 23.61896915 -125.7109375 17.94140625 C-124.80682397 16.62792597 -123.90311026 15.3141703 -123 14 C-118.10944359 10.63095003 -112.85648937 9.84012457 -107 10 C-102.23836786 10.90915779 -97.66091144 12.29817996 -93.19604492 14.18481445 C-87.23387374 15.85553142 -81.06804274 14.02653883 -75.125 12.9296875 C-73.75544888 12.68841933 -72.38565099 12.4485483 -71.015625 12.20999146 C-67.40520415 11.57751661 -63.79837924 10.92646682 -60.1920166 10.27130127 C-56.60650348 9.62306558 -53.01801924 8.99178627 -49.4296875 8.359375 C-43.87744674 7.37882183 -38.32675315 6.39000364 -32.77734375 5.39355469 C-25.70838732 4.12471251 -18.63700494 2.87035644 -11.5625 1.6328125 C-10.13260742 1.38058426 -10.13260742 1.38058426 -8.67382812 1.1232605 C-7.81337891 0.97317535 -6.95292969 0.82309021 -6.06640625 0.66845703 C-5.32334229 0.53827179 -4.58027832 0.40808655 -3.81469727 0.2739563 C-2 0 -2 0 0 0 Z M-84 19 C-83.67 19.66 -83.34 20.32 -83 21 C-82.34 20.67 -81.68 20.34 -81 20 C-81.99 19.67 -82.98 19.34 -84 19 Z M-132 24 C-131 27 -131 27 -131 27 Z M-111 24 C-111 24.33 -111 24.66 -111 25 C-108.69 25 -106.38 25 -104 25 C-104 24.67 -104 24.34 -104 24 C-106.31 24 -108.62 24 -111 24 Z M-133 27 C-133 28.65 -133 30.3 -133 32 C-132.67 32 -132.34 32 -132 32 C-132 30.35 -132 28.7 -132 27 C-132.33 27 -132.66 27 -133 27 Z M-115 27 C-114 29 -114 29 -114 29 Z M-116 29 C-115 32 -115 32 -115 32 Z M-117 32 C-117 33.98 -117 35.96 -117 38 C-116.67 38 -116.34 38 -116 38 C-116 36.02 -116 34.04 -116 32 C-116.33 32 -116.66 32 -117 32 Z M-134 33 C-133 35 -133 35 -133 35 Z M-82 38 C-81.01 38.99 -80.02 39.98 -79 41 C-79.33 40.01 -79.66 39.02 -80 38 C-80.66 38 -81.32 38 -82 38 Z M-117 39 C-117 41.31 -117 43.62 -117 46 C-116.67 46 -116.34 46 -116 46 C-116 43.69 -116 41.38 -116 39 C-116.33 39 -116.66 39 -117 39 Z M-116 47 C-115 50 -115 50 -115 50 Z M-73 47 C-72.67 47.99 -72.34 48.98 -72 50 C-72 49.01 -72 48.02 -72 47 C-72.33 47 -72.66 47 -73 47 Z M-253 49 C-253 49.33 -253 49.66 -253 50 C-250.36 50 -247.72 50 -245 50 C-245 49.67 -245 49.34 -245 49 C-247.64 49 -250.28 49 -253 49 Z M-265 50 C-265 50.33 -265 50.66 -265 51 C-262.03 51 -259.06 51 -256 51 C-256 50.67 -256 50.34 -256 50 C-258.97 50 -261.94 50 -265 50 Z M-244 50 C-244 50.33 -244 50.66 -244 51 C-240.37 51 -236.74 51 -233 51 C-233 50.67 -233 50.34 -233 50 C-236.63 50 -240.26 50 -244 50 Z M-272 51 C-272 51.33 -272 51.66 -272 52 C-270.35 52 -268.7 52 -267 52 C-267 51.67 -267 51.34 -267 51 C-268.65 51 -270.3 51 -272 51 Z M-231 51 C-231 51.33 -231 51.66 -231 52 C-229.02 52 -227.04 52 -225 52 C-225 51.67 -225 51.34 -225 51 C-226.98 51 -228.96 51 -231 51 Z M-115 51 C-114 54 -114 54 -114 54 Z M-276 52 C-272 53 -272 53 -272 53 Z M-225 52 C-225 52.33 -225 52.66 -225 53 C-223.35 53 -221.7 53 -220 53 C-220 52.67 -220 52.34 -220 52 C-221.65 52 -223.3 52 -225 52 Z M-69 52 C-68.67 52.99 -68.34 53.98 -68 55 C-68 54.01 -68 53.02 -68 52 C-68.33 52 -68.66 52 -69 52 Z M-218 53 C-214 54 -214 54 -214 54 Z M-214 54 C-210 55 -210 55 -210 55 Z M-114 54 C-113 57 -113 57 -113 57 Z M-66 56 C-65 58 -65 58 -65 58 Z M-113 57 C-112 59 -112 59 -112 59 Z M-112 59 C-111 62 -111 62 -111 62 Z M-64 59 C-63 61 -63 61 -63 61 Z M-193 60 C-192.67 60.66 -192.34 61.32 -192 62 C-191.67 61.34 -191.34 60.68 -191 60 C-191.66 60 -192.32 60 -193 60 Z M-111 62 C-110 64 -110 64 -110 64 Z M-62 62 C-61 64 -61 64 -61 64 Z M-194 63 C-193 65 -193 65 -193 65 Z M-110 64 C-109 66 -109 66 -109 66 Z M-60 65 C-59 67 -59 67 -59 67 Z M-194 66 C-193 69 -193 69 -193 69 Z M-109 66 C-108 68 -108 68 -108 68 Z M-58 68 C-57 70 -57 70 -57 70 Z M-309 69 C-309.33 69.66 -309.66 70.32 -310 71 C-309.01 70.67 -308.02 70.34 -307 70 C-307.66 69.67 -308.32 69.34 -309 69 Z M-193 70 C-192 72 -192 72 -192 72 Z M-57 70 C-56 72 -56 72 -56 72 Z M-106 71 C-105 73 -105 73 -105 73 Z M-56 72 C-55 74 -55 74 -55 74 Z M-313 73 C-313.66 74.32 -314.32 75.64 -315 77 C-314.01 76.34 -313.02 75.68 -312 75 C-312.33 74.34 -312.66 73.68 -313 73 Z M-191 73 C-190 75 -190 75 -190 75 Z M-105 73 C-104 75 -104 75 -104 75 Z M-54 75 C-53 77 -53 77 -53 77 Z M-296.2734375 95.12890625 C-328.22490708 128.77407838 -331.104873 179.28647019 -330.14794922 223.06201172 C-329.33585523 253.18177392 -325.05106387 283.20981685 -318.3125 312.5625 C-318.12252441 313.40095459 -317.93254883 314.23940918 -317.73681641 315.10327148 C-316.79310204 318.93110507 -316.10874499 321.52176478 -313 324 C-310.83674594 324.90369808 -310.83674594 324.90369808 -308.37890625 325.5 C-307.4552124 325.7460498 -306.53151855 325.99209961 -305.57983398 326.24560547 C-300.39589773 327.54169439 -295.20954436 328.8103654 -290 330 C-288.79875488 330.2798877 -288.79875488 330.2798877 -287.57324219 330.56542969 C-263.21637179 335.96728541 -234.04191074 335.366618 -210 329 C-209.16984375 328.79101074 -208.3396875 328.58202148 -207.484375 328.36669922 C-152.51403871 314.29741261 -109.13187067 274.43577699 -80.46875 226.828125 C-68.22198844 205.95362125 -57.93550985 182.00661011 -54 158 C-63.02892681 150.01633817 -72.6799972 143.23107865 -82.69287109 136.54443359 C-84.78897853 135.14126157 -86.87486739 133.72452395 -88.95703125 132.30078125 C-138.96457275 98.25056912 -241.25785217 42.9803303 -296.2734375 95.12890625 Z M-103 76 C-102 78 -102 78 -102 78 Z M-53 77 C-52 79 -52 79 -52 79 Z M-150 78 C-149.67 78.99 -149.34 79.98 -149 81 C-148.67 80.01 -148.34 79.02 -148 78 C-148.66 78 -149.32 78 -150 78 Z M-102 78 C-101 80 -101 80 -101 80 Z M-52 79 C-51 81 -51 81 -51 81 Z M-319 80 C-318 82 -318 82 -318 82 Z M-151 81 C-150 83 -150 83 -150 83 Z M-100 81 C-99 83 -99 83 -99 83 Z M-51 81 C-50 83 -50 83 -50 83 Z M-321 83 C-320 85 -320 85 -320 85 Z M-50 83 C-49 85 -49 85 -49 85 Z M-98 84 C-97 86 -97 86 -97 86 Z M-323 86 C-322 88 -322 88 -322 88 Z M-96 87 C-95.67 87.99 -95.34 88.98 -95 90 C-95 89.01 -95 88.02 -95 87 C-95.33 87 -95.66 87 -96 87 Z M-164 88 C-160 89 -160 89 -160 89 Z M-325 89 C-324 91 -324 91 -324 91 Z M-47 89 C-46 91 -46 91 -46 91 Z M-326 91 C-325 93 -325 93 -325 93 Z M-93 91 C-92 93 -92 93 -92 93 Z M-327 93 C-326 95 -326 95 -326 95 Z M-328 95 C-327 97 -327 97 -327 97 Z M-90 95 C-89 97 -89 97 -89 97 Z M-329 97 C-328 99 -328 99 -328 99 Z M-330 99 C-329 101 -329 101 -329 101 Z M-86 100 C-85.34 101.32 -84.68 102.64 -84 104 C-84 103.01 -84 102.02 -84 101 C-84.66 100.67 -85.32 100.34 -86 100 Z M-331 102 C-330 104 -330 104 -330 104 Z M-332 104 C-331 107 -331 107 -331 107 Z M-105 105 C-104.67 105.66 -104.34 106.32 -104 107 C-103.34 106.67 -102.68 106.34 -102 106 C-102.99 105.67 -103.98 105.34 -105 105 Z M-333 107 C-332 109 -332 109 -332 109 Z M-80 107 C-79.67 107.66 -79.34 108.32 -79 109 C-78.34 108.67 -77.68 108.34 -77 108 C-77.99 107.67 -78.98 107.34 -80 107 Z M-334 110 C-333 112 -333 112 -333 112 Z M-76 110 C-75.67 110.66 -75.34 111.32 -75 112 C-74.34 111.67 -73.68 111.34 -73 111 C-73.99 110.67 -74.98 110.34 -76 110 Z M-335 113 C-334 115 -334 115 -334 115 Z M-71 114 C-70.67 114.66 -70.34 115.32 -70 116 C-69.34 115.67 -68.68 115.34 -68 115 C-68.99 114.67 -69.98 114.34 -71 114 Z M-91 115 C-90.67 115.66 -90.34 116.32 -90 117 C-89.34 116.67 -88.68 116.34 -88 116 C-88.99 115.67 -89.98 115.34 -91 115 Z M-336 116 C-335 119 -335 119 -335 119 Z M-87 118 C-86.67 118.66 -86.34 119.32 -86 120 C-85.34 119.67 -84.68 119.34 -84 119 C-84.99 118.67 -85.98 118.34 -87 118 Z M-337 119 C-336 123 -336 123 -336 123 Z M-338 124 C-337 127 -337 127 -337 127 Z M-59 124 C-58.67 124.66 -58.34 125.32 -58 126 C-57.34 125.67 -56.68 125.34 -56 125 C-56.99 124.67 -57.98 124.34 -59 124 Z M-78 125 C-77.67 125.66 -77.34 126.32 -77 127 C-76.34 126.67 -75.68 126.34 -75 126 C-75.99 125.67 -76.98 125.34 -78 125 Z M-339 128 C-338 132 -338 132 -338 132 Z M-72 130 C-71.67 130.66 -71.34 131.32 -71 132 C-70.34 131.67 -69.68 131.34 -69 131 C-69.99 130.67 -70.98 130.34 -72 130 Z M-52 130 C-51.01 130.99 -50.02 131.98 -49 133 C-49.33 132.01 -49.66 131.02 -50 130 C-50.66 130 -51.32 130 -52 130 Z M-340 133 C-340.33 135.31 -340.66 137.62 -341 140 C-340.34 140 -339.68 140 -339 140 C-339 137.69 -339 135.38 -339 133 C-339.33 133 -339.66 133 -340 133 Z M-66 135 C-65.67 135.66 -65.34 136.32 -65 137 C-64.34 136.67 -63.68 136.34 -63 136 C-63.99 135.67 -64.98 135.34 -66 135 Z M-59 141 C-58.01 142.485 -58.01 142.485 -57 144 C-56.34 143.67 -55.68 143.34 -55 143 C-56.32 142.34 -57.64 141.68 -59 141 Z M-332 143 C-331 145 -331 145 -331 145 Z M-331 145 C-330 147 -330 147 -330 147 Z M-330 148 C-330 152.29 -330 156.58 -330 161 C-329.67 161 -329.34 161 -329 161 C-329 156.71 -329 152.42 -329 148 C-329.33 148 -329.66 148 -330 148 Z M-360 162 C-359 164 -359 164 -359 164 Z M-331 162 C-330 164 -330 164 -330 164 Z M-332 165 C-331 167 -331 167 -331 167 Z M-333 167 C-332 169 -332 169 -332 169 Z M-344 174 C-344 179.28 -344 184.56 -344 190 C-343.67 190 -343.34 190 -343 190 C-343 185.05 -343 180.1 -343 175 C-341.68 174.67 -340.36 174.34 -339 174 C-340.65 174 -342.3 174 -344 174 Z M-52 197 C-51.67 197.66 -51.34 198.32 -51 199 C-49.35 199 -47.7 199 -46 199 C-48.81509993 196.7226499 -48.81509993 196.7226499 -52 197 Z M-55 198 C-55 199.65 -55 201.3 -55 203 C-54.34 202.34 -53.68 201.68 -53 201 C-53 200.01 -53 199.02 -53 198 C-53.66 198 -54.32 198 -55 198 Z M-46 199 C-42.36915179 202.63084821 -36.55473568 202.86898791 -31.5625 203.125 C-29.70786523 203.125 -27.85336404 203.06864311 -26 203 C-32.06224407 199.67554357 -39.13938387 198.63891494 -46 199 Z M-343 200 C-343 203.96 -343 207.92 -343 212 C-342.67 212 -342.34 212 -342 212 C-342 208.04 -342 204.08 -342 200 C-342.33 200 -342.66 200 -343 200 Z M-51 201 C-50.67 201.66 -50.34 202.32 -50 203 C-48.02 203 -46.04 203 -44 203 C-45.83883881 200.71271266 -45.83883881 200.71271266 -48.625 200.875 C-49.800625 200.936875 -49.800625 200.936875 -51 201 Z M-56 203 C-56.33 205.64 -56.66 208.28 -57 211 C-54.8480563 207.77208445 -54.79913557 206.71599191 -55 203 C-55.33 203 -55.66 203 -56 203 Z M-53 203 C-53 204.98 -53 206.96 -53 209 C-52.01 208.67 -51.02 208.34 -50 208 C-47.8125 208.4375 -47.8125 208.4375 -46 209 C-46.66 208.67 -47.32 208.34 -48 208 C-48 207.34 -48 206.68 -48 206 C-47.34 206 -46.68 206 -46 206 C-46 205.34 -46 204.68 -46 204 C-48.31 203.67 -50.62 203.34 -53 203 Z M-44 203 C-41.04622502 205.36980013 -41.04622502 205.36980013 -37 205 C-37 204.34 -37 203.68 -37 203 C-39.31 203 -41.62 203 -44 203 Z M-26 203 C-26 203.33 -26 203.66 -26 204 C-22.32612505 204.85298376 -18.9552607 205.10789471 -15.1875 205.0625 C-14.21167969 205.05347656 -13.23585938 205.04445313 -12.23046875 205.03515625 C-11.49441406 205.02355469 -10.75835937 205.01195312 -10 205 C-11.91406662 202.64358476 -11.91406662 202.64358476 -15.2578125 202.8046875 C-17.17207031 202.83949219 -17.17207031 202.83949219 -19.125 202.875 C-20.40632813 202.89304687 -21.68765625 202.91109375 -23.0078125 202.9296875 C-23.99523437 202.95289063 -24.98265625 202.97609375 -26 203 Z M-34 205 C-33.67 205.66 -33.34 206.32 -33 207 C-32.67 206.34 -32.34 205.68 -32 205 C-32.66 205 -33.32 205 -34 205 Z M-30 205 C-30.33 205.99 -30.66 206.98 -31 208 C-27.98968256 208.93423645 -27.13349732 209.04449911 -24 208 C-24 207.34 -24 206.68 -24 206 C-26.97 205.505 -26.97 205.505 -30 205 Z M-10 206 C-11.05272778 208.10545555 -11.32161197 209.64316085 -11.6484375 211.96459961 C-11.76525879 212.78403549 -11.88208008 213.60347137 -12.00244141 214.44773865 C-12.12538574 215.34025833 -12.24833008 216.23277802 -12.375 217.15234375 C-12.50438965 218.08107803 -12.6337793 219.00981232 -12.76708984 219.96669006 C-13.04131289 221.9461963 -13.31355097 223.92597834 -13.58398438 225.90600586 C-13.99040719 228.86759743 -14.40888009 231.82730984 -14.828125 234.78710938 C-17.61264773 254.81004618 -18.14879798 274.4921451 -18.0625 294.6875 C-18.05746742 296.76887911 -18.05290766 298.85025943 -18.04882812 300.93164062 C-18.03797916 305.95445755 -18.02081486 310.9772149 -18 316 C-17.67 316 -17.34 316 -17 316 C-16.98018066 314.79802979 -16.96036133 313.59605957 -16.93994141 312.35766602 C-16.43448634 282.72522289 -15.30190119 253.73454456 -10.67675781 224.42919922 C-10.51190384 223.37055664 -10.51190384 223.37055664 -10.34371948 222.29052734 C-10.04279388 220.3659798 -9.73524682 218.44247091 -9.42724609 216.51904297 C-8.99705613 212.97575257 -8.92515913 209.56551067 -9 206 C-9.33 206 -9.66 206 -10 206 Z M-14 207 C-13 209 -13 209 -13 209 Z M-44 208 C-44 208.66 -44 209.32 -44 210 C-43.34 209.67 -42.68 209.34 -42 209 C-42.66 208.67 -43.32 208.34 -44 208 Z M-49 210 C-49.33 212.97 -49.66 215.94 -50 219 C-49.34 219 -48.68 219 -48 219 C-47 221 -46 223 -45 225 C-47.31 224.67 -49.62 224.34 -52 224 C-52.66 226.31 -53.32 228.62 -54 231 C-46.2441657 232.70994772 -38.93396732 233.24923458 -31 233 C-33.33333333 235.33333333 -35.66666667 237.66666667 -38 240 C-39.23697917 238.47005208 -40.47395833 236.94010417 -41.7109375 235.41015625 C-43.63465085 233.30573043 -44.91356978 233.01178594 -47.75 232.625 C-51.11356486 233.01310364 -53.07803065 233.74522759 -55.609375 236.0234375 C-58.68612519 240.39657119 -59.72385462 245.87289826 -61 251 C-55.6408575 252.71036463 -50.60474681 253.48263876 -45 254 C-52.92 254.99 -52.92 254.99 -61 256 C-63.22698639 261.1352273 -63.22698639 261.1352273 -62 266 C-60.31408676 267.54834838 -60.31408676 267.54834838 -58.10546875 268.60546875 C-57.31462891 269.03150391 -56.52378906 269.45753906 -55.70898438 269.89648438 C-54.87689453 270.32251953 -54.04480469 270.74855469 -53.1875 271.1875 C-52.36701172 271.62513672 -51.54652344 272.06277344 -50.70117188 272.51367188 C-47.15907342 274.3953219 -43.58757259 276.2062137 -40 278 C-48.58 276.68 -57.16 275.36 -66 274 C-68.10540926 279.26213521 -68.10540926 279.26213521 -68 282 C-66.58461283 282.33872513 -65.16762037 282.67074624 -63.75 283 C-62.56664062 283.2784375 -62.56664062 283.2784375 -61.359375 283.5625 C-58.74443998 284.12154828 -58.74443998 284.12154828 -55 284 C-55.66 285.98 -56.32 287.96 -57 290 C-58.216875 289.67 -59.43375 289.34 -60.6875 289 C-63.87210604 288.19677787 -66.6972843 287.79358027 -70 288 C-70.66 290.97 -71.32 293.94 -72 297 C-59.13 300.63 -46.26 304.26 -33 308 C-33 304.04 -33 300.08 -33 296 C-38.32932432 294.29915181 -43.43109483 293.47986031 -49 293 C-48.67 290.69 -48.34 288.38 -48 286 C-42.72 286.99 -37.44 287.98 -32 289 C-31.67 283.39 -31.34 277.78 -31 272 C-34.3 271.01 -37.6 270.02 -41 269 C-41 267.02 -41 265.04 -41 263 C-37.04 263 -33.08 263 -29 263 C-28.67 258.38 -28.34 253.76 -28 249 C-29.65 248.34 -31.3 247.68 -33 247 C-31.55753906 246.26523437 -31.55753906 246.26523437 -30.0859375 245.515625 C-26.76677327 242.85865307 -26.76677327 242.85865307 -25.9765625 239.109375 C-25.83150174 237.65876735 -25.71497741 236.20506331 -25.625 234.75 C-25.55667969 234.00492188 -25.48835938 233.25984375 -25.41796875 232.4921875 C-25.25385701 230.6635138 -25.12354416 228.83186162 -25 227 C-26.32 226.67 -27.64 226.34 -29 226 C-28.21625 225.525625 -27.4325 225.05125 -26.625 224.5625 C-23.0689031 221.09107207 -22.68652451 217.7954249 -22 213 C-25.95906817 214.43308135 -29.28718181 216.33141949 -32.8125 218.625 C-33.78832031 219.25664062 -34.76414062 219.88828125 -35.76953125 220.5390625 C-36.87361328 221.26222656 -36.87361328 221.26222656 -38 222 C-40.32940046 219.13037688 -42.55668123 216.24994618 -44.625 213.1875 C-45.40875 212.135625 -46.1925 211.08375 -47 210 C-47.66 210 -48.32 210 -49 210 Z M-37 210 C-37 211.32 -37 212.64 -37 214 C-36.67 212.68 -36.34 211.36 -36 210 C-36.33 210 -36.66 210 -37 210 Z M-17 210 C-17 210.66 -17 211.32 -17 212 C-16.34 212 -15.68 212 -15 212 C-15 211.34 -15 210.68 -15 210 C-15.66 210 -16.32 210 -17 210 Z M-58 211 C-58.84179395 213.72681111 -59.67363069 216.45601443 -60.5 219.1875 C-60.73847656 219.95642578 -60.97695313 220.72535156 -61.22265625 221.51757812 C-62.40213617 225.44356128 -63.3326262 228.85048821 -63 233 C-60.29668983 230.29668983 -59.80084314 227.28457204 -58.875 223.6875 C-58.60236328 222.69073242 -58.60236328 222.69073242 -58.32421875 221.67382812 C-57.36795545 218.0393086 -56.78188495 214.75884943 -57 211 C-57.33 211 -57.66 211 -58 211 Z M-342 212 C-342 215.3 -342 218.6 -342 222 C-341.67 222 -341.34 222 -341 222 C-341 218.7 -341 215.4 -341 212 C-341.33 212 -341.66 212 -342 212 Z M-55 212 C-55 212.99 -55 213.98 -55 215 C-54.34 214.67 -53.68 214.34 -53 214 C-53 213.34 -53 212.68 -53 212 C-53.66 212 -54.32 212 -55 212 Z M-44 212 C-43.01 213.485 -43.01 213.485 -42 215 C-42 214.01 -42 213.02 -42 212 C-42.66 212 -43.32 212 -44 212 Z M-29 212 C-29 212.99 -29 213.98 -29 215 C-27.68 214.34 -26.36 213.68 -25 213 C-26.32 212.67 -27.64 212.34 -29 212 Z M-15 212 C-15 214.31 -15 216.62 -15 219 C-14.34 218.67 -13.68 218.34 -13 218 C-13 216.02 -13 214.04 -13 212 C-13.66 212 -14.32 212 -15 212 Z M-41 215 C-40.67 216.32 -40.34 217.64 -40 219 C-39.67 218.01 -39.34 217.02 -39 216 C-39.66 215.67 -40.32 215.34 -41 215 Z M-57 218 C-57.33425735 220.62625139 -57.33425735 220.62625139 -57 223 C-56.34 222.67 -55.68 222.34 -55 222 C-54.34786708 219.97536745 -54.34786708 219.97536745 -54 218 C-53.01 218.33 -52.02 218.66 -51 219 C-51.33 217.68 -51.66 216.36 -52 215 C-54.19105604 215 -55.49743905 216.59437846 -57 218 Z M-37 218 C-36.67 218.66 -36.34 219.32 -36 220 C-35.34 219.34 -34.68 218.68 -34 218 C-34.99 218 -35.98 218 -37 218 Z M-39 219 C-39 219.66 -39 220.32 -39 221 C-38.34 220.67 -37.68 220.34 -37 220 C-37.66 219.67 -38.32 219.34 -39 219 Z M-50 221 C-50.33 221.66 -50.66 222.32 -51 223 C-50.01 222.67 -49.02 222.34 -48 222 C-48.66 221.67 -49.32 221.34 -50 221 Z M-341 224 C-341 226.31 -341 228.62 -341 231 C-340.67 231 -340.34 231 -340 231 C-340 228.69 -340 226.38 -340 224 C-340.33 224 -340.66 224 -341 224 Z M-58 225 C-58.33 226.65 -58.66 228.3 -59 230 C-57.68 229.34 -56.36 228.68 -55 228 C-55.33 227.01 -55.66 226.02 -56 225 C-56.66 225 -57.32 225 -58 225 Z M-23 225 C-22.67 226.65 -22.34 228.3 -22 230 C-21.67 229.34 -21.34 228.68 -21 228 C-21.66 227.01 -22.32 226.02 -23 225 Z M-17 226 C-17.33 226.99 -17.66 227.98 -18 229 C-17.01 229.99 -16.02 230.98 -15 232 C-15.33 230.02 -15.66 228.04 -16 226 C-16.33 226 -16.66 226 -17 226 Z M-401 229 C-401.33 229.66 -401.66 230.32 -402 231 C-399.36 230.67 -396.72 230.34 -394 230 C-394 229.67 -394 229.34 -394 229 C-396.31 229 -398.62 229 -401 229 Z M-56 230 C-56 230.66 -56 231.32 -56 232 C-55.34 231.67 -54.68 231.34 -54 231 C-54.66 230.67 -55.32 230.34 -56 230 Z M-404 231 C-403.67 231.66 -403.34 232.32 -403 233 C-402.67 232.34 -402.34 231.68 -402 231 C-402.66 231 -403.32 231 -404 231 Z M-61 232 C-61.25030977 234.58380177 -61.25030977 234.58380177 -61 237 C-59.68 237 -58.36 237 -57 237 C-57 234.69 -57 232.38 -57 230 C-58.46225016 229.90754997 -58.46225016 229.90754997 -61 232 Z M-340 232 C-340 234.31 -340 236.62 -340 239 C-339.67 239 -339.34 239 -339 239 C-339 236.69 -339 234.38 -339 232 C-339.33 232 -339.66 232 -340 232 Z M-18 232 C-17 235 -17 235 -17 235 Z M-405 233 C-404 235 -404 235 -404 235 Z M-64 233 C-64.33 234.98 -64.66 236.96 -65 239 C-64.34 238.34 -63.68 237.68 -63 237 C-63.3185177 234.89179203 -63.3185177 234.89179203 -64 233 Z M-25 234 C-25 236.31 -25 238.62 -25 241 C-22.71271266 239.16116119 -22.71271266 239.16116119 -22.875 236.375 C-22.936875 235.199375 -22.936875 235.199375 -23 234 C-23.66 234 -24.32 234 -25 234 Z M-406 235 C-406 239.62 -406 244.24 -406 249 C-405.67 249 -405.34 249 -405 249 C-405 244.38 -405 239.76 -405 235 C-405.33 235 -405.66 235 -406 235 Z M-383 235 C-382.67 235.66 -382.34 236.32 -382 237 C-381.34 236.67 -380.68 236.34 -380 236 C-380.99 235.67 -381.98 235.34 -383 235 Z M-39 236 C-39 236.66 -39 237.32 -39 238 C-38.01 237.67 -37.02 237.34 -36 237 C-36.99 236.67 -37.98 236.34 -39 236 Z M-20 235 C-20.99 235.495 -20.99 235.495 -22 236 C-22 236.66 -22 237.32 -22 238 C-21.01 238 -20.02 238 -19 238 C-19.33 237.01 -19.66 236.02 -20 235 Z M-60 238 C-59 240 -59 240 -59 240 Z M-66 239 C-66.53394179 240.4117783 -67.05165104 241.82970244 -67.5625 243.25 C-67.85253906 244.03890625 -68.14257812 244.8278125 -68.44140625 245.640625 C-69.04522837 248.19103452 -68.8473932 249.55322229 -68 252 C-65.35527522 245.71724311 -65.35527522 245.71724311 -65 239 C-65.33 239 -65.66 239 -66 239 Z M-63 240 C-63 241.98 -63 243.96 -63 246 C-63.66 245.67 -64.32 245.34 -65 245 C-64.67 246.32 -64.34 247.64 -64 249 C-63.01 249 -62.02 249 -61 249 C-60.67 246.03 -60.34 243.06 -60 240 C-60.99 240 -61.98 240 -63 240 Z M-18 240 C-18.33 241.65 -18.66 243.3 -19 245 C-18.01 245.495 -18.01 245.495 -17 246 C-17 244.02 -17 242.04 -17 240 C-17.33 240 -17.66 240 -18 240 Z M-339 241 C-339 242.98 -339 244.96 -339 247 C-338.67 247 -338.34 247 -338 247 C-338 245.02 -338 243.04 -338 241 C-338.33 241 -338.66 241 -339 241 Z M-27 243 C-26 245 -26 245 -26 245 Z M-371 245 C-370.34 245.66 -369.68 246.32 -369 247 C-369 246.34 -369 245.68 -369 245 C-369.66 245 -370.32 245 -371 245 Z M-29 245 C-29.66 245.66 -30.32 246.32 -31 247 C-30.01 247 -29.02 247 -28 247 C-28.33 246.34 -28.66 245.68 -29 245 Z M-369 247 C-368.34 247.66 -367.68 248.32 -367 249 C-367 248.34 -367 247.68 -367 247 C-367.66 247 -368.32 247 -369 247 Z M-338 248 C-338 249.65 -338 251.3 -338 253 C-337.67 253 -337.34 253 -337 253 C-337 251.35 -337 249.7 -337 248 C-337.33 248 -337.66 248 -338 248 Z M-27 248 C-27 251.96 -27 255.92 -27 260 C-23.59374071 256.39417559 -23.59374071 256.39417559 -24.3125 252.75 C-24.539375 251.8425 -24.76625 250.935 -25 250 C-24.01 250 -23.02 250 -22 250 C-22 249.34 -22 248.68 -22 248 C-23.65 248 -25.3 248 -27 248 Z M-405 250 C-404 254 -404 254 -404 254 Z M-70 252 C-70.33 253.98 -70.66 255.96 -71 258 C-70.34 257.34 -69.68 256.68 -69 256 C-69.3185177 253.89179203 -69.3185177 253.89179203 -70 252 Z M-67 252 C-66 255 -66 255 -66 255 Z M-62 252 C-62.66 252.66 -63.32 253.32 -64 254 C-63.6814823 256.10820797 -63.6814823 256.10820797 -63 258 C-63 257.01 -63 256.02 -63 255 C-59.535 254.505 -59.535 254.505 -56 254 C-56 253.67 -56 253.34 -56 253 C-58.90073181 252.32198966 -58.90073181 252.32198966 -62 252 Z M-22 252 C-22 253.32 -22 254.64 -22 256 C-21.34 256 -20.68 256 -20 256 C-20.185625 256.969375 -20.37125 257.93875 -20.5625 258.9375 C-21.21856047 263.38413206 -20.65134866 267.58084983 -20 272 C-19.67 272 -19.34 272 -19 272 C-19 265.4 -19 258.8 -19 252 C-19.99 252 -20.98 252 -22 252 Z M-404 254 C-403 257 -403 257 -403 257 Z M-337 254 C-337 255.65 -337 257.3 -337 259 C-336.67 259 -336.34 259 -336 259 C-336 257.35 -336 255.7 -336 254 C-336.33 254 -336.66 254 -337 254 Z M-361 255 C-360.67 255.99 -360.34 256.98 -360 258 C-360 257.01 -360 256.02 -360 255 C-360.33 255 -360.66 255 -361 255 Z M-403 258 C-402 261 -402 261 -402 261 Z M-72 258 C-72.33 259.98 -72.66 261.96 -73 264 C-72.34 263.34 -71.68 262.68 -71 262 C-71.3185177 259.89179203 -71.3185177 259.89179203 -72 258 Z M-69 258 C-69 258.99 -69 259.98 -69 261 C-68.34 260.67 -67.68 260.34 -67 260 C-67 259.34 -67 258.68 -67 258 C-67.66 258 -68.32 258 -69 258 Z M-357 260 C-356.67 260.99 -356.34 261.98 -356 263 C-356 262.01 -356 261.02 -356 260 C-356.33 260 -356.66 260 -357 260 Z M-336 260 C-336 261.65 -336 263.3 -336 265 C-335.67 265 -335.34 265 -335 265 C-335 263.35 -335 261.7 -335 260 C-335.33 260 -335.66 260 -336 260 Z M-402 261 C-401 263 -401 263 -401 263 Z M-28 262 C-28 262.66 -28 263.32 -28 264 C-27.34 263.67 -26.68 263.34 -26 263 C-26.66 262.67 -27.32 262.34 -28 262 Z M-401 264 C-400 266 -400 266 -400 266 Z M-354 264 C-353.67 264.99 -353.34 265.98 -353 267 C-353 266.01 -353 265.02 -353 264 C-353.33 264 -353.66 264 -354 264 Z M-74 264 C-74.33 265.98 -74.66 267.96 -75 270 C-74.34 269.34 -73.68 268.68 -73 268 C-73.3185177 265.89179203 -73.3185177 265.89179203 -74 264 Z M-71 264 C-70.67 265.32 -70.34 266.64 -70 268 C-69.67 266.68 -69.34 265.36 -69 264 C-69.66 264 -70.32 264 -71 264 Z M-39 264 C-38 266 -38 266 -38 266 Z M-33 265 C-33 266.98 -33 268.96 -33 271 C-32.01 271.33 -31.02 271.66 -30 272 C-30 271.01 -30 270.02 -30 269 C-30 267.68 -30 266.36 -30 265 C-30.99 265 -31.98 265 -33 265 Z M-400 266 C-399 268 -399 268 -399 268 Z M-335 266 C-334 270 -334 270 -334 270 Z M-351 268 C-350 270 -350 270 -350 270 Z M-61 268 C-61 268.66 -61 269.32 -61 270 C-60.01 269.67 -59.02 269.34 -58 269 C-58.99 268.67 -59.98 268.34 -61 268 Z M-399 269 C-398 271 -398 271 -398 271 Z M-334 270 C-334 271.65 -334 273.3 -334 275 C-333.67 275 -333.34 275 -333 275 C-333 273.35 -333 271.7 -333 270 C-333.33 270 -333.66 270 -334 270 Z M-76 270 C-78.3890198 274.53338332 -78.3890198 274.53338332 -78.6875 279.4375 C-78.460625 279.953125 -78.23375 280.46875 -78 281 C-75.6109802 276.46661668 -75.6109802 276.46661668 -75.3125 271.5625 C-75.539375 271.046875 -75.76625 270.53125 -76 270 Z M-73 270 C-73 271.32 -73 272.64 -73 274 C-73.66 274.66 -74.32 275.32 -75 276 C-74.83333333 278.08333333 -74.83333333 278.08333333 -74 280 C-73.34 280.33 -72.68 280.66 -72 281 C-72 279.35 -72 277.7 -72 276 C-71.01 275.67 -70.02 275.34 -69 275 C-68.67 274.01 -68.34 273.02 -68 272 C-70.475 271.01 -70.475 271.01 -73 270 Z M-58 270 C-58.99 271.485 -58.99 271.485 -60 273 C-56.5647952 275.29013653 -55.014669 275.17842973 -51 275 C-51 274.34 -51 273.68 -51 273 C-53.31 272.01 -55.62 271.02 -58 270 Z M-398 271 C-397 273 -397 273 -397 273 Z M-349 271 C-348 273 -348 273 -348 273 Z M-65.5625 271.5 C-66.036875 271.995 -66.51125 272.49 -67 273 C-65.35 273 -63.7 273 -62 273 C-62.33 272.01 -62.66 271.02 -63 270 C-64.24076302 269.88457803 -64.24076302 269.88457803 -65.5625 271.5 Z M-397 273 C-396 275 -396 275 -396 275 Z M-396 275 C-395 277 -395 277 -395 277 Z M-347 275 C-346 277 -346 277 -346 277 Z M-333 276 C-332 280 -332 280 -332 280 Z M-395 277 C-394 279 -394 279 -394 279 Z M-346 277 C-345 279 -345 279 -345 279 Z M-70 277 C-70.33 278.32 -70.66 279.64 -71 281 C-70.01 281.495 -70.01 281.495 -69 282 C-69 280.35 -69 278.7 -69 277 C-69.33 277 -69.66 277 -70 277 Z M-394 279 C-393 281 -393 281 -393 281 Z M-345 280 C-344 284 -344 284 -344 284 Z M-22 280 C-21 284 -21 284 -21 284 Z M-393 281 C-392 283 -392 283 -392 283 Z M-332 281 C-331 284 -331 284 -331 284 Z M-80 281 C-80.86555948 283.09950586 -81.71711277 285.2047907 -82.5625 287.3125 C-83.03816406 288.48425781 -83.51382812 289.65601563 -84.00390625 290.86328125 C-85.33297345 293.98196084 -85.33297345 293.98196084 -84 297 C-83.1319092 295.08959948 -82.28098217 293.17139263 -81.4375 291.25 C-80.72400391 289.64898437 -80.72400391 289.64898437 -79.99609375 288.015625 C-79.0053846 285.01630163 -78.83838221 283.86578759 -80 281 Z M-77 281 C-76 284 -76 284 -76 284 Z M-69 283 C-68.67 284.32 -68.34 285.64 -68 287 C-64.37 287.66 -60.74 288.32 -57 289 C-57 287.68 -57 286.36 -57 285 C-58.918125 284.7215625 -58.918125 284.7215625 -60.875 284.4375 C-61.59429687 284.33308594 -62.31359375 284.22867187 -63.0546875 284.12109375 C-65.08140667 283.8315703 -65.08140667 283.8315703 -67 285 C-67 284.34 -67 283.68 -67 283 C-67.66 283 -68.32 283 -69 283 Z M-344 284 C-343 288 -343 288 -343 288 Z M-30 284 C-30.33 285.65 -30.66 287.3 -31 289 C-30.34 288.67 -29.68 288.34 -29 288 C-29.33 286.68 -29.66 285.36 -30 284 Z M-331 285 C-330 289 -330 289 -330 289 Z M-343 289 C-342 293 -342 293 -342 293 Z M-47 289 C-46 291 -46 291 -46 291 Z M-42 289 C-42 290.32 -42 291.64 -42 293 C-37.545 292.505 -37.545 292.505 -33 292 C-33.33 291.34 -33.66 290.68 -34 290 C-35.89533342 289.53476937 -35.89533342 289.53476937 -38.0625 289.375 C-39.361875 289.25125 -40.66125 289.1275 -42 289 Z M-330 290 C-329 293 -329 293 -329 293 Z M-80 290 C-82.60759567 294.84468739 -82.60759567 294.84468739 -82 300 C-80.02 299.01 -78.04 298.02 -76 297 C-77.32 296.67 -78.64 296.34 -80 296 C-80 295.34 -80 294.68 -80 294 C-79.01 293.67 -78.02 293.34 -77 293 C-77.99 292.01 -78.98 291.02 -80 290 Z M-75 292 C-75.33 292.66 -75.66 293.32 -76 294 C-75.01 294.33 -74.02 294.66 -73 295 C-73.33 294.01 -73.66 293.02 -74 292 C-74.33 292 -74.66 292 -75 292 Z M-342 293 C-341 296 -341 296 -341 296 Z M-329 294 C-328 298 -328 298 -328 298 Z M-341 297 C-340 300 -340 300 -340 300 Z M-86 297 C-86.33 298.65 -86.66 300.3 -87 302 C-86.34 301.67 -85.68 301.34 -85 301 C-85.33 299.68 -85.66 298.36 -86 297 Z M-31 297 C-31 297.66 -31 298.32 -31 299 C-30.34 299 -29.68 299 -29 299 C-29 298.34 -29 297.68 -29 297 C-29.66 297 -30.32 297 -31 297 Z M-328 299 C-327 302 -327 302 -327 302 Z M-72 299 C-72 299.66 -72 300.32 -72 301 C-70.02 301 -68.04 301 -66 301 C-66.33 300.34 -66.66 299.68 -67 299 C-68.65 299 -70.3 299 -72 299 Z M-400 300 C-399 302 -399 302 -399 302 Z M-340 301 C-339 304 -339 304 -339 304 Z M-84 301 C-84 301.99 -84 302.98 -84 304 C-83.34 303.34 -82.68 302.68 -82 302 C-82.66 301.67 -83.32 301.34 -84 301 Z M-63 301 C-62.01 302.485 -62.01 302.485 -61 304 C-59.68 303.34 -58.36 302.68 -57 302 C-59.97 301.505 -59.97 301.505 -63 301 Z M-88 302 C-88.33 303.65 -88.66 305.3 -89 307 C-88.34 306.34 -87.68 305.68 -87 305 C-87.33 304.01 -87.66 303.02 -88 302 Z M-398 303 C-397 305 -397 305 -397 305 Z M-327 303 C-326 306 -326 306 -326 306 Z M-79 304 C-79 306.64 -79 309.28 -79 312 C-78.34 312 -77.68 312 -77 312 C-77 309.36 -77 306.72 -77 304 C-77.66 304 -78.32 304 -79 304 Z M-63 304 C-62 306 -62 306 -62 306 Z M-397 305 C-396 307 -396 307 -396 307 Z M-339 305 C-338 308 -338 308 -338 308 Z M-76 304 C-75.86427927 312.55040577 -72.91721815 318.58215083 -67.2578125 324.96484375 C-64.4792675 327.58902514 -62.66505594 328.86698881 -58.875 329.625 C-55.18935553 328.82377294 -53.59894204 327.73942539 -51 325 C-49.19683009 321.45583845 -48 318.98734393 -48 315 C-46 316 -46 316 -44.96484375 318.546875 C-44.62582031 319.60390625 -44.28679687 320.6609375 -43.9375 321.75 C-43.59589844 322.79671875 -43.25429688 323.8434375 -42.90234375 324.921875 C-42.11465749 327.60887402 -41.49465036 330.24627634 -41 333 C-38.03 333 -35.06 333 -32 333 C-31.35552776 323.11809239 -34.7101793 314.60020001 -41 307 C-44.51253146 304.65831236 -45.86469356 304.50376323 -50 305 C-55.19448909 307.89924973 -56.2858718 311.58696358 -58 317 C-58.66 317 -59.32 317 -60 317 C-64.40774487 307.58997722 -64.40774487 307.58997722 -65 303 C-66.64574566 302.97311849 -68.29161413 302.95365877 -69.9375 302.9375 C-71.31228516 302.92009766 -71.31228516 302.92009766 -72.71484375 302.90234375 C-74.96593327 302.74050951 -74.96593327 302.74050951 -76 304 Z M-326 306 C-325 310 -325 310 -325 310 Z M-31 306 C-30 308 -30 308 -30 308 Z M-396 307 C-395 309 -395 309 -395 309 Z M-90 307 C-90.33 308.65 -90.66 310.3 -91 312 C-90.34 311.34 -89.68 310.68 -89 310 C-89.33 309.01 -89.66 308.02 -90 307 Z M-87 307 C-87 307.66 -87 308.32 -87 309 C-86.34 309 -85.68 309 -85 309 C-85 308.34 -85 307.68 -85 307 C-85.66 307 -86.32 307 -87 307 Z M-63 307 C-62.34 309.31 -61.68 311.62 -61 314 C-60.01 314 -59.02 314 -58 314 C-57.06576355 310.98968256 -56.95550089 310.13349732 -58 307 C-59.65 307 -61.3 307 -63 307 Z M-21 308 C-20 312 -20 312 -20 312 Z M-338 309 C-337 312 -337 312 -337 312 Z M-35 309 C-35.66 309.66 -36.32 310.32 -37 311 C-36.01 312.32 -35.02 313.64 -34 315 C-33.4465236 312.92446352 -33 311.15634036 -33 309 C-33.66 309 -34.32 309 -35 309 Z M-325 311 C-324 314 -324 314 -324 314 Z M-88 311 C-88.33 311.99 -88.66 312.98 -89 314 C-88.34 314 -87.68 314 -87 314 C-87.33 313.01 -87.66 312.02 -88 311 Z M-92 312 C-92.33 313.32 -92.66 314.64 -93 316 C-92.34 315.67 -91.68 315.34 -91 315 C-91.33 314.01 -91.66 313.02 -92 312 Z M-22 312 C-21 314 -21 314 -21 314 Z M-324 314 C-323 317 -323 317 -323 317 Z M-76 314 C-76 317 -76 317 -76 317 Z M-392 316 C-391.34 317.32 -390.68 318.64 -390 320 C-390 318.68 -390 317.36 -390 316 C-390.66 316 -391.32 316 -392 316 Z M-94 316 C-95.62507196 318.8331162 -95.62507196 318.8331162 -97 322 C-96.67 322.99 -96.34 323.98 -96 325 C-94.37492804 322.1668838 -94.37492804 322.1668838 -93 319 C-93.33 318.01 -93.66 317.02 -94 316 Z M-91 316 C-90.67 317.65 -90.34 319.3 -90 321 C-88.68 321 -87.36 321 -86 321 C-86.66868314 317.88667752 -86.66868314 317.88667752 -89.0625 316.8125 C-89.701875 316.544375 -90.34125 316.27625 -91 316 Z M-33 316 C-33 317.32 -33 318.64 -33 320 C-32.34 319.67 -31.68 319.34 -31 319 C-31.66 318.01 -32.32 317.02 -33 316 Z M-21 316 C-22.36532549 317.13701597 -22.36532549 317.13701597 -22.09765625 320.16015625 C-22.08605469 321.44792969 -22.07445312 322.73570312 -22.0625 324.0625 C-22.05347656 325.35285156 -22.04445313 326.64320313 -22.03515625 327.97265625 C-22.02355469 328.97167969 -22.01195312 329.97070312 -22 331 C-21.01 331.33 -20.02 331.66 -19 332 C-19 326.72 -19 321.44 -19 316 C-19.66 316 -20.32 316 -21 316 Z M-17 316 C-17.02911003 319.89581756 -17.04683587 323.791607 -17.0625 327.6875 C-17.07087891 328.79029297 -17.07925781 329.89308594 -17.08789062 331.02929688 C-17.09111328 332.09599609 -17.09433594 333.16269531 -17.09765625 334.26171875 C-17.10289307 335.24100342 -17.10812988 336.22028809 -17.11352539 337.22924805 C-17.00308543 339.92469572 -16.60534166 342.37545639 -16 345 C-15.67 345 -15.34 345 -15 345 C-14.89628089 335.27345227 -14.95481555 325.68662016 -16 316 C-16.33 316 -16.66 316 -17 316 Z M-323 318 C-322 320 -322 320 -322 320 Z M-93 320 C-92.67 320.99 -92.34 321.98 -92 323 C-91.67 322.01 -91.34 321.02 -91 320 C-91.66 320 -92.32 320 -93 320 Z M-48 320 C-47.67 320.66 -47.34 321.32 -47 322 C-46.34 322 -45.68 322 -45 322 C-45 321.34 -45 320.68 -45 320 C-45.99 320 -46.98 320 -48 320 Z M-79 322 C-79 322.66 -79 323.32 -79 324 C-78.01 324 -77.02 324 -76 324 C-76 323.34 -76 322.68 -76 322 C-76.99 322 -77.98 322 -79 322 Z M-49 322 C-49.66 323.65 -50.32 325.3 -51 327 C-48.525 327.495 -48.525 327.495 -46 328 C-46.34444881 325.52733235 -46.34444881 325.52733235 -47 323 C-47.66 322.67 -48.32 322.34 -49 322 Z M-31 324 C-31 325.65 -31 327.3 -31 329 C-30.34 329 -29.68 329 -29 329 C-29 327.35 -29 325.7 -29 324 C-29.66 324 -30.32 324 -31 324 Z M-98 325 C-98.33 326.32 -98.66 327.64 -99 329 C-98.34 328.67 -97.68 328.34 -97 328 C-97.33 327.01 -97.66 326.02 -98 325 Z M-95 325 C-94.67 325.99 -94.34 326.98 -94 328 C-94 327.34 -94 326.68 -94 326 C-93.34 325.67 -92.68 325.34 -92 325 C-92.99 325 -93.98 325 -95 325 Z M-68 326 C-68 326.66 -68 327.32 -68 328 C-67.34 327.67 -66.68 327.34 -66 327 C-66.66 326.67 -67.32 326.34 -68 326 Z M-45 326 C-44.67 326.99 -44.34 327.98 -44 329 C-43.67 328.01 -43.34 327.02 -43 326 C-43.66 326 -44.32 326 -45 326 Z M-94 329 C-91.36 329.33 -88.72 329.66 -86 330 C-86 329.01 -86 328.02 -86 327 C-89.76687864 327 -90.91190305 327.23537317 -94 329 Z M-100 329 C-99 331 -99 331 -99 331 Z M-86 331 C-83.03 331 -80.06 331 -77 331 C-77.33 330.34 -77.66 329.68 -78 329 C-82.49304582 328.57496554 -82.49304582 328.57496554 -86 331 Z M-65 329 C-65.99 329.66 -66.98 330.32 -68 331 C-68 331.66 -68 332.32 -68 333 C-66.35 333 -64.7 333 -63 333 C-62.67 332.01 -62.34 331.02 -62 330 C-62.99 329.67 -63.98 329.34 -65 329 Z M-55 329 C-54.67 329.99 -54.34 330.98 -54 332 C-54 331.34 -54 330.68 -54 330 C-53.34 329.67 -52.68 329.34 -52 329 C-52.99 329 -53.98 329 -55 329 Z M-50 330 C-50 330.66 -50 331.32 -50 332 C-48.35 332 -46.7 332 -45 332 C-45 331.34 -45 330.68 -45 330 C-46.65 330 -48.3 330 -50 330 Z M-99 331 C-98.67 331.66 -98.34 332.32 -98 333 C-96.13377683 333.46878517 -96.13377683 333.46878517 -93.87890625 333.6328125 C-92.59790039 333.75849609 -92.59790039 333.75849609 -91.29101562 333.88671875 C-90.39060547 333.96535156 -89.49019531 334.04398437 -88.5625 334.125 C-87.69689453 334.21136719 -86.83128906 334.29773438 -85.93945312 334.38671875 C-79.94574848 334.94904696 -74.01776985 335.10192754 -68 335 C-70.91189751 333.05873499 -71.83865045 332.70122889 -75.1328125 332.3671875 C-75.93976563 332.28339844 -76.74671875 332.19960938 -77.578125 332.11328125 C-78.41859375 332.03464844 -79.2590625 331.95601563 -80.125 331.875 C-80.94226563 331.78863281 -81.75953125 331.70226562 -82.6015625 331.61328125 C-88.0922961 331.06594546 -93.48298015 330.9222955 -99 331 Z M-56 333 C-56.33 333.66 -56.66 334.32 -57 335 C-54.69 335 -52.38 335 -50 335 C-50.66 334.34 -51.32 333.68 -52 333 C-53.32 333 -54.64 333 -56 333 Z M-46 334 C-46.99 335.485 -46.99 335.485 -48 337 C-46.35 337 -44.7 337 -43 337 C-42.67 336.01 -42.34 335.02 -42 334 C-43.32 334 -44.64 334 -46 334 Z M-68 335 C-64.91111478 337.05925681 -64.29064073 337.2390374 -60.8125 337.125 C-59.554375 337.08375 -58.29625 337.0425 -57 337 C-60.08888522 334.94074319 -60.70935927 334.7609626 -64.1875 334.875 C-65.445625 334.91625 -66.70375 334.9575 -68 335 Z M-41 335 C-40.67 336.32 -40.34 337.64 -40 339 C-38.02 339 -36.04 339 -34 339 C-36.17424117 336.49962266 -37.73045798 335.56371414 -41 335 Z M-22 336 C-22.33 336.99 -22.66 337.98 -23 339 C-22.67 339.66 -22.34 340.32 -22 341 C-23.32 340.67 -24.64 340.34 -26 340 C-26.33 340.66 -26.66 341.32 -27 342 C-24.69 342.33 -22.38 342.66 -20 343 C-18.95550089 339.86650268 -19.06576355 339.01031744 -20 336 C-20.66 336 -21.32 336 -22 336 Z M-57 337 C-53.86501708 338.85776765 -51.62528568 339.20140476 -48 339 C-51.4352048 336.70986347 -52.985331 336.82157027 -57 337 Z M-48 339 C-44.77208445 341.1519437 -43.71599191 341.20086443 -40 341 C-41.89755144 338.65026182 -41.89755144 338.65026182 -45.125 338.875 C-46.07375 338.91625 -47.0225 338.9575 -48 339 Z M-40 341 C-35.34714182 344.10190545 -30.58467324 345.33846504 -25 345 C-28.40858586 341.59141414 -33.32201465 341.06991606 -38 340.875 C-38.99 340.936875 -38.99 340.936875 -40 341 Z M-25 345 C-22.28450846 347.30671915 -22.28450846 347.30671915 -19.8125 346.625 C-19.214375 346.41875 -18.61625 346.2125 -18 346 C-20.31 345.67 -22.62 345.34 -25 345 Z " fill="#000000" transform="translate(510,156)"/>
<path d="M0 0 C0.48919922 1.53720703 0.48919922 1.53720703 0.98828125 3.10546875 C1.42936247 4.46625123 1.87078693 5.82692249 2.3125 7.1875 C2.63250977 8.19780273 2.63250977 8.19780273 2.95898438 9.22851562 C3.98404417 12.3648926 4.95394523 14.92712327 6.73046875 17.73828125 C8 20 8 20 7.73022461 21.90771484 C6.94266283 24.16428604 5.96340431 25.78757825 4.5859375 27.73828125 C3.82627686 28.82786133 3.82627686 28.82786133 3.05126953 29.93945312 C2.49810059 30.72255859 1.94493164 31.50566406 1.375 32.3125 C-3.83146798 39.79762199 -8.90482919 47.35584477 -13.875 55 C-14.48037598 55.92981689 -15.08575195 56.85963379 -15.70947266 57.81762695 C-19.84595899 64.18663762 -23.93271037 70.5866146 -28 77 C-22.85118452 73.00283278 -18.3209884 68.50705987 -13.71777344 63.90307617 C-12.27297007 62.46043568 -10.82038366 61.02597602 -9.3671875 59.59179688 C-3.9055079 54.16251109 1.1871476 48.5488331 5.98120117 42.51074219 C9.173786 38.54018439 12.58884775 34.78327795 16 31 C19.63 33.31 23.26 35.62 27 38 C25.07942792 44.60493882 22.95717587 51.04720021 20.5078125 57.47265625 C20.1701738 58.36743179 19.8325351 59.26220734 19.48466492 60.18409729 C18.75256269 62.12390992 18.01907248 64.06319917 17.28433228 66.00201416 C15.25018943 71.3718857 13.22862023 76.74648593 11.20703125 82.12109375 C10.56785011 83.81987671 10.56785011 83.81987671 9.91575623 85.55297852 C5.15511406 98.22172949 0.48174343 110.92234323 -4.1875 123.625 C-5.94749554 128.41031123 -7.70798756 133.19543965 -9.46875 137.98046875 C-9.91358231 139.18934753 -10.35841461 140.39822632 -10.81672668 141.64373779 C-15.76051189 155.07389713 -20.72410591 168.49670354 -25.69741821 181.91595459 C-26.67147326 184.54429238 -27.64476481 187.17291056 -28.61727905 189.80181885 C-34.9500479 206.91877077 -41.40372268 223.98291258 -48 241 C-48.33 241 -48.66 241 -49 241 C-49 162.46 -49 83.92 -49 3 C-7 0 -7 0 0 0 Z " fill="#000000" transform="translate(49,251)"/>
<path d="M0 0 C0.68602295 0.53415527 1.3720459 1.06831055 2.07885742 1.61865234 C2.82973633 2.19873047 3.58061523 2.77880859 4.35424805 3.37646484 C5.12317383 3.97974609 5.89209961 4.58302734 6.68432617 5.20458984 C7.47258789 5.81560547 8.26084961 6.42662109 9.07299805 7.05615234 C11.01003591 8.55882414 12.94274696 10.0667237 14.87182617 11.57958984 C21.05105962 8.27159478 26.78162099 4.67644388 32.42651367 0.53466797 C36.55865653 -2.42041016 36.55865653 -2.42041016 39.87182617 -2.42041016 C39.75599506 -0.8780275 39.62866045 0.66349256 39.49682617 2.20458984 C39.4272168 3.06310547 39.35760742 3.92162109 39.28588867 4.80615234 C38.82507344 7.89274491 37.88691191 10.63406035 36.87182617 13.57958984 C37.67289795 13.31629883 38.47396973 13.05300781 39.29931641 12.78173828 C42.30572061 11.81006775 45.3193127 10.86702746 48.34033203 9.94189453 C49.64038036 9.53761416 50.93709543 9.12243477 52.22998047 8.69580078 C64.35205576 4.70969188 64.35205576 4.70969188 70.28198242 7.34521484 C71.46663086 8.08255859 72.6512793 8.81990234 73.87182617 9.57958984 C74.20182617 15.18958984 74.53182617 20.79958984 74.87182617 26.57958984 C76.52182617 26.24958984 78.17182617 25.91958984 79.87182617 25.57958984 C98.83082644 22.75339057 98.83082644 22.75339057 106.49682617 28.32958984 C109.1390668 30.64675986 110.91673281 32.6469498 112.87182617 35.57958984 C112.99682617 38.26708984 112.99682617 38.26708984 112.87182617 40.57958984 C106.13290985 39.94581081 99.87475089 38.35565641 93.37182617 36.51708984 C89.90682617 35.54771484 86.44182617 34.57833984 82.87182617 33.57958984 C82.54182617 45.12958984 82.21182617 56.67958984 81.87182617 68.57958984 C77.55695511 67.14129949 73.74575015 65.6796265 69.66870117 63.75927734 C67.95166992 62.95683594 67.95166992 62.95683594 66.19995117 62.13818359 C64.40029098 61.29140025 62.60063687 60.44460336 60.80151367 59.59667969 C59.05037623 58.77275436 57.29707064 57.95344204 55.54370117 57.13427734 C54.50310547 56.64427246 53.46250977 56.15426758 52.39038086 55.64941406 C50.02108384 54.44926757 50.02108384 54.44926757 47.87182617 54.57958984 C48.04834717 55.51754395 48.22486816 56.45549805 48.40673828 57.421875 C49.06523911 60.921758 49.72292444 64.42179384 50.38037109 67.921875 C50.66433032 69.43298415 50.94850687 70.94405248 51.23291016 72.45507812 C51.64307713 74.63449423 52.05244682 76.81405884 52.46166992 78.99365234 C52.58775131 79.66264557 52.7138327 80.33163879 52.84373474 81.02090454 C53.56493461 84.86700135 54.24207682 88.71747555 54.87182617 92.57958984 C41.09756267 85.78483393 27.48880989 78.68410309 13.87182617 71.57958984 C13.54182617 87.41958984 13.21182617 103.25958984 12.87182617 119.57958984 C8.08026087 117.98240141 3.81427245 116.16913541 -0.64379883 113.88427734 C-1.34083923 113.53197052 -2.03787964 113.1796637 -2.75604248 112.81668091 C-4.96540791 111.69985644 -7.17208592 110.57787313 -9.37817383 109.45458984 C-12.2977676 107.96826268 -15.21993391 106.48718117 -18.14379883 105.00927734 C-18.81461487 104.66557098 -19.48543091 104.32186462 -20.17657471 103.96774292 C-23.48600487 102.17468918 -23.48600487 102.17468918 -27.12817383 101.57958984 C-26.13817383 116.09958984 -25.14817383 130.61958984 -24.12817383 145.57958984 C-27.74053002 144.13464737 -30.74964494 142.75198054 -34.06958008 140.82958984 C-34.98288086 140.30365234 -35.89618164 139.77771484 -36.8371582 139.23583984 C-38.24964844 138.41599609 -38.24964844 138.41599609 -39.69067383 137.57958984 C-41.56642853 136.49530901 -43.44271066 135.41193998 -45.31958008 134.32958984 C-46.14659424 133.85005859 -46.9736084 133.37052734 -47.82568359 132.87646484 C-49.8988065 131.70878073 -51.98969683 130.62164041 -54.12817383 129.57958984 C-54.23887207 130.13831787 -54.34957031 130.6970459 -54.46362305 131.27270508 C-54.97574766 133.85437801 -55.48945306 136.43573408 -56.00317383 139.01708984 C-56.17719727 139.89558594 -56.3512207 140.77408203 -56.53051758 141.67919922 C-57.65662873 147.3306089 -58.85873459 152.95860437 -60.12817383 158.57958984 C-63.32691949 153.78147135 -63.83399201 148.1740878 -64.7878418 142.56640625 C-65.09934551 140.747886 -65.4422601 138.93481852 -65.78833008 137.12255859 C-67.08296476 128.1253915 -64.36916949 122.83333695 -59.12817383 115.57958984 C-63.08817383 115.08458984 -63.08817383 115.08458984 -67.12817383 114.57958984 C-68.38237247 110.87970385 -68.88160988 109.34164467 -68.12817383 105.57958984 C-64.86644053 100.66796899 -60.38102883 96.62011435 -56.12817383 92.57958984 C-57.83647925 87.4365001 -60.88829782 84.45987836 -64.64379883 80.66552734 C-66.64719519 76.50057174 -66.26072828 73.7542357 -65.25024414 69.30810547 C-63.25341079 64.45244631 -59.60789937 62.03664095 -55.37817383 59.14208984 C-54.57895508 58.5575 -53.77973633 57.97291016 -52.95629883 57.37060547 C-48.75979719 54.32331028 -44.46326994 51.42537068 -40.12817383 48.57958984 C-41.67163298 43.73874068 -43.34252226 39.05005646 -45.37817383 34.39208984 C-47.00054267 30.4104747 -47.59864646 27.78094023 -46.12817383 23.57958984 C-45.46817383 22.91958984 -44.80817383 22.25958984 -44.12817383 21.57958984 C-38.43747147 21.85437454 -33.40048928 24.39789132 -28.25317383 26.64208984 C-27.3740332 27.01914062 -26.49489258 27.39619141 -25.58911133 27.78466797 C-23.43285819 28.71045057 -21.27940404 29.64220896 -19.12817383 30.57958984 C-17.89985978 28.12296175 -17.75228432 26.07842024 -17.44458008 23.34521484 C-17.32147461 22.29591797 -17.19836914 21.24662109 -17.0715332 20.16552734 C-16.81943803 17.95743221 -16.56940748 15.74910029 -16.3215332 13.54052734 C-15.04485189 2.71850333 -15.04485189 2.71850333 -13.12817383 -1.42041016 C-7.8808329 -4.21899198 -4.75988275 -3.17689547 0 0 Z M17.43432617 24.70458984 C13.64877499 31.67000402 13.89147443 39.87140375 15.48510742 47.52490234 C17.95723429 54.99573508 22.31487695 61.24189105 26.87182617 67.57958984 C28.33756551 66.67481248 29.79418373 65.75524843 31.24682617 64.82958984 C32.05893555 64.31912109 32.87104492 63.80865234 33.70776367 63.28271484 C35.95738296 61.51225634 36.83089466 60.21051565 37.87182617 57.57958984 C37.16606445 56.61859375 37.16606445 56.61859375 36.44604492 55.63818359 C30.9892889 48.05747285 26.9089751 42.20810053 27.87182617 32.57958984 C29.3688136 30.58207595 30.32615367 29.72623933 32.74682617 29.07568359 C42.16261514 28.81605706 49.14133621 33.7870631 55.80932617 40.01708984 C56.49897461 40.71705078 57.18862305 41.41701172 57.89916992 42.13818359 C59.73754248 43.80209176 59.73754248 43.80209176 61.89135742 43.46240234 C64.0240344 42.5117416 65.75447165 41.41760573 67.62182617 40.01708984 C68.5422168 39.33453125 68.5422168 39.33453125 69.48120117 38.63818359 C69.94010742 38.28884766 70.39901367 37.93951172 70.87182617 37.57958984 C66.96804775 28.43010916 56.30336608 22.63947867 47.69604492 18.54443359 C36.45666744 14.12676237 25.05668522 14.93233465 17.43432617 24.70458984 Z M-43.60083008 64.34521484 C-48.7177114 71.92356969 -49.51596558 79.84324364 -49.50317383 88.76708984 C-49.50446289 89.7102002 -49.50575195 90.65331055 -49.50708008 91.625 C-49.35763731 101.86013152 -47.40634632 111.63292602 -45.12817383 121.57958984 C-40.9710436 119.58486743 -37.40916438 117.7130212 -35.12817383 113.57958984 C-34.45236513 108.63462946 -34.69583017 103.73723744 -34.94067383 98.76708984 C-35.66853445 81.3047642 -35.66853445 81.3047642 -32.12817383 74.57958984 C-30.12817383 72.57958984 -30.12817383 72.57958984 -27.81567383 72.07958984 C-24.51234428 72.69416278 -23.48076472 74.07893427 -21.43701172 76.64550781 C-18.43136903 81.08697421 -16.49182488 86.13589463 -14.34692383 91.03076172 C-13.9730957 91.85769531 -13.59926758 92.68462891 -13.21411133 93.53662109 C-12.88459473 94.28919189 -12.55507813 95.0417627 -12.21557617 95.81713867 C-11.17887041 97.91898622 -11.17887041 97.91898622 -8.12817383 98.57958984 C-5.47125473 97.70044296 -5.47125473 97.70044296 -3.12817383 96.57958984 C-5.69161543 82.83022126 -10.51559223 69.7762091 -21.51489258 60.67333984 C-28.64856188 55.83695388 -38.31790567 58.01131078 -43.60083008 64.34521484 Z " fill="#000000" transform="translate(279.128173828125,279.42041015625)"/>
<path d="M0 0 C2 2 2 2 2.125 5.125 C2.08375 6.07375 2.0425 7.0225 2 8 C0.35 8 -1.3 8 -3 8 C-3.33 7.34 -3.66 6.68 -4 6 C-1.68421053 1.68421053 -1.68421053 1.68421053 0 0 Z M-1 3 C0 6 0 6 0 6 Z " fill="#000000" transform="translate(462,395)"/>
<path d="M0 0 C1.18478956 3.502247 0.81338201 5.98372697 0.05957031 9.57202148 C-0.17107117 10.69096298 -0.40171265 11.80990448 -0.63934326 12.9627533 C-0.89757874 14.17000565 -1.15581421 15.377258 -1.421875 16.62109375 C-1.68252747 17.87197281 -1.94317993 19.12285187 -2.21173096 20.41163635 C-2.90638936 23.74394195 -3.61177964 27.07389025 -4.31921387 30.40350342 C-4.88724739 33.08552627 -5.44785368 35.76907351 -6.00797653 38.45275784 C-8.55688791 50.6633697 -11.16494997 62.85211579 -14 75 C-18.29 75 -22.58 75 -27 75 C-26.57662354 73.79190674 -26.15324707 72.58381348 -25.71704102 71.33911133 C-22.91426918 63.33801071 -20.11387941 55.33614765 -17.33383179 47.32711792 C-16.16451069 43.95918571 -14.99238895 40.59223093 -13.82006836 37.2253418 C-13.22871891 35.52490541 -12.63856116 33.82405415 -12.04956055 32.12280273 C-8.29973602 21.29628048 -4.37188049 10.59259598 0 0 Z " fill="#000000" transform="translate(71,435)"/>
</svg>
