<?xml version="1.0" encoding="UTF-8"?>
<svg version="1.1" xmlns="http://www.w3.org/2000/svg" width="510" height="510">
<path d="M0 0 C10.89 0 21.78 0 33 0 C31.24479327 3.51041346 30.18151183 5.0018042 27.4375 7.5625 C25.00373705 9.8343494 24.07740206 10.76779382 23 14 C23.91604004 14.10054687 24.83208008 14.20109375 25.77587891 14.3046875 C31.16869637 15.07979213 36.35181654 16.64606251 41.5859375 18.125 C43.23222641 18.58543701 43.23222641 18.58543701 44.91177368 19.05517578 C47.22026899 19.70195151 49.52815082 20.35092047 51.83544922 21.00195312 C55.38215549 22.00201763 58.93113508 22.99368079 62.48046875 23.984375 C64.72409771 24.61408695 66.96759218 25.24427834 69.2109375 25.875 C70.2775058 26.17293457 71.3440741 26.47086914 72.44296265 26.77783203 C73.42133087 27.05481934 74.3996991 27.33180664 75.40771484 27.6171875 C76.27262543 27.86065918 77.13753601 28.10413086 78.02865601 28.35498047 C80 29 80 29 81 30 C81.09413687 32.05556661 81.11742998 34.11440181 81.11352539 36.17211914 C81.11367142 36.81600082 81.11381744 37.45988251 81.1139679 38.12327576 C81.11326885 40.26060303 81.10547691 42.39784413 81.09765625 44.53515625 C81.09579204 46.01346285 81.09436815 47.49177007 81.09336853 48.97007751 C81.08954359 52.86798802 81.07971352 56.76586149 81.06866455 60.66375732 C81.05844992 64.63846333 81.0538708 68.61317529 81.04882812 72.58789062 C81.03809122 80.391944 81.02101509 88.19596682 81 96 C81.7748877 95.6376123 82.54977539 95.27522461 83.34814453 94.90185547 C86.29589469 93.52460279 89.24457299 92.14937395 92.19384766 90.77539062 C93.45657934 90.18664796 94.71896408 89.59716045 95.98095703 89.00683594 C102.88582055 85.77758612 109.81010124 82.60118243 116.8046875 79.5703125 C118.51760986 78.8280542 118.51760986 78.8280542 120.26513672 78.07080078 C123 77 123 77 125 77 C125.62987226 90.62973594 124.42197688 102.67479506 116 114 C115.319375 114.99 114.63875 115.98 113.9375 117 C102.97549353 129.37428951 83.99059169 134.90545683 68 136 C51.09063419 136.93349858 35.1548478 136.06902411 20 128 C20.6290625 129.01835937 21.258125 130.03671875 21.90625 131.0859375 C35.22081275 152.96845013 47.23563936 177.68956866 43 204 C41.1672046 211.39765605 38.11918377 217.3640911 33 223 C32.47148438 223.59425781 31.94296875 224.18851563 31.3984375 224.80078125 C23.07346009 233.0707478 11.12174103 236.52850199 0 239 C0 160.13 0 81.26 0 0 Z " fill="#000000" transform="translate(0,0)"/>
<path d="M0 0 C1.09343176 0.00394052 1.09343176 0.00394052 2.20895305 0.00796065 C3.36553142 0.00622988 3.36553142 0.00622988 4.54547501 0.00446415 C7.16239173 0.00179026 9.7792485 0.00632594 12.39616218 0.01075396 C14.27793435 0.01031841 16.15970646 0.00944382 18.04147825 0.00816479 C23.23834422 0.00591654 28.43518979 0.00994561 33.63205317 0.01494285 C39.22649822 0.01924246 44.82094202 0.01780128 50.41538826 0.01704058 C60.11674667 0.01651503 69.81809838 0.01966504 79.51945511 0.02527842 C93.54616447 0.03338927 107.57287058 0.03600821 121.59958204 0.03726641 C144.35440428 0.03945759 167.10922234 0.04611088 189.86404243 0.05556902 C211.9743938 0.0647487 234.08474422 0.07183464 256.19509712 0.07607684 C256.87625509 0.07620836 257.55741306 0.07633989 258.25921218 0.0764754 C265.09948292 0.07779388 271.93975366 0.0790697 278.78002441 0.08031426 C336.17481351 0.09076098 393.5695987 0.1084124 450.96438423 0.13100848 C451.38262724 11.80456199 451.70183135 23.47631829 451.89700332 35.15585455 C451.99071713 40.58053233 452.11761245 46.00006493 452.32229438 51.42177996 C452.51884488 56.66129176 452.62567253 61.89588137 452.6721746 67.13879618 C452.70527484 69.13170284 452.76993441 71.12435792 452.86752525 73.11514887 C453.46335174 85.78101365 453.46335174 85.78101365 450.96438423 91.13100848 C446.61787489 95.85634174 440.90880039 98.57895064 435.11822429 101.15844283 C432.25264582 102.45239368 429.55929596 104.00424673 426.84329048 105.58413348 C395.75459363 122.16306877 359.0426364 132.45270657 323.96438423 122.13100848 C304.16688944 115.78899724 289.82146314 104.63503385 279.96438423 86.13100848 C268.46288542 63.09805903 269.60618546 37.74964317 273.96438423 13.13100848 C269.57331953 16.35440925 265.31373089 19.58262261 261.33938423 23.31850848 C255.75993456 28.40540398 249.88144824 33.03026707 243.90334907 37.63344988 C241.90190729 39.17926251 239.91139366 40.73844289 237.92141548 42.29897723 C218.61167325 57.35809041 198.14359926 70.69968816 175.96438423 81.13100848 C174.96020454 81.60409441 173.95602485 82.07718035 172.92141548 82.56460223 C156.02497872 90.04564526 136.09358843 95.43245509 117.84719673 90.28725848 C106.97288322 85.9257452 99.24836676 75.68050038 94.52688423 65.25600848 C91.84232539 57.86460199 91.90685702 49.91156308 91.96438423 42.13100848 C91.04657173 42.74589129 90.12875923 43.3607741 89.18313423 43.99428973 C72.18045258 55.25138143 72.18045258 55.25138143 63.96438423 54.13100848 C60.82846853 52.35116443 60.12335687 51.60792641 58.96438423 48.13100848 C57.87684116 38.12561224 62.67439274 27.96200159 66.96438423 19.13100848 C66.3533686 19.1542116 65.74235298 19.17741473 65.11282173 19.20132098 C42.37994715 19.64957484 12.319212 18.10998479 -8.03561577 7.13100848 C-5.76606729 0.01975656 -5.76606729 0.01975656 0 0 Z " fill="#000000" transform="translate(59.035615772008896,-0.13100847601890564)"/>
<path d="M0 0 C0 88.77 0 177.54 0 269 C-13.58311704 269 -26.04410459 266.83235818 -36.3125 257.3125 C-46.28786274 246.57289576 -48.52539946 232.71431332 -48.4375 218.5625 C-48.45748047 217.42490234 -48.47746094 216.28730469 -48.49804688 215.11523438 C-48.48851373 198.40362502 -41.28638847 184.04641463 -30 172 C-25.1185225 167.49840402 -16.85853923 161 -10 161 C-12.40084693 158.35352187 -15.00168314 156.69827796 -18.0625 154.875 C-30.73923956 146.84138771 -41.21233643 135.87216776 -45.5625 121.16015625 C-51.91644802 89.78753791 -44.1696439 54.34939444 -26.68847656 27.77587891 C-7.74402913 0 -7.74402913 0 0 0 Z " fill="#000000" transform="translate(510,130)"/>
<path d="M0 0 C4.05388807 3.85945699 6.11610567 7.56152705 6.375 13.1875 C6.27225742 19.52671743 3.44801664 23.44237067 -0.83203125 27.9140625 C-5.18396412 31.94839869 -9.59434875 34.58676283 -15 37 C-14.34 37.66 -13.68 38.32 -13 39 C-10.56693841 39.03016874 -10.56693841 39.03016874 -7.75 38.64453125 C20.03424143 35.85037705 47.71743508 37.16969848 71 54 C73.875 56.5625 73.875 56.5625 76 59 C76.845625 59.9075 77.69125 60.815 78.5625 61.75 C83.11661213 67.35285089 86.34950583 74.68833809 86 82 C84.86627213 87.96962906 82.91225952 92.23741824 78 96 C62.17486016 105.17701684 42.9532197 103.52337108 25.71484375 99.0703125 C22.44272347 98.1275565 19.21730569 97.11426188 16 96 C15.78085937 97.12535156 15.56171875 98.25070313 15.3359375 99.41015625 C12.16472853 115.04347979 7.65466566 131.34533434 -4 143 C-3.91442313 145.03942394 -3.76163294 147.07607309 -3.58203125 149.109375 C-1.64528592 173.82712639 0.22341287 203.75905109 -16.390625 224.3125 C-21.00646388 229.15240872 -25.54417637 231.66119376 -32.1875 232.3125 C-39.93840386 231.67718001 -45.27592038 228.3087353 -50.58984375 222.78125 C-52.045404 220.94264758 -53.03287268 219.13048337 -54 217 C-58.09418385 218.673535 -61.06725023 221.58944783 -64.3125 224.5 C-69.27720779 228.85747062 -74.35628004 232.80559316 -79.875 236.4375 C-80.51115234 236.85741211 -81.14730469 237.27732422 -81.80273438 237.70996094 C-84.90283962 239.72617029 -88.03652992 241.54280432 -91.3125 243.25 C-96.32909666 246.30122005 -99.24165446 251.6679561 -102.4921875 256.41796875 C-108.94842503 265.78920497 -117.36576915 275.52463173 -129 278 C-136.03889275 278.55864228 -140.49767556 277.08471693 -146.625 273.4375 C-154.18758951 265.67589498 -156.25733178 254.93432066 -156.17578125 244.45507812 C-156.15902344 243.62427734 -156.14226562 242.79347656 -156.125 241.9375 C-156.11597656 241.07189453 -156.10695313 240.20628906 -156.09765625 239.31445312 C-156.07439723 237.20951221 -156.03854008 235.10471658 -156 233 C-157.16144531 232.89816406 -158.32289063 232.79632813 -159.51953125 232.69140625 C-163.95237358 232.13108874 -167.64192006 230.78365909 -171.6875 228.9375 C-172.37303955 228.63094482 -173.0585791 228.32438965 -173.76489258 228.00854492 C-181.43472925 224.48466185 -189.2607613 220.37275895 -195.55078125 214.69921875 C-197.849628 212.74520371 -197.849628 212.74520371 -200.52734375 213.07421875 C-203.15461472 214.05788892 -205.23137916 215.25447507 -207.5625 216.8125 C-216.7487109 222.4823275 -227.77857345 226.25370727 -238.6640625 224.59375 C-245.3251412 222.90332519 -250.41795937 219.90948471 -254.24609375 214.11328125 C-262.77095586 198.21894128 -259.13171967 179.94421654 -254.25244141 163.47705078 C-246.98990331 140.32520283 -235.78529698 119.2335955 -221 100 C-221.763125 99.2575 -222.52625 98.515 -223.3125 97.75 C-227.37605513 93.59194359 -229.73195277 90.73408171 -230.3125 84.8125 C-229.66098321 76.86399517 -225.47432214 71.6825603 -219.80078125 66.296875 C-207.34411347 56.08136502 -192.69017466 50.208865 -177.125 46.6875 C-168.65203849 44.75015839 -161.79575274 41.58009241 -154.26171875 37.3359375 C-143.55823646 31.34079732 -132.28826718 27.22290255 -120.4375 24.1875 C-111.28511709 21.8062353 -104.20232367 17.87957821 -96.328125 12.74609375 C-71.62132892 -3.28668565 -26.42692571 -19.29327705 0 0 Z M-93 21 C-93 21.33 -93 21.66 -93 22 C-79.53681906 22.26015809 -69.43563898 19.28586775 -57.17626953 13.91113281 C-51.56808131 11.56316799 -46.0726782 10 -40 10 C-39.2986924 16.59229145 -41.50397814 20.49376557 -45 26 C-40.95954057 25.39550362 -40.95954057 25.39550362 -37.01953125 24.34765625 C-29.93227649 22.16596945 -24.69426572 24.25886243 -18 27 C-17.66699212 23.98196207 -17.66699212 23.98196207 -19.5625 22.25 C-21 20 -21 20 -20.875 16.4375 C-20.01788576 13.0702655 -19.56537241 12.11922069 -17 10 C-17 9.34 -17 8.68 -17 8 C-17.78375 8.165 -18.5675 8.33 -19.375 8.5 C-30.83783784 10.08108108 -30.83783784 10.08108108 -35 8 C-25.84755626 7.10808269 -17.14606357 7.01246822 -8 8 C-12.53849009 2.936747 -18.6528558 2.07461209 -25.21484375 1.671875 C-49.5356352 0.81941483 -72.15881697 9.00619512 -93 21 Z M-152 46 C-151.34 49.3 -150.68 52.6 -150 56 C-142.85167053 52.15473206 -142.85167053 52.15473206 -135.8203125 48.1015625 C-122.39153703 40.10749145 -108.08204994 34.11574792 -93 30 C-93 29.67 -93 29.34 -93 29 C-112.62038161 28.20242351 -135.4228138 35.85575173 -152 46 Z M-6 48 C-4.63016497 51.16115776 -4.0109362 51.9927092 -1 54 C1.48454148 54.24365536 1.48454148 54.24365536 4.26953125 54.125 C5.31761963 54.10824219 6.36570801 54.09148437 7.44555664 54.07421875 C9.1121936 54.03748047 9.1121936 54.03748047 10.8125 54 C20.10383299 53.88285159 28.8620294 54.16913648 38 56 C37.67 58.64 37.34 61.28 37 64 C32.38 64.99 27.76 65.98 23 67 C23.33 67.66 23.66 68.32 24 69 C26.40817012 69.80498863 26.40817012 69.80498863 29.25 70.4375 C33.32078132 71.47235491 36.49490098 72.62557809 40 75 C40.66 75 41.32 75 42 75 C43.66666667 78.33333333 45.33333333 81.66666667 47 85 C47.66 85 48.32 85 49 85 C48.979375 83.9275 48.95875 82.855 48.9375 81.75 C49 78 49 78 50 74 C55.445 73.01 55.445 73.01 61 72 C61 71.34 61 70.68 61 70 C60.3709375 69.86464844 59.741875 69.72929687 59.09375 69.58984375 C52.3835271 67.90218227 47.56619957 65.29322018 43 60 C43 59.34 43 58.68 43 58 C60.56435925 64.88718495 60.56435925 64.88718495 68.21484375 70.03125 C68.80394531 70.3509375 69.39304687 70.670625 70 71 C70.99 70.505 70.99 70.505 72 70 C61.44502392 55.69214354 45.41904517 50.17178545 28.35546875 47.41015625 C22.69258607 46.75706168 17.00488549 46.85503839 11.3125 46.875 C10.19810547 46.87113281 9.08371094 46.86726563 7.93554688 46.86328125 C6.85982422 46.86457031 5.78410156 46.86585938 4.67578125 46.8671875 C3.2203894 46.86887939 3.2203894 46.86887939 1.7355957 46.87060547 C-0.94064965 46.99719271 -3.39217351 47.40228035 -6 48 Z M-112.4375 55.375 C-117.69737709 60.45119885 -121.70936564 64.93111893 -122.25 72.5 C-122.28655451 75.87489496 -122.28655451 75.87489496 -120.8125 77.875 C-117.83929979 79.72043462 -115.05822172 80.15364067 -111.60546875 79.65234375 C-101.0599366 76.53468239 -93.91003371 70.25605394 -88.125 61 C-86.77982843 57.41287581 -86.5696441 54.80147709 -87 51 C-88.5045824 48.49236266 -89.77115256 48.08581779 -92.5 47.0625 C-100.40617877 46.92131824 -106.58476019 50.25709458 -112.4375 55.375 Z M-216.24609375 77.08203125 C-218.22494646 78.81282186 -218.22494646 78.81282186 -218 81 C-214.49381919 79.69182269 -211.23785309 78.09391538 -207.93774414 76.3347168 C-198.45999288 71.33492537 -188.66081828 67.96630236 -178.45361328 64.77490234 C-174.61989545 63.56413414 -170.80979056 62.28375255 -167 61 C-167.495 57.535 -167.495 57.535 -168 54 C-184.85133053 54 -204.35739505 66.06172446 -216.24609375 77.08203125 Z M-61.6875 80.1875 C-68.52170521 85.92097481 -75.43457367 92.43997442 -76.375 101.6875 C-76.2960937 104.90529853 -76.2960937 104.90529853 -74.73046875 106.67578125 C-72.02535057 108.74583783 -69.84184727 108.5351772 -66.52734375 108.40625 C-57.1494433 106.8988286 -49.20063177 100.16306769 -43.36328125 92.98828125 C-40.22088668 88.40524733 -39 84.56804868 -39 79 C-39.95173938 76.47959573 -39.95173938 76.47959573 -42 75 C-49.30057161 72.92290134 -55.80726996 75.7949179 -61.6875 80.1875 Z M-172.0625 102 C-174.58036126 104.57682508 -174.58036126 104.57682508 -175 108 C-172.96579204 112.54705309 -169.62578047 115.6827966 -166 119 C-165.34 119 -164.68 119 -164 119 C-163.15973604 117.23244474 -162.32801278 115.46082737 -161.5 113.6875 C-161.0359375 112.70136719 -160.571875 111.71523438 -160.09375 110.69921875 C-158.81222528 108.02199874 -158.81222528 108.02199874 -159 105 C-165.31415987 101.61538821 -165.31415987 101.61538821 -172.0625 102 Z M-143 116 C-145.97 119.3 -148.94 122.6 -152 126 C-150.79828796 129.60513612 -149.90439696 129.97278863 -146.74609375 131.91796875 C-145.89208984 132.44970703 -145.03808594 132.98144531 -144.15820312 133.52929688 C-143.26037109 134.07650391 -142.36253906 134.62371094 -141.4375 135.1875 C-140.53580078 135.74630859 -139.63410156 136.30511719 -138.70507812 136.88085938 C-136.47464624 138.26160292 -134.23961101 139.63421377 -132 141 C-129.67626186 138.00557816 -128.16727381 135.30044171 -126.8125 131.75 C-126.46832031 130.85796875 -126.12414062 129.9659375 -125.76953125 129.046875 C-125.38861328 128.03367187 -125.38861328 128.03367187 -125 127 C-130.83915916 122.9829898 -136.7622068 119.36642807 -143 116 Z M-112.5 141.3125 C-113.3146875 142.11300781 -114.129375 142.91351563 -114.96875 143.73828125 C-117.19194371 145.91146096 -117.19194371 145.91146096 -118 149 C-114.93967541 150.62912132 -111.87636963 152.252557 -108.8125 153.875 C-107.94818359 154.33519531 -107.08386719 154.79539062 -106.19335938 155.26953125 C-105.35224609 155.71425781 -104.51113281 156.15898437 -103.64453125 156.6171875 C-102.87471924 157.02565918 -102.10490723 157.43413086 -101.31176758 157.85498047 C-96.7928268 160.09321389 -93.11619596 161.76198663 -88 161 C-85.34115399 159.00979883 -85.34115399 159.00979883 -84 156 C-83.97541873 152.89277594 -83.97541873 152.89277594 -86 150 C-88.78796107 147.63369444 -91.84674943 145.83864324 -95 144 C-96.06476563 143.36191406 -97.12953125 142.72382813 -98.2265625 142.06640625 C-105.88298665 136.57470045 -105.88298665 136.57470045 -112.5 141.3125 Z M-242 161 C-247.50166044 174.62315919 -252.22165536 191.61143856 -247 206 C-245.25575968 208.64643359 -243.32807249 210.85495207 -241 213 C-239.6971229 210.39424579 -240.24474685 209.42317938 -240.9375 206.625 C-243.87267519 192.23448831 -240.59327739 177.77983217 -236 164 C-237.98 163.01 -239.96 162.02 -242 161 Z M-52 179 C-51.66185142 193.1177031 -50.70720162 207.83105284 -40.453125 218.62890625 C-38.74197816 220.25244101 -38.74197816 220.25244101 -36 222 C-34.515 221.505 -34.515 221.505 -33 221 C-33.38671875 220.46632813 -33.7734375 219.93265625 -34.171875 219.3828125 C-43.00293706 206.74827322 -45.09803774 194.14347166 -46 179 C-47.98 179 -49.96 179 -52 179 Z M-145 226 C-146.38974123 230.83902881 -146.22343735 235.62458131 -146.25 240.625 C-146.270625 241.57246094 -146.29125 242.51992188 -146.3125 243.49609375 C-146.35518753 251.29724028 -145.24506458 258.33306118 -141.125 265.0625 C-138.68311643 267.28892325 -137.19503213 267.48858397 -134 268 C-134.28875 267.06285156 -134.5775 266.12570312 -134.875 265.16015625 C-138.55947026 252.12823092 -138.42185466 239.45878627 -138 226 C-140.31 226 -142.62 226 -145 226 Z " fill="#000000" transform="translate(345,157)"/>
<path d="M0 0 C0.62993457 4.19956379 -0.06875143 6.60675136 -2.4375 10 C-6.65340528 15.18267315 -11.70133182 19.52019372 -18.4375 20.5 C-21 20 -21 20 -23 18 C-23.11622063 12.18896836 -21.11893528 9.04591724 -17.16796875 4.875 C-11.83663221 0.26411434 -6.74374947 -3.43187251 0 0 Z " fill="#000000" transform="translate(252,211)"/>
<path d="M0 0 C1 1 1 1 1.4375 3.5625 C0.69118689 9.4263887 -2.75298714 13.07864118 -7.15625 16.84375 C-11.90191067 20.28922967 -15.13649699 21.85509419 -21 21 C-22 20 -22 20 -22.4375 17.4375 C-21.69118689 11.5736113 -18.24701286 7.92135882 -13.84375 4.15625 C-9.09808933 0.71077033 -5.86350301 -0.85509419 0 0 Z " fill="#000000" transform="translate(298,238)"/>
<path d="M0 0 C24.62648266 8.20882755 24.62648266 8.20882755 30.9375 20 C32.65674938 23.80976523 33.97724775 26.79783467 33 31 C28.34915558 36.84677584 24.21138262 37.7981029 17 39 C11.39 39 5.78 39 0 39 C0 26.13 0 13.26 0 0 Z " fill="#000000" transform="translate(0,312)"/>
<path d="M0 0 C15.35798047 1.39618004 31.28268695 4.97086803 42 17 C48.3598854 26.84399653 48.19405695 38.56186178 46.38671875 49.8203125 C42.03019166 67.59187233 33.08119152 82.91356761 23 98 C25.74413309 97.08528897 28.23841581 95.94044809 30.83422852 94.67675781 C69.5640286 75.94114916 111.51195093 77.75650181 151.52734375 91.18359375 C168.02284417 97.44798222 179.95339321 109.14881074 189 124 C189.33 125.32 189.66 126.64 190 128 C127.3 128 64.6 128 0 128 C0 85.76 0 43.52 0 0 Z " fill="#000000" transform="translate(0,382)"/>
<path d="M0 0 C1.33263491 1.12235221 2.64673235 2.26723971 3.9375 3.4375 C4.55882812 3.99050781 5.18015625 4.54351562 5.8203125 5.11328125 C18.36583128 16.92562037 23.01608655 33.17516777 26.9375 49.4375 C27.2778125 48.72464844 27.618125 48.01179688 27.96875 47.27734375 C31.89272671 39.52331531 36.01771381 33.70060165 44.0625 30 C46.9375 29.4375 46.9375 29.4375 52.9375 29.4375 C52.9375 40.9875 52.9375 52.5375 52.9375 64.4375 C-12.0725 64.4375 -77.0825 64.4375 -144.0625 64.4375 C-141.44283018 40.86047159 -130.64362009 19.85032264 -112.5 4.5 C-81.08505309 -19.74702944 -32.58759285 -24.52354445 0 0 Z " fill="#000000" transform="translate(457.0625,445.5625)"/>
</svg>
