<?xml version="1.0" encoding="UTF-8"?>
<svg version="1.1" xmlns="http://www.w3.org/2000/svg" width="510" height="510">
<path d="M0 0 C122.1 0 244.2 0 370 0 C370 60.06 370 120.12 370 182 C368.35 182 366.7 182 365 182 C365 193.22 365 204.44 365 216 C351.8 216 338.6 216 325 216 C325 226.56 325 237.12 325 248 C317.08 248 309.16 248 301 248 C301 250.64 301 253.28 301 256 C298.36 256 295.72 256 293 256 C293.01160156 257.07121094 293.02320313 258.14242188 293.03515625 259.24609375 C293.04453299 260.64322743 293.05363331 262.04036299 293.0625 263.4375 C293.07087891 264.14455078 293.07925781 264.85160156 293.08789062 265.58007812 C293.09653588 267.38693559 293.05220011 269.19387603 293 271 C292.67 271.33 292.34 271.66 292 272 C290.02 272 288.04 272 286 272 C286 279.92 286 287.84 286 296 C288.31 296 290.62 296 293 296 C293 298.64 293 301.28 293 304 C295.64 304 298.28 304 301 304 C301 309.28 301 314.56 301 320 C298.36 320 295.72 320 293 320 C293 325.28 293 330.56 293 336 C298.28 336 303.56 336 309 336 C309 338.64 309 341.28 309 344 C327.48 344 345.96 344 365 344 C365 361.49 365 378.98 365 397 C366.65 397 368.3 397 370 397 C370 434.29 370 471.58 370 510 C332.05 510 294.1 510 255 510 C256.19959326 503.40223705 257.41122557 496.91424661 258.953125 490.40625 C259.32669425 488.80094053 259.6995486 487.19546457 260.07177734 485.58984375 C260.26423035 484.76081543 260.45668335 483.93178711 260.65496826 483.07763672 C267.62287246 452.89315318 272.76510416 422.91366917 275 392 C275.09498779 390.73583252 275.18997559 389.47166504 275.2878418 388.16918945 C275.99887281 377.96257623 276.20143371 367.7922914 276.1875 357.5625 C276.18689575 356.73473053 276.1862915 355.90696106 276.18566895 355.05410767 C276.11597408 319.66738757 273.41136982 283.48108006 256 252 C255.34214482 250.77360004 254.68458906 249.54703941 254.02734375 248.3203125 C237.18919099 217.40353488 210.40337666 195.80620756 177 185 C165.38402601 181.57814919 153.87171318 180.48765028 141.8046875 180.17578125 C138 180 138 180 137 179 C136.6726846 176.25717737 136.40282638 173.52855015 136.16796875 170.77734375 C136.01038804 169.03576564 135.8523285 167.2942308 135.69384766 165.55273438 C135.6116095 164.63580811 135.52937134 163.71888184 135.44464111 162.77416992 C131.34905815 103.2631687 131.34905815 103.2631687 103 53 C95.90535881 47.66568332 89.84251675 46.24327115 81 47 C75.07646961 49.01176504 71.63740404 52.77051799 68.87109375 58.2265625 C64.23596441 69.00195543 63.6089822 79.94740816 63.625 91.5625 C63.62554382 92.23507843 63.62608765 92.90765686 63.62664795 93.60061646 C63.75186396 127.63082126 73.04722042 161.13011405 87 192 C86.47792969 192.27561768 85.95585937 192.55123535 85.41796875 192.83520508 C58.8026241 206.96732383 33.01628247 224.47557629 16 250 C15.67178368 252.52506703 15.67178368 252.52506703 15.68115234 255.3894043 C15.66128265 256.49031906 15.64141296 257.59123383 15.62094116 258.72550964 C15.60938995 259.91308365 15.59783875 261.10065765 15.5859375 262.32421875 C15.56657135 263.54075638 15.5472052 264.75729401 15.5272522 266.01069641 C15.46738979 269.90289257 15.42104382 273.79511819 15.375 277.6875 C15.33682641 280.32358073 15.29777505 282.95964891 15.2578125 285.59570312 C15.1616827 292.06369078 15.07665461 298.53175382 15 305 C16.10085937 304.98396729 17.20171875 304.96793457 18.3359375 304.95141602 C24.60751667 305.03457461 29.59551128 307.63665272 34.0546875 312.01953125 C44.39588154 324.69082266 45.25277388 338.2122957 44 354 C41.64204013 368.81027667 33.60007209 381.64083864 23 392 C22.42742682 392.38172678 21.85485365 392.76345356 21.26492977 393.15674782 C18.3355605 395.21224185 16.33268096 396.80978867 15.34773445 400.33356857 C15.09817123 403.22975747 15.06870409 406.05565312 15.11352539 408.96240234 C15.10274963 410.05567841 15.09197388 411.14895447 15.08087158 412.27536011 C15.05352048 415.87957485 15.07534606 419.4817166 15.09765625 423.0859375 C15.08827183 425.58844297 15.07581446 428.09093865 15.06040955 430.59341431 C15.03145315 436.50077361 15.03342574 442.40760662 15.05048412 448.31496489 C15.06991626 455.70358929 15.04114645 463.09189564 15.01367188 470.48046875 C14.9705021 483.65377018 14.9714111 496.82667255 15 510 C9.72 510 4.44 510 -1 510 C-1.02289475 451.96097671 -1.04055384 393.92195386 -1.05106533 335.88292694 C-1.05231237 329.0049591 -1.05360896 322.12699127 -1.05493164 315.24902344 C-1.0550624 314.56468255 -1.05519316 313.88034166 -1.05532788 313.17526317 C-1.05956844 291.10293526 -1.06706392 269.03060997 -1.07629722 246.95828363 C-1.08606071 223.57534678 -1.09200963 200.19241209 -1.09408849 176.80947304 C-1.09544925 162.84294433 -1.09972019 148.87642312 -1.10791647 134.90989673 C-1.11327092 125.28580454 -1.11478492 115.66171613 -1.11350138 106.03762257 C-1.11287133 100.51484431 -1.11371914 94.99207899 -1.11920547 89.46930313 C-1.12005695 88.42782816 -1.12090842 87.38635319 -1.1217857 86.31331837 C-1.1234278 84.42964149 -1.12556137 82.54596489 -1.12844557 80.6622895 C-1.14934357 53.75274085 -0.56073467 26.91526421 0 0 Z M15 317 C15 337.79 15 358.58 15 380 C26.09012436 368.90987564 31.25270703 355.41540093 31.32128906 339.81298828 C31.17754939 331.83932117 28.71199752 324.71199752 23 319 C19.94024557 316.99203616 18.85514114 317 15 317 Z " fill="#000000" transform="translate(139,0)"/>
<path d="M0 0 C0.33 0 0.66 0 1 0 C0.67 12.87 0.34 25.74 0 39 C-0.33 39 -0.66 39 -1 39 C-1.02486762 34.57088594 -1.04293889 30.14180975 -1.05493164 25.71264648 C-1.05993555 24.2084075 -1.06674073 22.70417332 -1.07543945 21.19995117 C-1.08767884 19.02781991 -1.09326786 16.85575341 -1.09765625 14.68359375 C-1.10289307 13.37962646 -1.10812988 12.07565918 -1.11352539 10.73217773 C-1.00145975 7.04798967 -0.59374786 3.63028534 0 0 Z " fill="#000000" transform="translate(137,1)"/>
<path d="M0 0 C0.66 0.33 1.32 0.66 2 1 C1.46930939 4.82097239 0.50298434 7.06171403 -2 10 C-2.66 9.34 -3.32 8.68 -4 8 C-3.34 8 -2.68 8 -2 8 C-2 7.01 -2 6.02 -2 5 C-1.34 5 -0.68 5 0 5 C0 3.35 0 1.7 0 0 Z " fill="#000000" transform="translate(104,36)"/>
<path d="M0 0 C1.98 0 3.96 0 6 0 C2.375 6.75 2.375 6.75 -1 9 C-1.66 8.67 -2.32 8.34 -3 8 C-3 7.34 -3 6.68 -3 6 C-1.68 5.67 -0.36 5.34 1 5 C0.67 3.35 0.34 1.7 0 0 Z " fill="#000000" transform="translate(96,46)"/>
<path d="M0 0 C2.475 0.99 2.475 0.99 5 2 C5 3.65 5 5.3 5 7 C3.29115995 5.37660195 1.62553283 3.70680947 0 2 C0 1.34 0 0.68 0 0 Z " fill="#000000" transform="translate(115,46)"/>
<path d="M0 0 C13.72672022 7.43530678 19.1617099 23.84222506 23.53125 37.9453125 C29.4680059 57.98583207 32.96308042 78.36137416 36 99 C36.18103271 100.22404541 36.36206543 101.44809082 36.54858398 102.70922852 C36.99146423 105.93777519 37.20033581 109.05535664 37.25 112.3125 C37.27578125 113.33988281 37.3015625 114.36726563 37.328125 115.42578125 C37.21984375 116.27527344 37.1115625 117.12476563 37 118 C34.17969746 119.88020169 32.60810081 120.48261874 29.39453125 121.21875 C28.49283203 121.42886719 27.59113281 121.63898438 26.66210938 121.85546875 C25.25155273 122.17451172 25.25155273 122.17451172 23.8125 122.5 C21.96475541 122.92670099 20.11709784 123.35377895 18.26953125 123.78125 C16.93849365 124.08675781 16.93849365 124.08675781 15.58056641 124.3984375 C12.04248732 125.22320825 8.52123253 126.10624415 5 127 C0.99363186 121.6822924 -1.10332227 115.99717378 -3.3125 109.75 C-3.70203857 108.65316895 -4.09157715 107.55633789 -4.49291992 106.42626953 C-29.11067819 35.65713245 -29.11067819 35.65713245 -15.625 7.0625 C-12.04951595 0.52282434 -7.27668285 -1.85484073 0 0 Z " fill="#000000" transform="translate(232,59)"/>
<path d="M0 0 C1.65 1.65 3.3 3.3 5 5 C4.01 5.33 3.02 5.66 2 6 C1.34 5.67 0.68 5.34 0 5 C0 3.35 0 1.7 0 0 Z " fill="#000000" transform="translate(88,89)"/>
<path d="M0 0 C1.98 1.65 3.96 3.3 6 5 C5.67 5.66 5.34 6.32 5 7 C3.02 6.34 1.04 5.68 -1 5 C-0.67 3.35 -0.34 1.7 0 0 Z " fill="#000000" transform="translate(113,115)"/>
<path d="M0 0 C0.33 0 0.66 0 1 0 C1 28.38 1 56.76 1 86 C0.67 86 0.34 86 0 86 C0 57.62 0 29.24 0 0 Z " fill="#000000" transform="translate(136,146)"/>
<path d="M0 0 C0.33 0.66 0.66 1.32 1 2 C1.56217224 1.97494385 2.12434448 1.9498877 2.70355225 1.92407227 C8.60936017 1.66137349 14.51532375 1.40240713 20.42138672 1.14550781 C22.61901904 1.04943998 24.81661141 0.95245322 27.01416016 0.85449219 C30.19162839 0.71301473 33.36923056 0.57495615 36.546875 0.4375 C37.9960733 0.37187866 37.9960733 0.37187866 39.47454834 0.30493164 C46.31974669 0.01336576 53.14902513 -0.0474155 60 0 C60 0.99 60 1.98 60 3 C40.2 3.33 20.4 3.66 0 4 C0 2.68 0 1.36 0 0 Z " fill="#000000" transform="translate(0,152)"/>
<path d="M0 0 C0.33 0 0.66 0 1 0 C3.00162792 33.54164677 3.25721623 67.02336312 3.14405322 100.61502504 C3.1211176 107.55172299 3.11055874 114.48842644 3.10064721 121.42515326 C3.08011214 135.61680955 3.04527415 149.80840197 3 164 C2.34 164 1.68 164 1 164 C1.06058594 164.68513672 1.12117188 165.37027344 1.18359375 166.07617188 C1.45930382 169.21714582 1.72968978 172.35855693 2 175.5 C2.09539063 176.57765625 2.19078125 177.6553125 2.2890625 178.765625 C2.78162326 184.53562244 3.11244203 190.20923553 3 196 C2.34 196 1.68 196 1 196 C1.06058594 196.68513672 1.12117188 197.37027344 1.18359375 198.07617188 C1.45930382 201.21714582 1.72968978 204.35855693 2 207.5 C2.09539063 208.57765625 2.19078125 209.6553125 2.2890625 210.765625 C3.48453692 224.76975389 3.48453692 224.76975389 2.4375 231.75 C2.03679353 234.72667662 2.1736404 236.21103634 3 239 C2.505 239.99 2.505 239.99 2 241 C1.34 241 0.68 241 0 241 C0 161.47 0 81.94 0 0 Z " fill="#000000" transform="translate(61,156)"/>
<path d="M0 0 C2.64 0 5.28 0 8 0 C8 2.64 8 5.28 8 8 C5.36 8 2.72 8 0 8 C0 5.36 0 2.72 0 0 Z " fill="#000000" transform="translate(64,184)"/>
<path d="M0 0 C2.64 0 5.28 0 8 0 C8 2.64 8 5.28 8 8 C5.36 8 2.72 8 0 8 C0 5.36 0 2.72 0 0 Z " fill="#000000" transform="translate(64,224)"/>
<path d="M0 0 C25.33243058 21.57690739 38.91943238 50.58059422 42.05078125 83.72070312 C45.74436574 137.99587525 45.74436574 137.99587525 33.26171875 154.8203125 C25.66362907 158.61935734 13.23205586 153.08962541 5.69921875 150.8203125 C5.02497864 150.6202359 4.35073853 150.4201593 3.65606689 150.21401978 C-27.55575207 140.95143221 -57.49480093 128.96683674 -86.95214844 115.12744141 C-89.67051577 113.85210503 -92.39519574 112.59117454 -95.12109375 111.33203125 C-169.47834988 76.7514278 -169.47834988 76.7514278 -175.671875 60.34765625 C-176.10048547 44.03524585 -156.83187332 21.71600978 -146.04882812 10.15673828 C-107.07734723 -30.29175632 -44.10369565 -36.19876356 0 0 Z M-76.39453125 21.28125 C-77.3071875 22.22871094 -77.3071875 22.22871094 -78.23828125 23.1953125 C-79.1509375 24.13503906 -79.1509375 24.13503906 -80.08203125 25.09375 C-80.62859375 25.66351563 -81.17515625 26.23328125 -81.73828125 26.8203125 C-82.39828125 27.4803125 -83.05828125 28.1403125 -83.73828125 28.8203125 C-83.10599609 29.74263672 -83.10599609 29.74263672 -82.4609375 30.68359375 C-81.91308594 31.49183594 -81.36523438 32.30007813 -80.80078125 33.1328125 C-80.25550781 33.93332031 -79.71023438 34.73382813 -79.1484375 35.55859375 C-75.71412413 41.06681382 -75.9260034 47.84841148 -77.19921875 54.07421875 C-79.37044584 60.60067194 -83.47459162 65.78222019 -89.42578125 69.2578125 C-95.46095336 71.94525958 -101.95478723 71.79969003 -108.11328125 69.6328125 C-113.37141285 66.00219782 -117.13209405 62.12063836 -118.73828125 55.8203125 C-119.11671739 52.64386446 -119.36088639 49.491271 -119.52734375 46.296875 C-119.46536196 43.87838302 -119.46536196 43.87838302 -120.73828125 42.8203125 C-122.75792324 42.74787197 -124.77995249 42.73654062 -126.80078125 42.7578125 C-127.90550781 42.76683594 -129.01023437 42.77585937 -130.1484375 42.78515625 C-131.00308594 42.79675781 -131.85773438 42.80835938 -132.73828125 42.8203125 C-134.56711171 53.97617833 -132.77416989 63.62234901 -126.2734375 72.9140625 C-120.98739095 79.58070003 -114.1690352 83.52725208 -105.73828125 84.8203125 C-95.22823995 85.73881181 -86.58374405 83.88670252 -77.98828125 77.6328125 C-69.14358981 70.18048751 -63.57881584 61.60715177 -62.32421875 49.984375 C-61.7767126 39.57300805 -63.90474189 30.41569025 -70.42578125 22.0703125 C-73.32874998 19.19145212 -73.32874998 19.19145212 -76.39453125 21.28125 Z M-25.73828125 26.8203125 C-28.2650058 30.61039932 -28.1816937 32.31228592 -27.73828125 36.8203125 C-26.78707851 38.9535538 -25.72420112 40.92776484 -24.515625 42.92578125 C-23.49916259 45.40308914 -23.79293185 46.33012383 -24.73828125 48.8203125 C-25.66613812 50.68991632 -26.62828031 52.54267393 -27.61328125 54.3828125 C-31.906082 62.84488016 -34.1916195 71.35623097 -34.73828125 80.8203125 C-34.77953125 81.51382813 -34.82078125 82.20734375 -34.86328125 82.921875 C-35.1015688 91.11300969 -33.90351927 99.49421682 -31.30078125 107.2578125 C-30.73828125 110.8203125 -30.73828125 110.8203125 -31.7265625 112.63671875 C-33.11328125 114.3203125 -33.11328125 114.3203125 -35.73828125 116.8203125 C-32.66586072 118.22127496 -32.66586072 118.22127496 -29.55078125 116.3828125 C-28.62265625 115.8671875 -27.69453125 115.3515625 -26.73828125 114.8203125 C-26.64675781 115.5525 -26.55523437 116.2846875 -26.4609375 117.0390625 C-24.80183431 123.42436774 -18.83703322 128.37314458 -13.42578125 131.8203125 C-8.99107917 134.41097011 -5.3044726 135.02584748 -0.17578125 135.1328125 C1.55865234 135.18888672 1.55865234 135.18888672 3.328125 135.24609375 C8.43408551 134.87204553 8.43408551 134.87204553 17.26171875 130.8203125 C20.89171875 138.0803125 24.52171875 145.3403125 28.26171875 152.8203125 C29.30166739 148.66051792 29.13597988 147.48725497 27.9765625 143.5390625 C27.69361328 142.53230469 27.41066406 141.52554688 27.11914062 140.48828125 C26.50555472 138.37525292 25.88836184 136.26326866 25.26757812 134.15234375 C24.84508789 132.64220703 24.84508789 132.64220703 24.4140625 131.1015625 C24.14585693 130.18439453 23.87765137 129.26722656 23.60131836 128.32226562 C23.20166196 125.37785244 23.6815875 124.28399742 25.26171875 121.8203125 C25.71289062 121.10875 26.1640625 120.3971875 26.62890625 119.6640625 C27.12648438 118.890625 27.6240625 118.1171875 28.13671875 117.3203125 C33.16373303 109.02389529 36.38179875 99.44476995 36.39453125 89.6953125 C36.39582031 88.74140625 36.39710938 87.7875 36.3984375 86.8046875 C36.39457031 85.81984375 36.39070313 84.835 36.38671875 83.8203125 C36.39058594 82.83546875 36.39445312 81.850625 36.3984375 80.8359375 C36.39714844 79.88203125 36.39585937 78.928125 36.39453125 77.9453125 C36.39283936 76.64980469 36.39283936 76.64980469 36.39111328 75.328125 C36.2575387 72.7392984 35.79738659 70.35275408 35.26171875 67.8203125 C35.26685769 66.31974271 35.30757315 64.81880244 35.38671875 63.3203125 C35.43139424 57.92351369 33.75566358 55.3557558 30.01171875 51.5078125 C28.65046875 50.1775 28.65046875 50.1775 27.26171875 48.8203125 C26.17490061 47.51069664 25.09183854 46.19795835 24.01171875 44.8828125 C19.65609342 39.85049264 14.0264074 34.91661563 7.26171875 33.8203125 C5.17937283 33.75287902 3.09503318 33.73516778 1.01171875 33.7578125 C-0.0659375 33.76683594 -1.14359375 33.77585937 -2.25390625 33.78515625 C-3.48367188 33.80255859 -3.48367188 33.80255859 -4.73828125 33.8203125 C-4.980625 33.27761719 -5.22296875 32.73492187 -5.47265625 32.17578125 C-7.97142103 26.48283485 -7.97142103 26.48283485 -12.73828125 22.8203125 C-18.41231217 22.08478997 -21.33667064 23.23760619 -25.73828125 26.8203125 Z M-58.73828125 86.8203125 C-58.08242936 90.43023629 -58.08242936 90.43023629 -56.73828125 93.8203125 C-58.38828125 94.1503125 -60.03828125 94.4803125 -61.73828125 94.8203125 C-62.42987526 96.66756302 -62.42987526 96.66756302 -62.73828125 98.8203125 C-61.74828125 100.3053125 -61.74828125 100.3053125 -60.73828125 101.8203125 C-57.97551948 101.29762784 -55.41219365 100.71161663 -52.73828125 99.8203125 C-52.07828125 101.8003125 -51.41828125 103.7803125 -50.73828125 105.8203125 C-48.75828125 105.1603125 -46.77828125 104.5003125 -44.73828125 103.8203125 C-44.98578125 102.675625 -44.98578125 102.675625 -45.23828125 101.5078125 C-45.73828125 98.8203125 -45.73828125 98.8203125 -45.73828125 95.8203125 C-44.41828125 95.1603125 -43.09828125 94.5003125 -41.73828125 93.8203125 C-42.39828125 91.8403125 -43.05828125 89.8603125 -43.73828125 87.8203125 C-46.37828125 88.4803125 -49.01828125 89.1403125 -51.73828125 89.8203125 C-52.39828125 88.1703125 -53.05828125 86.5203125 -53.73828125 84.8203125 C-56.06185636 84.63541243 -56.06185636 84.63541243 -58.73828125 86.8203125 Z " fill="#000000" transform="translate(361.73828125,251.1796875)"/>
<path d="M0 0 C2.64 0 5.28 0 8 0 C8 2.64 8 5.28 8 8 C5.36 8 2.72 8 0 8 C0 5.36 0 2.72 0 0 Z " fill="#000000" transform="translate(64,256)"/>
<path d="M0 0 C0.33 0 0.66 0 1 0 C1 79.86 1 159.72 1 242 C0.67 242 0.34 242 0 242 C0 162.14 0 82.28 0 0 Z " fill="#000000" transform="translate(136,268)"/>
<path d="M0 0 C2.64 0 5.28 0 8 0 C8 2.64 8 5.28 8 8 C5.36 8 2.72 8 0 8 C0 5.36 0 2.72 0 0 Z " fill="#000000" transform="translate(64,304)"/>
<path d="M0 0 C2.64 0 5.28 0 8 0 C8 2.64 8 5.28 8 8 C5.36 8 2.72 8 0 8 C0 5.36 0 2.72 0 0 Z " fill="#000000" transform="translate(64,336)"/>
<path d="M0 0 C2.64 0 5.28 0 8 0 C8 2.64 8 5.28 8 8 C5.36 8 2.72 8 0 8 C0 5.36 0 2.72 0 0 Z " fill="#000000" transform="translate(64,368)"/>
<path d="M0 0 C20.13 0 40.26 0 61 0 C56.811185 3.14161125 56.19357298 3.37296619 51.31347656 3.34057617 C49.60215546 3.34023628 49.60215546 3.34023628 47.85626221 3.33988953 C46.63010193 3.32440567 45.40394165 3.30892181 44.140625 3.29296875 C42.88111023 3.28872391 41.62159546 3.28447906 40.32391357 3.28010559 C36.98311462 3.26616121 33.64293416 3.23922925 30.30230713 3.20599365 C26.89039442 3.17524839 23.4784177 3.16159079 20.06640625 3.14648438 C13.37743351 3.11339814 6.68875246 3.06318524 0 3 C0 2.01 0 1.02 0 0 Z " fill="#000000" transform="translate(0,397)"/>
<path d="M0 0 C7.16110858 3.92367129 14.44840232 7.55982559 21.78125 11.1484375 C24.74233486 12.60125689 27.69996859 14.06087361 30.65625 15.5234375 C31.34138672 15.85770752 32.02652344 16.19197754 32.73242188 16.53637695 C35.43801221 17.87503741 37.63119677 18.99838427 39.78125 21.1484375 C39.22569444 25.70399306 39.22569444 25.70399306 37.78125 27.1484375 C18.78368315 28.19481511 -3.45990904 13.2899912 -19.74633789 4.58520508 C-37.95232708 -5.66269528 -37.95232708 -5.66269528 -58.21875 -5.8515625 C-62.36416213 -3.75272989 -65.16041058 -0.37111528 -66.74609375 4.015625 C-69.20206255 15.09793049 -66.00659073 25.44028301 -60.65625 35.1484375 C-49.38312601 52.70632811 -31.48469925 64.95970709 -11.4296875 70.48046875 C-5.04630109 71.73896247 1.58124041 71.34460201 8.05004883 71.08935547 C9.48513794 71.04319092 9.48513794 71.04319092 10.94921875 70.99609375 C11.80797607 70.95492432 12.6667334 70.91375488 13.55151367 70.87133789 C15.78125 71.1484375 15.78125 71.1484375 17.5871582 72.47045898 C18.78125 74.1484375 18.78125 74.1484375 18.71875 77.1484375 C17.65092154 80.56548858 16.85441516 81.4310805 13.78125 83.1484375 C-2.106961 88.44450783 -21.76193048 81.5612324 -36.0546875 74.80859375 C-56.04764551 64.46839627 -73.04668497 47.75680498 -80.03125 26.0234375 C-82.60587366 15.50170959 -82.588307 4.64455161 -77.8359375 -5.22265625 C-73.07360107 -12.96432875 -67.48998057 -16.9871426 -58.90625 -19.5390625 C-37.15341612 -22.06846179 -18.33284574 -10.06796684 0 0 Z " fill="#000000" transform="translate(362.21875,416.8515625)"/>
<path d="M0 0 C2.64 0 5.28 0 8 0 C8 2.64 8 5.28 8 8 C5.36 8 2.72 8 0 8 C0 5.36 0 2.72 0 0 Z " fill="#000000" transform="translate(80,448)"/>
<path d="M0 0 C0.66 0 1.32 0 2 0 C2.79953138 3.28696233 3.09658936 4.71023192 2 8 C2.66 8 3.32 8 4 8 C4 11.96 4 15.92 4 20 C3.67 20 3.34 20 3 20 C2.49395076 17.60530271 1.99500483 15.20948283 1.5 12.8125 C1.28537109 11.80219727 1.28537109 11.80219727 1.06640625 10.77148438 C0.31930158 7.12490207 -0.17352282 3.72351043 0 0 Z " fill="#000000" transform="translate(76,456)"/>
<path d="M0 0 C2.31 0 4.62 0 7 0 C7 2.64 7 5.28 7 8 C4.36 8 1.72 8 -1 8 C-0.67 5.36 -0.34 2.72 0 0 Z " fill="#000000" transform="translate(81,472)"/>
<path d="M0 0 C0.89203125 0.10183594 1.7840625 0.20367187 2.703125 0.30859375 C3.37859375 0.39238281 4.0540625 0.47617187 4.75 0.5625 C4.75 1.2225 4.75 1.8825 4.75 2.5625 C-0.53 2.5625 -5.81 2.5625 -11.25 2.5625 C-7.81091032 -0.87658968 -4.6489604 -0.55053478 0 0 Z " fill="#000000" transform="translate(67.25,485.4375)"/>
<path d="M0 0 C-4.455 1.485 -4.455 1.485 -9 3 C-9 3.66 -9 4.32 -9 5 C-11.64 5 -14.28 5 -17 5 C-14.51737568 2.51737568 -12.38224713 1.92713025 -9.0625 0.8125 C-8.00160156 0.44769531 -6.94070312 0.08289063 -5.84765625 -0.29296875 C-3 -1 -3 -1 0 0 Z " fill="#000000" transform="translate(49,491)"/>
<path d="M0 0 C-1.32 0.99 -2.64 1.98 -4 3 C-5.32 2.34 -6.64 1.68 -8 1 C-4.93251126 -0.86240388 -3.40254489 -1.2151946 0 0 Z " fill="#000000" transform="translate(16,504)"/>
</svg>
