<?xml version="1.0" encoding="UTF-8"?>
<svg version="1.1" xmlns="http://www.w3.org/2000/svg" width="510" height="510">
<path d="M0 0 C7.92 0 15.84 0 24 0 C24 2.64 24 5.28 24 8 C84.72 8 145.44 8 208 8 C208 5.36 208 2.72 208 0 C223.84 0 239.68 0 256 0 C256 2.64 256 5.28 256 8 C295.6 8 335.2 8 376 8 C376 15.92 376 23.84 376 32 C354.88 32 333.76 32 312 32 C312 34.64 312 37.28 312 40 C306.72 40 301.44 40 296 40 C296 42.64 296 45.28 296 48 C293.36 48 290.72 48 288 48 C288 50.64 288 53.28 288 56 C285.36 56 282.72 56 280 56 C280 58.64 280 61.28 280 64 C277.36 64 274.72 64 272 64 C272 66.64 272 69.28 272 72 C269.36 72 266.72 72 264 72 C264 74.64 264 77.28 264 80 C261.36 80 258.72 80 256 80 C256 82.64 256 85.28 256 88 C253.36 88 250.72 88 248 88 C248 90.64 248 93.28 248 96 C245.36 96 242.72 96 240 96 C240 101.28 240 106.56 240 112 C245.28 112 250.56 112 256 112 C256 114.64 256 117.28 256 120 C258.64 120 261.28 120 264 120 C264 122.64 264 125.28 264 128 C266.64 128 269.28 128 272 128 C272 130.64 272 133.28 272 136 C274.64 136 277.28 136 280 136 C280 138.64 280 141.28 280 144 C311.68 144 343.36 144 376 144 C376 246.96 376 349.92 376 456 C278.32 456 180.64 456 80 456 C80 453.36 80 450.72 80 448 C77.36 448 74.72 448 72 448 C72 445.36 72 442.72 72 440 C69.36 440 66.72 440 64 440 C64 437.36 64 434.72 64 432 C61.36 432 58.72 432 56 432 C56 429.36 56 426.72 56 424 C53.36 424 50.72 424 48 424 C48 418.72 48 413.44 48 408 C45.36 408 42.72 408 40 408 C40 405.36 40 402.72 40 400 C37.36 400 34.72 400 32 400 C32 397.36 32 394.72 32 392 C24.08 392 16.16 392 8 392 C8 381.44 8 370.88 8 360 C5.36 360 2.72 360 0 360 C0 352.08 0 344.16 0 336 C-13.2 336 -26.4 336 -40 336 C-40 333.36 -40 330.72 -40 328 C-45.28 328 -50.56 328 -56 328 C-56 325.36 -56 322.72 -56 320 C-58.64 320 -61.28 320 -64 320 C-64 304.16 -64 288.32 -64 272 C-61.36 272 -58.72 272 -56 272 C-56 269.36 -56 266.72 -56 264 C-53.36 264 -50.72 264 -48 264 C-48 261.36 -48 258.72 -48 256 C-45.36 256 -42.72 256 -40 256 C-40 253.36 -40 250.72 -40 248 C-37.36 248 -34.72 248 -32 248 C-32 245.36 -32 242.72 -32 240 C-29.36 240 -26.72 240 -24 240 C-24 237.36 -24 234.72 -24 232 C-18.72 232 -13.44 232 -8 232 C-8 224.08 -8 216.16 -8 208 C-5.36 208 -2.72 208 0 208 C0 194.8 0 181.6 0 168 C2.64 168 5.28 168 8 168 C8 160.08 8 152.16 8 144 C10.64 144 13.28 144 16 144 C16 136.08 16 128.16 16 120 C13.36 120 10.72 120 8 120 C8 117.36 8 114.72 8 112 C5.36 112 2.72 112 0 112 C0 109.36 0 106.72 0 104 C-2.64 104 -5.28 104 -8 104 C-8 101.36 -8 98.72 -8 96 C-10.64 96 -13.28 96 -16 96 C-16 90.72 -16 85.44 -16 80 C-18.64 80 -21.28 80 -24 80 C-24 74.72 -24 69.44 -24 64 C-26.64 64 -29.28 64 -32 64 C-32 53.44 -32 42.88 -32 32 C-29.36 32 -26.72 32 -24 32 C-24 26.72 -24 21.44 -24 16 C-21.36 16 -18.72 16 -16 16 C-16 13.36 -16 10.72 -16 8 C-10.72 8 -5.44 8 0 8 C0 5.36 0 2.72 0 0 Z M193 32 C191.79923828 33.01900391 191.79923828 33.01900391 190.57421875 34.05859375 C171.14660742 51.00865589 156.92044073 72.29536794 147 96 C146.12214844 95.84015625 145.24429688 95.6803125 144.33984375 95.515625 C120.83609749 92.18912239 96.28147903 95.35926049 75 106 C74.75507813 104.70449219 74.51015625 103.40898438 74.2578125 102.07421875 C73.11544758 96.95558365 71.18061784 92.50360922 68.875 87.8125 C68.27776123 86.57693359 68.27776123 86.57693359 67.66845703 85.31640625 C64.09493805 78.01344323 60.20561076 70.95806333 56 64 C55.34515625 62.90945312 54.6903125 61.81890625 54.015625 60.6953125 C51.62842356 56.76538269 51.62842356 56.76538269 49 53 C48.34 53 47.68 53 47 53 C46.90203125 53.99 46.8040625 54.98 46.703125 56 C44.870506 72.83026146 44.870506 72.83026146 37.9375 78.9375 C32.32955807 82.87499114 26.63549067 82.49151783 20 82 C16.87905929 81.24817675 13.9533879 80.25295244 11 79 C16.24973095 93.44328964 28.77342629 106.63776554 39.05078125 117.80078125 C41.63345292 120.71469739 43.82554088 123.77338324 46 127 C45.31035156 127.70382813 44.62070313 128.40765625 43.91015625 129.1328125 C22.4240453 151.51097387 12 180.94081167 12 212 C16.3941319 211.36092158 20.48358151 210.33171618 24.71875 209.00390625 C25.65019836 208.71349709 25.65019836 208.71349709 26.60046387 208.41722107 C28.56815641 207.80268038 30.53406075 207.18262362 32.5 206.5625 C33.81890071 206.15003965 35.13791028 205.73792723 36.45703125 205.32617188 C41.98702341 203.59620316 47.50728143 201.84563244 53 200 C53.03867188 198.1128125 53.03867188 198.1128125 53.078125 196.1875 C53.77758776 172.21264846 60.22349013 149.91985786 78.125 132.8125 C97.02673033 116.94156436 119.04375025 113.45667581 143 115 C148.85516866 115.69500195 154.41697523 117.13330928 160 119 C160.64614258 119.21430664 161.29228516 119.42861328 161.95800781 119.64941406 C186.80443856 128.17138007 209.42014687 146.7332102 221.20605469 170.42431641 C223.62135698 175.55460838 225.84878976 180.75417168 228 186 C231.3 186 234.6 186 238 186 C237.4460085 180.14017445 235.76325794 175.32412835 233.4375 169.9375 C233.08034912 169.10404053 232.72319824 168.27058105 232.35522461 167.41186523 C223.51116787 147.1921672 210.11898485 128.0352409 192 115 C191.34 115 190.68 115 190 115 C193.43322729 111.42818371 196.95226963 108.40757711 200.9375 105.4375 C223.20635934 88.56065503 251.99144072 65.05777515 256.34375 35.6796875 C256.55408242 31.06990196 255.53689494 27.8053424 253 24 C247.14058397 17.8547588 240.00283161 15.90305213 231.625 15.625 C216.84157447 16.12401858 204.05385209 22.47216642 193 32 Z M6 28 C2.18629066 31.71592192 0.26025673 35.69097808 -0.3359375 40.98046875 C-0.45841192 51.03561824 1.65682864 59.02572743 8 67 C13.72459278 72.69659966 19.50080324 76.39951696 27.69140625 77.0625 C32.89169467 76.92171385 36.71673226 75.28326774 40.375 71.625 C44.8033793 64.47146421 45.17511947 57.24229945 43.34765625 49.08984375 C40.45344446 40.25815027 35.4332242 32.52296881 27.1640625 27.94140625 C19.78730653 24.73238425 13.21822622 24.02923752 6 28 Z M85 163 C80.16862093 168.98474872 80.16862093 168.98474872 78 176 C80.90600261 177.25664978 82.79604584 178 86 178 C87.6402892 175.93292177 87.6402892 175.93292177 89.1875 173.3125 C93.11631405 167.42344964 97.3138715 164.2287095 104 162 C111.11750885 161.25078854 115.97833395 163.20303473 122 167 C123.79296875 168.66796875 123.79296875 168.66796875 125 170 C128.36591866 168.55746343 130.51047079 166.66735273 133 164 C131.5371193 160.24527287 129.69906775 158.8712786 126.25 156.875 C125.40953125 156.37742188 124.5690625 155.87984375 123.703125 155.3671875 C109.65908723 148.2639892 95.33763312 151.53234221 85 163 Z M166 163 C164.81582365 165.10093391 164.81582365 165.10093391 164 167 C166.25167846 168.71815438 166.25167846 168.71815438 169 170 C171.75255114 169.20087225 173.39061228 167.68379006 175.625 165.875 C180.18500201 163.34166555 183.88918452 163.18426724 189 164 C193.97243621 166.39413595 196.27352643 169.38596781 199 174 C203.82442184 172.73053486 203.82442184 172.73053486 207 169 C201.7489783 161.56556377 197.01996888 156.38458947 188 154 C179.15689103 153.05252404 171.89770937 156.48064018 166 163 Z M262.625 181.1875 C262.10164063 181.86167969 261.57828125 182.53585938 261.0390625 183.23046875 C259.41121378 187.56935877 260.36860654 191.48803337 261 196 C261.16160758 197.79804723 261.32176125 199.59622572 261.48046875 201.39453125 C262.18636397 210.65420045 262.18636397 210.65420045 266.49462891 218.45751953 C270.88820837 221.09415935 275.95557564 222.29240234 281.07421875 221.80078125 C283.88371448 220.63253252 286.27512702 218.98812366 288.8125 217.3125 C300.10311304 210.14721022 311.86278787 206.30761507 325 204 C321.19459939 191.87909436 308.6707922 180.21094828 298 174 C282.88853114 166.58483737 273.17078766 167.4099387 262.625 181.1875 Z M9 223 C7.63963084 230.79887585 6.70652632 241.74069174 10.53125 248.84375 C13.20652131 250.99150303 15.94608105 252.42697583 19 254 C21.38900561 255.53332173 23.73868575 257.11969773 26.09375 258.70458984 C30.34713655 261.54631968 34.67207127 264.27364197 39 267 C39.65629395 267.4139502 40.31258789 267.82790039 40.98876953 268.25439453 C57.90561267 278.84409003 75.72593274 287.95292225 93.5625 296.875 C94.17481476 297.18165588 94.78712952 297.48831177 95.41799927 297.80426025 C98.98648263 299.58817187 102.56574985 301.34795478 106.15411377 303.0916748 C108.11003085 304.05414407 110.05037883 305.04458778 111.99169922 306.03613281 C113.31572535 306.69407502 114.64009769 307.35132107 115.96484375 308.0078125 C116.56583389 308.32257538 117.16682404 308.63733826 117.786026 308.9616394 C122.97504341 311.48793146 126.8257633 311.04347334 132.19311523 309.27905273 C132.80872314 309.00005127 133.42433105 308.7210498 134.05859375 308.43359375 C135.11953247 307.95889648 135.11953247 307.95889648 136.2019043 307.47460938 C136.93965088 307.13236328 137.67739746 306.79011719 138.4375 306.4375 C139.2210083 306.08107422 140.0045166 305.72464844 140.81176758 305.35742188 C147.98855406 302.06519855 155.07434333 298.59915181 162.09277344 294.98242188 C163.34143831 294.3392284 164.5920281 293.69975494 165.84472656 293.06445312 C191.92835648 279.81962548 216.8188731 262.65417282 238.17578125 242.640625 C240.89692504 240.09637437 243.65780305 237.60496597 246.4375 235.125 C247.23671875 234.3928125 248.0359375 233.660625 248.859375 232.90625 C251 231 251 231 254.1875 228.625 C257.25920457 224.17632441 255.92843231 220.12822318 255 215 C254.84756836 214.15518066 254.69513672 213.31036133 254.53808594 212.43994141 C253.41683665 206.28158077 252.22989781 200.13752338 251 194 C238.76384485 192.46954167 226.57831023 191.52567822 214.25927734 190.99462891 C211.50187751 190.8750814 208.74513145 190.7448393 205.98828125 190.61328125 C154.95716639 188.25718029 48.63784685 183.36215315 9 223 Z M38 276 C39 280 39 280 39 280 Z M41 276 C41.33 276.66 41.66 277.32 42 278 C42.66 277.67 43.32 277.34 44 277 C43.01 276.67 42.02 276.34 41 276 Z M53 283 C53.99 283.99 54.98 284.98 56 286 C56.66 285.67 57.32 285.34 58 285 C55.525 284.01 55.525 284.01 53 283 Z M57 296 C58 300 58 300 58 300 Z M58 308 C59 312 59 312 59 312 Z M42 332 C43 334 43 334 43 334 Z M62 342 C63 344 63 344 63 344 Z M44 346 C44 346.33 44 346.66 44 347 C45.65 347 47.3 347 49 347 C49 346.67 49 346.34 49 346 C47.35 346 45.7 346 44 346 Z M253 350 C254 352 254 352 254 352 Z M65 360 C66 362 66 362 66 362 Z M55 362 C56 365 56 365 56 365 Z M66 365 C67 368 67 368 67 368 Z M67 370 C68 372 68 372 68 372 Z M68 376 C69 378 69 378 69 378 Z M49 381 C49 381.66 49 382.32 49 383 C50.65 383 52.3 383 54 383 C51.61837991 381.58614089 51.61837991 381.58614089 49 381 Z M69 382 C70 384 70 384 70 384 Z M54 383 C54 383.33 54 383.66 54 384 C55.98 384 57.96 384 60 384 C60 383.67 60 383.34 60 383 C58.02 383 56.04 383 54 383 Z M60 384 C60 384.33 60 384.66 60 385 C61.98 385 63.96 385 66 385 C66 384.67 66 384.34 66 384 C64.02 384 62.04 384 60 384 Z M66 385 C66 385.33 66 385.66 66 386 C67.65 386 69.3 386 71 386 C71 385.67 71 385.34 71 385 C69.35 385 67.7 385 66 385 Z M218.28125 386.390625 C216.70773899 386.68950762 215.13416876 386.98807864 213.56054688 387.28637695 C212.32292603 387.52259262 212.32292603 387.52259262 211.06030273 387.76358032 C158.969812 397.66000365 109.6779973 399.71768992 57 393 C58.63317318 399.1605773 61.88937535 404.32341215 65.125 409.75 C65.71176514 410.73629395 66.29853027 411.72258789 66.90307617 412.73876953 C70.83958761 419.26944256 74.79703495 425.39680687 80 431 C80.66515625 431.7321875 81.3303125 432.464375 82.015625 433.21875 C88.10098952 439.62928667 93.50456356 443.53399562 102.578125 444.09765625 C107.98946578 443.87945703 112.48745702 441.24525118 116.46875 437.6875 C122.70984926 430.80955387 131 418.45102935 131 409 C132.26972656 409.03480469 133.53945313 409.06960938 134.84765625 409.10546875 C145.68113542 409.30820052 155.47741254 408.67847681 166 406 C165.98428955 406.58378418 165.9685791 407.16756836 165.95239258 407.76904297 C165.88917972 410.47092595 165.85074077 413.17265259 165.8125 415.875 C165.78736328 416.7928125 165.76222656 417.710625 165.73632812 418.65625 C165.65815052 426.0570636 166.35346254 433.49974078 170.9375 439.5625 C173.68441095 441.47701369 175.73350486 442.21187607 179.078125 441.65234375 C184.95998993 439.71640619 189.25221448 436.93028603 194 433 C194.845625 432.38125 195.69125 431.7625 196.5625 431.125 C210.0474999 419.36884624 222.22907716 401.01968367 230 385 C225.93561721 385 222.2453313 385.61920137 218.28125 386.390625 Z " fill="#000000" transform="translate(128,24)"/>
<path d="M0 0 C-0.33 2.64 -0.66 5.28 -1 8 C0.01320313 7.7834375 1.02640625 7.566875 2.0703125 7.34375 C3.42181004 7.06218801 4.77337625 6.7809555 6.125 6.5 C6.79015625 6.35691406 7.4553125 6.21382812 8.140625 6.06640625 C12.16056422 5.2387717 15.89904899 4.84669342 20 5 C20.495 7.97 20.495 7.97 21 11 C14.10666207 13.13365222 7.05980405 14.53124742 0 16 C0.62031591 22.57534861 2.14897283 28.66692592 4 35 C1.36 35.99 -1.28 36.98 -4 38 C-4.67076489 35.23010036 -5.33676317 32.45920258 -6 29.6875 C-6.19078125 28.90181641 -6.3815625 28.11613281 -6.578125 27.30664062 C-6.84882813 26.1706543 -6.84882813 26.1706543 -7.125 25.01171875 C-7.37636719 23.96697388 -7.37636719 23.96697388 -7.6328125 22.90112305 C-8 21 -8 21 -8 18 C-12.95 19.98 -17.9 21.96 -23 24 C-23 22.02 -23 20.04 -23 18 C-18.42543762 15.29260594 -13.92101242 13.0085765 -9 11 C-8.67 7.7 -8.34 4.4 -8 1 C-3.375 -1.125 -3.375 -1.125 0 0 Z " fill="#000000" transform="translate(352,49)"/>
<path d="M0 0 C3.24593197 1.32945086 5.19412489 3.75578403 7.453125 6.33984375 C7.91203125 6.84322266 8.3709375 7.34660156 8.84375 7.86523438 C12.203125 11.62953404 12.203125 11.62953404 12.203125 13.90234375 C16.493125 12.91234375 20.783125 11.92234375 25.203125 10.90234375 C26.193125 13.21234375 27.183125 15.52234375 28.203125 17.90234375 C24.903125 18.56234375 21.603125 19.22234375 18.203125 19.90234375 C18.94820312 21.07152344 19.69328125 22.24070312 20.4609375 23.4453125 C21.41762605 24.99289692 22.37330289 26.54110709 23.328125 28.08984375 C23.82183594 28.85876953 24.31554687 29.62769531 24.82421875 30.41992188 C28.32986258 36.17214028 28.32986258 36.17214028 27.6953125 39.828125 C26.203125 41.90234375 26.203125 41.90234375 23.203125 43.90234375 C21.36278524 40.78141941 19.53206244 37.65496158 17.703125 34.52734375 C17.17847656 33.63789062 16.65382812 32.7484375 16.11328125 31.83203125 C15.36884766 30.55585937 15.36884766 30.55585937 14.609375 29.25390625 C14.14853516 28.46838379 13.68769531 27.68286133 13.21289062 26.87353516 C12.203125 24.90234375 12.203125 24.90234375 12.203125 22.90234375 C10.5956922 23.83423256 8.99229701 24.7730881 7.390625 25.71484375 C6.49730469 26.23691406 5.60398438 26.75898437 4.68359375 27.296875 C2.21511222 28.77175027 2.21511222 28.77175027 0.50390625 30.6015625 C0.07464844 31.03082031 -0.35460937 31.46007812 -0.796875 31.90234375 C-1.456875 31.90234375 -2.116875 31.90234375 -2.796875 31.90234375 C-3.126875 32.56234375 -3.456875 33.22234375 -3.796875 33.90234375 C-5.359375 31.08984375 -5.359375 31.08984375 -6.796875 27.90234375 C-5.49154952 23.98636731 -3.82422226 23.36404029 -0.359375 21.21484375 C0.62933594 20.59222656 1.61804688 19.96960938 2.63671875 19.328125 C5.203125 17.90234375 5.203125 17.90234375 7.203125 17.90234375 C3.45047746 12.93846703 -0.25577828 8.16822249 -4.796875 3.90234375 C-4.466875 2.91234375 -4.136875 1.92234375 -3.796875 0.90234375 C-1.796875 -0.09765625 -1.796875 -0.09765625 0 0 Z " fill="#000000" transform="translate(139.796875,52.09765625)"/>
</svg>
