%TF.GenerationSoftware,KiCad,Pcbnew,9.0.6*%
%TF.CreationDate,2025-11-29T18:30:52-05:00*%
%TF.ProjectId,Generalist_Macro,47656e65-7261-46c6-9973-745f4d616372,rev?*%
%TF.SameCoordinates,Original*%
%TF.FileFunction,Legend,Bot*%
%TF.FilePolarity,Positive*%
%FSLAX46Y46*%
G04 Gerber Fmt 4.6, Leading zero omitted, Abs format (unit mm)*
G04 Created by KiCad (PCBNEW 9.0.6) date 2025-11-29 18:30:52*
%MOMM*%
%LPD*%
G01*
G04 APERTURE LIST*
%ADD10C,0.100000*%
G04 APERTURE END LIST*
D10*
%TO.C,D14*%
X121512500Y-88900000D02*
X121512500Y-88000000D01*
X122412500Y-88000000D01*
X121512500Y-88900000D01*
G36*
X121512500Y-88900000D02*
G01*
X121512500Y-88000000D01*
X122412500Y-88000000D01*
X121512500Y-88900000D01*
G37*
%TO.C,D10*%
X83502500Y-69700000D02*
X83502500Y-68800000D01*
X84402500Y-68800000D01*
X83502500Y-69700000D01*
G36*
X83502500Y-69700000D02*
G01*
X83502500Y-68800000D01*
X84402500Y-68800000D01*
X83502500Y-69700000D01*
G37*
%TO.C,D11*%
X102512500Y-69700000D02*
X102512500Y-68800000D01*
X103412500Y-68800000D01*
X102512500Y-69700000D01*
G36*
X102512500Y-69700000D02*
G01*
X102512500Y-68800000D01*
X103412500Y-68800000D01*
X102512500Y-69700000D01*
G37*
%TO.C,D12*%
X121412500Y-69700000D02*
X121412500Y-68800000D01*
X122312500Y-68800000D01*
X121412500Y-69700000D01*
G36*
X121412500Y-69700000D02*
G01*
X121412500Y-68800000D01*
X122312500Y-68800000D01*
X121412500Y-69700000D01*
G37*
%TO.C,D13*%
X140602500Y-88900000D02*
X140602500Y-88000000D01*
X141502500Y-88000000D01*
X140602500Y-88900000D01*
G36*
X140602500Y-88900000D02*
G01*
X140602500Y-88000000D01*
X141502500Y-88000000D01*
X140602500Y-88900000D01*
G37*
%TO.C,D15*%
X102522500Y-88900000D02*
X102522500Y-88000000D01*
X103422500Y-88000000D01*
X102522500Y-88900000D01*
G36*
X102522500Y-88900000D02*
G01*
X102522500Y-88000000D01*
X103422500Y-88000000D01*
X102522500Y-88900000D01*
G37*
%TO.C,D16*%
X83512500Y-88900000D02*
X83512500Y-88000000D01*
X84412500Y-88000000D01*
X83512500Y-88900000D01*
G36*
X83512500Y-88900000D02*
G01*
X83512500Y-88000000D01*
X84412500Y-88000000D01*
X83512500Y-88900000D01*
G37*
%TD*%
M02*
