%TF.GenerationSoftware,KiCad,Pcbnew,9.0.6*%
%TF.CreationDate,2025-11-29T18:30:53-05:00*%
%TF.ProjectId,Generalist_Macro,47656e65-7261-46c6-9973-745f4d616372,rev?*%
%TF.SameCoordinates,Original*%
%TF.FileFunction,Soldermask,Bot*%
%TF.FilePolarity,Negative*%
%FSLAX46Y46*%
G04 Gerber Fmt 4.6, Leading zero omitted, Abs format (unit mm)*
G04 Created by KiCad (PCBNEW 9.0.6) date 2025-11-29 18:30:53*
%MOMM*%
%LPD*%
G01*
G04 APERTURE LIST*
G04 Aperture macros list*
%AMRoundRect*
0 Rectangle with rounded corners*
0 $1 Rounding radius*
0 $2 $3 $4 $5 $6 $7 $8 $9 X,Y pos of 4 corners*
0 Add a 4 corners polygon primitive as box body*
4,1,4,$2,$3,$4,$5,$6,$7,$8,$9,$2,$3,0*
0 Add four circle primitives for the rounded corners*
1,1,$1+$1,$2,$3*
1,1,$1+$1,$4,$5*
1,1,$1+$1,$6,$7*
1,1,$1+$1,$8,$9*
0 Add four rect primitives between the rounded corners*
20,1,$1+$1,$2,$3,$4,$5,0*
20,1,$1+$1,$4,$5,$6,$7,0*
20,1,$1+$1,$6,$7,$8,$9,0*
20,1,$1+$1,$8,$9,$2,$3,0*%
G04 Aperture macros list end*
%ADD10C,1.700000*%
%ADD11C,4.000000*%
%ADD12C,2.200000*%
%ADD13RoundRect,0.082000X0.718000X-0.328000X0.718000X0.328000X-0.718000X0.328000X-0.718000X-0.328000X0*%
%ADD14R,1.700000X1.700000*%
%ADD15R,2.000000X2.000000*%
%ADD16C,2.000000*%
%ADD17R,3.200000X2.000000*%
%ADD18C,1.524000*%
G04 APERTURE END LIST*
D10*
%TO.C,SW5*%
X92580000Y-89900000D03*
D11*
X87500000Y-89900000D03*
D10*
X82420000Y-89900000D03*
D12*
X84960000Y-94980000D03*
X91310000Y-92440000D03*
%TD*%
D10*
%TO.C,SW1*%
X92570000Y-70700000D03*
D11*
X87490000Y-70700000D03*
D10*
X82410000Y-70700000D03*
D12*
X84950000Y-75780000D03*
X91300000Y-73240000D03*
%TD*%
D10*
%TO.C,SW8*%
X149670000Y-89900000D03*
D11*
X144590000Y-89900000D03*
D10*
X139510000Y-89900000D03*
D12*
X142050000Y-94980000D03*
X148400000Y-92440000D03*
%TD*%
D13*
%TO.C,D14*%
X128312500Y-90650000D03*
X128312500Y-89150000D03*
X123112500Y-89150000D03*
X123112500Y-90650000D03*
%TD*%
D10*
%TO.C,SW7*%
X130580000Y-89900000D03*
D11*
X125500000Y-89900000D03*
D10*
X120420000Y-89900000D03*
D12*
X122960000Y-94980000D03*
X129310000Y-92440000D03*
%TD*%
D14*
%TO.C,J1*%
X141190000Y-58000000D03*
D10*
X143730000Y-58000000D03*
X146270000Y-58000000D03*
X148810000Y-58000000D03*
%TD*%
%TO.C,SW2*%
X111580000Y-70700000D03*
D11*
X106500000Y-70700000D03*
D10*
X101420000Y-70700000D03*
D12*
X103960000Y-75780000D03*
X110310000Y-73240000D03*
%TD*%
D10*
%TO.C,SW3*%
X130480000Y-70700000D03*
D11*
X125400000Y-70700000D03*
D10*
X120320000Y-70700000D03*
D12*
X122860000Y-75780000D03*
X129210000Y-73240000D03*
%TD*%
D13*
%TO.C,D10*%
X90302500Y-71450000D03*
X90302500Y-69950000D03*
X85102500Y-69950000D03*
X85102500Y-71450000D03*
%TD*%
D10*
%TO.C,SW6*%
X111590000Y-89900000D03*
D11*
X106510000Y-89900000D03*
D10*
X101430000Y-89900000D03*
D12*
X103970000Y-94980000D03*
X110320000Y-92440000D03*
%TD*%
D15*
%TO.C,SW13*%
X137750000Y-68200000D03*
D16*
X137750000Y-73200000D03*
X137750000Y-70700000D03*
D17*
X145250000Y-65100000D03*
X145250000Y-76300000D03*
D16*
X152250000Y-73200000D03*
X152250000Y-68200000D03*
%TD*%
D13*
%TO.C,D11*%
X109312500Y-71450000D03*
X109312500Y-69950000D03*
X104112500Y-69950000D03*
X104112500Y-71450000D03*
%TD*%
D18*
%TO.C,U1*%
X57680000Y-56680000D03*
X57680000Y-59220000D03*
X57680000Y-61760000D03*
X57680000Y-64300000D03*
X57680000Y-66840000D03*
X57680000Y-69380000D03*
X57680000Y-71920000D03*
X72920000Y-71920000D03*
X72920000Y-69380000D03*
X72920000Y-66840000D03*
X72920000Y-64300000D03*
X72920000Y-61760000D03*
X72920000Y-59220000D03*
X72920000Y-56680000D03*
%TD*%
D13*
%TO.C,D12*%
X128212500Y-71450000D03*
X128212500Y-69950000D03*
X123012500Y-69950000D03*
X123012500Y-71450000D03*
%TD*%
%TO.C,D13*%
X147402500Y-90650000D03*
X147402500Y-89150000D03*
X142202500Y-89150000D03*
X142202500Y-90650000D03*
%TD*%
%TO.C,D15*%
X109322500Y-90650000D03*
X109322500Y-89150000D03*
X104122500Y-89150000D03*
X104122500Y-90650000D03*
%TD*%
%TO.C,D16*%
X90312500Y-90650000D03*
X90312500Y-89150000D03*
X85112500Y-89150000D03*
X85112500Y-90650000D03*
%TD*%
M02*
