%TF.GenerationSoftware,KiCad,Pcbnew,9.0.6*%
%TF.CreationDate,2025-11-29T18:30:52-05:00*%
%TF.ProjectId,Generalist_Macro,47656e65-7261-46c6-9973-745f4d616372,rev?*%
%TF.SameCoordinates,Original*%
%TF.FileFunction,Copper,L2,Bot*%
%TF.FilePolarity,Positive*%
%FSLAX46Y46*%
G04 Gerber Fmt 4.6, Leading zero omitted, Abs format (unit mm)*
G04 Created by KiCad (PCBNEW 9.0.6) date 2025-11-29 18:30:52*
%MOMM*%
%LPD*%
G01*
G04 APERTURE LIST*
G04 Aperture macros list*
%AMRoundRect*
0 Rectangle with rounded corners*
0 $1 Rounding radius*
0 $2 $3 $4 $5 $6 $7 $8 $9 X,Y pos of 4 corners*
0 Add a 4 corners polygon primitive as box body*
4,1,4,$2,$3,$4,$5,$6,$7,$8,$9,$2,$3,0*
0 Add four circle primitives for the rounded corners*
1,1,$1+$1,$2,$3*
1,1,$1+$1,$4,$5*
1,1,$1+$1,$6,$7*
1,1,$1+$1,$8,$9*
0 Add four rect primitives between the rounded corners*
20,1,$1+$1,$2,$3,$4,$5,0*
20,1,$1+$1,$4,$5,$6,$7,0*
20,1,$1+$1,$6,$7,$8,$9,0*
20,1,$1+$1,$8,$9,$2,$3,0*%
G04 Aperture macros list end*
%TA.AperFunction,ComponentPad*%
%ADD10C,2.200000*%
%TD*%
%TA.AperFunction,SMDPad,CuDef*%
%ADD11RoundRect,0.082000X0.718000X-0.328000X0.718000X0.328000X-0.718000X0.328000X-0.718000X-0.328000X0*%
%TD*%
%TA.AperFunction,ComponentPad*%
%ADD12R,1.700000X1.700000*%
%TD*%
%TA.AperFunction,ComponentPad*%
%ADD13C,1.700000*%
%TD*%
%TA.AperFunction,ComponentPad*%
%ADD14R,2.000000X2.000000*%
%TD*%
%TA.AperFunction,ComponentPad*%
%ADD15C,2.000000*%
%TD*%
%TA.AperFunction,ComponentPad*%
%ADD16R,3.200000X2.000000*%
%TD*%
%TA.AperFunction,ComponentPad*%
%ADD17C,1.524000*%
%TD*%
%TA.AperFunction,ViaPad*%
%ADD18C,0.600000*%
%TD*%
%TA.AperFunction,Conductor*%
%ADD19C,0.200000*%
%TD*%
G04 APERTURE END LIST*
D10*
%TO.P,SW5,1,1*%
%TO.N,Net-(D5-A)*%
X84960000Y-94980000D03*
%TO.P,SW5,2,2*%
%TO.N,Column 1*%
X91310000Y-92440000D03*
%TD*%
%TO.P,SW1,1,1*%
%TO.N,Net-(D1-A)*%
X84950000Y-75780000D03*
%TO.P,SW1,2,2*%
%TO.N,Column 1*%
X91300000Y-73240000D03*
%TD*%
%TO.P,SW8,1,1*%
%TO.N,Net-(D8-A)*%
X142050000Y-94980000D03*
%TO.P,SW8,2,2*%
%TO.N,Column 4*%
X148400000Y-92440000D03*
%TD*%
D11*
%TO.P,D14,1,VDD*%
%TO.N,+5V*%
X128312500Y-90650000D03*
%TO.P,D14,2,DOUT*%
%TO.N,Net-(D14-DOUT)*%
X128312500Y-89150000D03*
%TO.P,D14,3,VSS*%
%TO.N,GND*%
X123112500Y-89150000D03*
%TO.P,D14,4,DIN*%
%TO.N,Net-(D13-DOUT)*%
X123112500Y-90650000D03*
%TD*%
D10*
%TO.P,SW7,1,1*%
%TO.N,Net-(D7-A)*%
X122960000Y-94980000D03*
%TO.P,SW7,2,2*%
%TO.N,Column 3*%
X129310000Y-92440000D03*
%TD*%
D12*
%TO.P,J1,1,Pin_1*%
%TO.N,SDA*%
X141190000Y-58000000D03*
D13*
%TO.P,J1,2,Pin_2*%
%TO.N,SCL*%
X143730000Y-58000000D03*
%TO.P,J1,3,Pin_3*%
%TO.N,+5V*%
X146270000Y-58000000D03*
%TO.P,J1,4,Pin_4*%
%TO.N,GND*%
X148810000Y-58000000D03*
%TD*%
D10*
%TO.P,SW2,1,1*%
%TO.N,Net-(D2-A)*%
X103960000Y-75780000D03*
%TO.P,SW2,2,2*%
%TO.N,Column 2*%
X110310000Y-73240000D03*
%TD*%
%TO.P,SW3,1,1*%
%TO.N,Net-(D3-A)*%
X122860000Y-75780000D03*
%TO.P,SW3,2,2*%
%TO.N,Column 3*%
X129210000Y-73240000D03*
%TD*%
D11*
%TO.P,D10,1,VDD*%
%TO.N,+5V*%
X90302500Y-71450000D03*
%TO.P,D10,2,DOUT*%
%TO.N,Net-(D10-DOUT)*%
X90302500Y-69950000D03*
%TO.P,D10,3,VSS*%
%TO.N,GND*%
X85102500Y-69950000D03*
%TO.P,D10,4,DIN*%
%TO.N,Net-(D10-DIN)*%
X85102500Y-71450000D03*
%TD*%
D10*
%TO.P,SW6,1,1*%
%TO.N,Net-(D6-A)*%
X103970000Y-94980000D03*
%TO.P,SW6,2,2*%
%TO.N,Column 2*%
X110320000Y-92440000D03*
%TD*%
D14*
%TO.P,SW13,A,A*%
%TO.N,Rotary A*%
X137750000Y-68200000D03*
D15*
%TO.P,SW13,B,B*%
%TO.N,Rotary B*%
X137750000Y-73200000D03*
%TO.P,SW13,C,C*%
%TO.N,GND*%
X137750000Y-70700000D03*
D16*
%TO.P,SW13,MP*%
%TO.N,N/C*%
X145250000Y-65100000D03*
X145250000Y-76300000D03*
D15*
%TO.P,SW13,S1,S1*%
%TO.N,Column 4*%
X152250000Y-73200000D03*
%TO.P,SW13,S2,S2*%
%TO.N,Net-(D4-A)*%
X152250000Y-68200000D03*
%TD*%
D11*
%TO.P,D11,1,VDD*%
%TO.N,+5V*%
X109312500Y-71450000D03*
%TO.P,D11,2,DOUT*%
%TO.N,Net-(D11-DOUT)*%
X109312500Y-69950000D03*
%TO.P,D11,3,VSS*%
%TO.N,GND*%
X104112500Y-69950000D03*
%TO.P,D11,4,DIN*%
%TO.N,Net-(D10-DOUT)*%
X104112500Y-71450000D03*
%TD*%
D17*
%TO.P,U1,1,GPIO26/ADC0/A0*%
%TO.N,Column 1*%
X57680000Y-56680000D03*
%TO.P,U1,2,GPIO27/ADC1/A1*%
%TO.N,Column 2*%
X57680000Y-59220000D03*
%TO.P,U1,3,GPIO28/ADC2/A2*%
%TO.N,Column 3*%
X57680000Y-61760000D03*
%TO.P,U1,4,GPIO29/ADC3/A3*%
%TO.N,Column 4*%
X57680000Y-64300000D03*
%TO.P,U1,5,GPIO6/SDA*%
%TO.N,SDA*%
X57680000Y-66840000D03*
%TO.P,U1,6,GPIO7/SCL*%
%TO.N,SCL*%
X57680000Y-69380000D03*
%TO.P,U1,7,GPIO0/TX*%
%TO.N,Row 1*%
X57680000Y-71920000D03*
%TO.P,U1,8,GPIO1/RX*%
%TO.N,Net-(D10-DIN)*%
X72920000Y-71920000D03*
%TO.P,U1,9,GPIO2/SCK*%
%TO.N,Row 2*%
X72920000Y-69380000D03*
%TO.P,U1,10,GPIO4/MISO*%
%TO.N,Rotary A*%
X72920000Y-66840000D03*
%TO.P,U1,11,GPIO3/MOSI*%
%TO.N,Rotary B*%
X72920000Y-64300000D03*
%TO.P,U1,12,3V3*%
%TO.N,unconnected-(U1-3V3-Pad12)*%
X72920000Y-61760000D03*
%TO.P,U1,13,GND*%
%TO.N,GND*%
X72920000Y-59220000D03*
%TO.P,U1,14,VBUS*%
%TO.N,+5V*%
X72920000Y-56680000D03*
%TD*%
D11*
%TO.P,D12,1,VDD*%
%TO.N,+5V*%
X128212500Y-71450000D03*
%TO.P,D12,2,DOUT*%
%TO.N,Net-(D12-DOUT)*%
X128212500Y-69950000D03*
%TO.P,D12,3,VSS*%
%TO.N,GND*%
X123012500Y-69950000D03*
%TO.P,D12,4,DIN*%
%TO.N,Net-(D11-DOUT)*%
X123012500Y-71450000D03*
%TD*%
%TO.P,D13,1,VDD*%
%TO.N,+5V*%
X147402500Y-90650000D03*
%TO.P,D13,2,DOUT*%
%TO.N,Net-(D13-DOUT)*%
X147402500Y-89150000D03*
%TO.P,D13,3,VSS*%
%TO.N,GND*%
X142202500Y-89150000D03*
%TO.P,D13,4,DIN*%
%TO.N,Net-(D12-DOUT)*%
X142202500Y-90650000D03*
%TD*%
%TO.P,D15,1,VDD*%
%TO.N,+5V*%
X109322500Y-90650000D03*
%TO.P,D15,2,DOUT*%
%TO.N,Net-(D15-DOUT)*%
X109322500Y-89150000D03*
%TO.P,D15,3,VSS*%
%TO.N,GND*%
X104122500Y-89150000D03*
%TO.P,D15,4,DIN*%
%TO.N,Net-(D14-DOUT)*%
X104122500Y-90650000D03*
%TD*%
%TO.P,D16,1,VDD*%
%TO.N,+5V*%
X90312500Y-90650000D03*
%TO.P,D16,2,DOUT*%
%TO.N,Net-(D16-DOUT)*%
X90312500Y-89150000D03*
%TO.P,D16,3,VSS*%
%TO.N,GND*%
X85112500Y-89150000D03*
%TO.P,D16,4,DIN*%
%TO.N,Net-(D15-DOUT)*%
X85112500Y-90650000D03*
%TD*%
D18*
%TO.N,Net-(D1-A)*%
X89500000Y-75800000D03*
X88300000Y-84500000D03*
X89500000Y-83300000D03*
X81800000Y-86700000D03*
X83900000Y-103000000D03*
%TO.N,Net-(D2-A)*%
X80600000Y-85900000D03*
X86500000Y-78600000D03*
X83900000Y-104200000D03*
%TO.N,Net-(D4-A)*%
X83900000Y-102000000D03*
X153900000Y-81300000D03*
X109600000Y-97400000D03*
X149100000Y-95000000D03*
%TO.N,Net-(D3-A)*%
X83900000Y-105000000D03*
X117500000Y-84975735D03*
X117500000Y-86900000D03*
X116675735Y-80924265D03*
%TO.N,Net-(D6-A)*%
X104000000Y-100700000D03*
%TO.N,Net-(D5-A)*%
X84100000Y-106235733D03*
%TO.N,Net-(D7-A)*%
X121200000Y-97800000D03*
%TO.N,Net-(D8-A)*%
X140600000Y-106600000D03*
X140300000Y-97300000D03*
%TO.N,Row 1*%
X78400000Y-85600000D03*
X56600000Y-74100000D03*
%TO.N,Row 2*%
X80000000Y-92300000D03*
X64500000Y-72100000D03*
%TO.N,+5V*%
X102400000Y-55100000D03*
X102400000Y-57000000D03*
X80400000Y-60200000D03*
X89600000Y-73300000D03*
X129510721Y-88493130D03*
X93900000Y-92000000D03*
X110196967Y-90039500D03*
%TO.N,GND*%
X160900000Y-73400000D03*
X121800000Y-85200000D03*
X102900000Y-85100000D03*
X140300000Y-86600000D03*
X129200000Y-58500000D03*
X103000000Y-86900000D03*
X110700000Y-58500000D03*
X121900000Y-87000000D03*
X141900000Y-86700000D03*
%TO.N,SDA*%
X111800000Y-60000000D03*
X90941000Y-60000000D03*
%TO.N,Net-(D16-DOUT)*%
X90200000Y-84200000D03*
%TO.N,SCL*%
X138800000Y-60000000D03*
X134800000Y-55800000D03*
%TO.N,Column 1*%
X91300000Y-81100000D03*
X82300000Y-80800000D03*
%TO.N,Column 2*%
X98000000Y-81700000D03*
X85400000Y-81700000D03*
%TO.N,Column 3*%
X85300000Y-82700000D03*
X98900000Y-82600000D03*
%TO.N,Rotary B*%
X79900000Y-61300000D03*
%TO.N,Rotary A*%
X80300000Y-62900000D03*
X96306985Y-62993015D03*
%TD*%
D19*
%TO.N,Net-(D1-A)*%
X88300000Y-84500000D02*
X89500000Y-83300000D01*
X89500000Y-75800000D02*
X89040000Y-75800000D01*
X89040000Y-75800000D02*
X89020000Y-75780000D01*
X89020000Y-75780000D02*
X84950000Y-75780000D01*
X81403000Y-100503000D02*
X81403000Y-92615470D01*
X83621000Y-90397470D02*
X83621000Y-88521000D01*
X81403000Y-92615470D02*
X83621000Y-90397470D01*
X83621000Y-88521000D02*
X81800000Y-86700000D01*
X83900000Y-103000000D02*
X81403000Y-100503000D01*
%TO.N,Net-(D2-A)*%
X83900000Y-104200000D02*
X81002000Y-101302000D01*
X81002000Y-101302000D02*
X81002000Y-86302000D01*
X86500000Y-78600000D02*
X101140000Y-78600000D01*
X81002000Y-86302000D02*
X80600000Y-85900000D01*
X101140000Y-78600000D02*
X103960000Y-75780000D01*
%TO.N,Net-(D4-A)*%
X93620314Y-101659000D02*
X105341000Y-101659000D01*
X153900000Y-90200000D02*
X153900000Y-81300000D01*
X105341000Y-101659000D02*
X109600000Y-97400000D01*
X149100000Y-95000000D02*
X153900000Y-90200000D01*
X85540314Y-93579000D02*
X93620314Y-101659000D01*
X83559000Y-101659000D02*
X83559000Y-94399686D01*
X83900000Y-102000000D02*
X83559000Y-101659000D01*
X83559000Y-94399686D02*
X84379686Y-93579000D01*
X84379686Y-93579000D02*
X85540314Y-93579000D01*
%TO.N,Net-(D3-A)*%
X117500000Y-84975735D02*
X117500000Y-81748530D01*
X83851057Y-106836733D02*
X101330367Y-106836733D01*
X83900000Y-105000000D02*
X83499000Y-105401000D01*
X83499000Y-105401000D02*
X83499000Y-106484676D01*
X101330367Y-106836733D02*
X117500000Y-90667100D01*
X117500000Y-81748530D02*
X116675735Y-80924265D01*
X117500000Y-90667100D02*
X117500000Y-86900000D01*
X83499000Y-106484676D02*
X83851057Y-106836733D01*
%TO.N,Net-(D6-A)*%
X104000000Y-100700000D02*
X104000000Y-100200000D01*
X104000000Y-100200000D02*
X103970000Y-100170000D01*
X103970000Y-100170000D02*
X103970000Y-94980000D01*
%TO.N,Net-(D5-A)*%
X84100000Y-106235733D02*
X84960000Y-105375733D01*
X84960000Y-105375733D02*
X84960000Y-94980000D01*
%TO.N,Net-(D7-A)*%
X121200000Y-97800000D02*
X121200000Y-96740000D01*
X121200000Y-96740000D02*
X122960000Y-94980000D01*
%TO.N,Net-(D8-A)*%
X140600000Y-97600000D02*
X140300000Y-97300000D01*
X140600000Y-106600000D02*
X140600000Y-97600000D01*
%TO.N,Row 1*%
X80248943Y-92901000D02*
X78661000Y-92901000D01*
X78661000Y-92901000D02*
X57680000Y-71920000D01*
X78400000Y-85600000D02*
X80601000Y-87801000D01*
X80601000Y-87801000D02*
X80601000Y-92548943D01*
X80601000Y-92548943D02*
X80248943Y-92901000D01*
X56600000Y-74100000D02*
X56600000Y-73000000D01*
X56600000Y-73000000D02*
X57680000Y-71920000D01*
%TO.N,Row 2*%
X80000000Y-92300000D02*
X65900000Y-78200000D01*
X67220000Y-69380000D02*
X69500000Y-69380000D01*
X65900000Y-78200000D02*
X65900000Y-73200000D01*
X65900000Y-73200000D02*
X69500000Y-69600000D01*
X69500000Y-69600000D02*
X69500000Y-69380000D01*
X69500000Y-69380000D02*
X71456000Y-69380000D01*
X64500000Y-72100000D02*
X67220000Y-69380000D01*
%TO.N,+5V*%
X147402500Y-91456186D02*
X147402500Y-90650000D01*
X93900000Y-92000000D02*
X92851314Y-92000000D01*
X107300000Y-73100000D02*
X108841000Y-74641000D01*
X108468686Y-73100000D02*
X109312500Y-72256186D01*
X146300000Y-92558686D02*
X147402500Y-91456186D01*
X89600000Y-73300000D02*
X89600000Y-72958686D01*
X107300000Y-73100000D02*
X108468686Y-73100000D01*
X127068686Y-73400000D02*
X128212500Y-72256186D01*
X89600000Y-73300000D02*
X89600000Y-73521314D01*
X89600000Y-72958686D02*
X90302500Y-72256186D01*
X110196967Y-90039500D02*
X110196966Y-90039501D01*
X72920000Y-56680000D02*
X76880000Y-56680000D01*
X76880000Y-56680000D02*
X80400000Y-60200000D01*
X131781000Y-89402530D02*
X131781000Y-90000000D01*
X109932999Y-90039501D02*
X109322500Y-90650000D01*
X131781000Y-90397470D02*
X131077470Y-91101000D01*
X134381000Y-92600000D02*
X146300000Y-92600000D01*
X131781000Y-90000000D02*
X131781000Y-90397470D01*
X93421314Y-73100000D02*
X107300000Y-73100000D01*
X123258686Y-73400000D02*
X127068686Y-73400000D01*
X91501314Y-90650000D02*
X90312500Y-90650000D01*
X131077470Y-91101000D02*
X130082530Y-91101000D01*
X91880314Y-74641000D02*
X93421314Y-73100000D01*
X146300000Y-92600000D02*
X146300000Y-92558686D01*
X128212500Y-72256186D02*
X128212500Y-71450000D01*
X102400000Y-55100000D02*
X102400000Y-57000000D01*
X109312500Y-72256186D02*
X109312500Y-71450000D01*
X89600000Y-73521314D02*
X90719686Y-74641000D01*
X122017686Y-74641000D02*
X123258686Y-73400000D01*
X90719686Y-74641000D02*
X91880314Y-74641000D01*
X108841000Y-74641000D02*
X122017686Y-74641000D01*
X90302500Y-72256186D02*
X90302500Y-71450000D01*
X129631530Y-90650000D02*
X128312500Y-90650000D01*
X92851314Y-92000000D02*
X91501314Y-90650000D01*
X129510721Y-88493130D02*
X130871600Y-88493130D01*
X131781000Y-90000000D02*
X134381000Y-92600000D01*
X110196966Y-90039501D02*
X109932999Y-90039501D01*
X130082530Y-91101000D02*
X129631530Y-90650000D01*
X130871600Y-88493130D02*
X131781000Y-89402530D01*
%TO.N,GND*%
X129173750Y-62123750D02*
X137750000Y-70700000D01*
X103200000Y-87100000D02*
X103200000Y-88227500D01*
X110700000Y-62123750D02*
X110700000Y-58500000D01*
X142202500Y-87002500D02*
X142202500Y-87100000D01*
X96200000Y-62123750D02*
X96286250Y-62123750D01*
X116850000Y-80250000D02*
X121800000Y-85200000D01*
X141900000Y-86700000D02*
X142202500Y-87002500D01*
X72920000Y-59220000D02*
X74372500Y-59220000D01*
X103200000Y-88227500D02*
X104122500Y-89150000D01*
X147200000Y-87100000D02*
X160900000Y-73400000D01*
X115186250Y-62123750D02*
X129173750Y-62123750D01*
X76081250Y-80118750D02*
X97918750Y-80118750D01*
X121900000Y-87000000D02*
X122200000Y-87300000D01*
X77276250Y-62123750D02*
X89300000Y-62123750D01*
X129173750Y-62123750D02*
X129173750Y-58526250D01*
X71857000Y-75894500D02*
X76081250Y-80118750D01*
X72920000Y-59220000D02*
X71857000Y-60283000D01*
X129173750Y-58526250D02*
X129200000Y-58500000D01*
X122200000Y-88237500D02*
X123112500Y-89150000D01*
X142202500Y-87100000D02*
X142202500Y-89150000D01*
X103000000Y-86900000D02*
X103200000Y-87100000D01*
X129173750Y-62123750D02*
X144686250Y-62123750D01*
X71857000Y-60283000D02*
X71857000Y-75894500D01*
X122200000Y-87300000D02*
X122200000Y-88237500D01*
X74372500Y-59220000D02*
X77276250Y-62123750D01*
X96200000Y-62123750D02*
X110700000Y-62123750D01*
X133950000Y-80250000D02*
X140300000Y-86600000D01*
X89300000Y-62123750D02*
X96200000Y-62123750D01*
X77276250Y-62123750D02*
X85102500Y-69950000D01*
X142202500Y-87100000D02*
X147200000Y-87100000D01*
X110700000Y-62123750D02*
X115186250Y-62123750D01*
X97918750Y-80118750D02*
X98050000Y-80250000D01*
X98050000Y-80250000D02*
X102900000Y-85100000D01*
X98050000Y-80250000D02*
X116850000Y-80250000D01*
X76081250Y-80118750D02*
X85112500Y-89150000D01*
X115186250Y-62123750D02*
X123012500Y-69950000D01*
X96286250Y-62123750D02*
X104112500Y-69950000D01*
X116850000Y-80250000D02*
X133950000Y-80250000D01*
X144686250Y-62123750D02*
X148810000Y-58000000D01*
%TO.N,SDA*%
X113901000Y-57899000D02*
X111800000Y-60000000D01*
X57239690Y-70443000D02*
X56617000Y-69820310D01*
X58120310Y-70443000D02*
X57239690Y-70443000D01*
X72065690Y-55617000D02*
X58743000Y-68939690D01*
X141089000Y-57899000D02*
X113901000Y-57899000D01*
X141190000Y-58000000D02*
X141089000Y-57899000D01*
X56617000Y-69820310D02*
X56617000Y-67903000D01*
X90941000Y-60000000D02*
X86558000Y-55617000D01*
X86558000Y-55617000D02*
X72065690Y-55617000D01*
X56617000Y-67903000D02*
X57680000Y-66840000D01*
X58743000Y-68939690D02*
X58743000Y-69820310D01*
X58743000Y-69820310D02*
X58120310Y-70443000D01*
%TO.N,Net-(D6-A)*%
X104220000Y-94980000D02*
X104300000Y-94900000D01*
%TO.N,Net-(D10-DIN)*%
X72920000Y-71920000D02*
X84632500Y-71920000D01*
X84632500Y-71920000D02*
X85102500Y-71450000D01*
%TO.N,Net-(D10-DOUT)*%
X90753500Y-69499000D02*
X101917470Y-69499000D01*
X103868470Y-71450000D02*
X104112500Y-71450000D01*
X101917470Y-69499000D02*
X103868470Y-71450000D01*
X90302500Y-69950000D02*
X90753500Y-69499000D01*
%TO.N,Net-(D11-DOUT)*%
X122768470Y-71450000D02*
X123012500Y-71450000D01*
X109763500Y-69499000D02*
X120817470Y-69499000D01*
X120817470Y-69499000D02*
X122768470Y-71450000D01*
X109312500Y-69950000D02*
X109763500Y-69499000D01*
%TO.N,Net-(D12-DOUT)*%
X141101500Y-90349000D02*
X141402500Y-90650000D01*
X130977470Y-69499000D02*
X141101500Y-79623030D01*
X128663500Y-69499000D02*
X130977470Y-69499000D01*
X141101500Y-79623030D02*
X141101500Y-90349000D01*
X141402500Y-90650000D02*
X142202500Y-90650000D01*
X128212500Y-69950000D02*
X128663500Y-69499000D01*
%TO.N,Net-(D13-DOUT)*%
X150167470Y-88699000D02*
X150871000Y-89402530D01*
X147853500Y-88699000D02*
X150167470Y-88699000D01*
X123000000Y-91900000D02*
X123112500Y-91787500D01*
X150871000Y-89402530D02*
X150871000Y-91950314D01*
X150871000Y-91950314D02*
X146440314Y-96381000D01*
X123112500Y-91787500D02*
X123112500Y-90650000D01*
X146440314Y-96381000D02*
X127481000Y-96381000D01*
X127481000Y-96381000D02*
X123000000Y-91900000D01*
X147402500Y-89150000D02*
X147853500Y-88699000D01*
%TO.N,Net-(D14-DOUT)*%
X126600000Y-86300000D02*
X114500000Y-86300000D01*
X104122500Y-92322500D02*
X104122500Y-90650000D01*
X107500000Y-95700000D02*
X104122500Y-92322500D01*
X114500000Y-86300000D02*
X114500000Y-93100000D01*
X111900000Y-95700000D02*
X107500000Y-95700000D01*
X128312500Y-89150000D02*
X128312500Y-88012500D01*
X128312500Y-88012500D02*
X126600000Y-86300000D01*
X114500000Y-93100000D02*
X111900000Y-95700000D01*
%TO.N,Net-(D15-DOUT)*%
X109200000Y-86100000D02*
X98500000Y-86100000D01*
X85300000Y-92900000D02*
X85112500Y-92712500D01*
X85112500Y-92712500D02*
X85112500Y-90650000D01*
X109322500Y-86222500D02*
X109200000Y-86100000D01*
X94800000Y-86100000D02*
X94800000Y-94600000D01*
X94800000Y-94600000D02*
X92500000Y-96900000D01*
X98500000Y-86100000D02*
X94800000Y-86100000D01*
X88500000Y-92900000D02*
X85300000Y-92900000D01*
X92500000Y-96900000D02*
X88500000Y-92900000D01*
X109322500Y-89150000D02*
X109322500Y-86222500D01*
%TO.N,Net-(D16-DOUT)*%
X90300000Y-89137500D02*
X90300000Y-89100000D01*
X90312500Y-84312500D02*
X90200000Y-84200000D01*
X90312500Y-89150000D02*
X90312500Y-84312500D01*
X90312500Y-89150000D02*
X90300000Y-89137500D01*
%TO.N,SCL*%
X143100000Y-60000000D02*
X143730000Y-59370000D01*
X143730000Y-59370000D02*
X143730000Y-58000000D01*
X72561000Y-54499000D02*
X133499000Y-54499000D01*
X133499000Y-54499000D02*
X134800000Y-55800000D01*
X57680000Y-69380000D02*
X72561000Y-54499000D01*
X138800000Y-60000000D02*
X143100000Y-60000000D01*
%TO.N,Column 1*%
X82300000Y-80800000D02*
X91000000Y-80800000D01*
X91000000Y-80800000D02*
X91300000Y-81100000D01*
%TO.N,Column 2*%
X85400000Y-81700000D02*
X98000000Y-81700000D01*
%TO.N,Column 3*%
X85300000Y-82700000D02*
X98800000Y-82700000D01*
X98800000Y-82700000D02*
X98900000Y-82600000D01*
%TO.N,Rotary B*%
X149961000Y-58476760D02*
X145913010Y-62524750D01*
X111501057Y-56849000D02*
X149286760Y-56849000D01*
X107050057Y-61300000D02*
X111501057Y-56849000D01*
X79900000Y-61300000D02*
X107050057Y-61300000D01*
X149286760Y-56849000D02*
X149961000Y-57523240D01*
X139051000Y-71899000D02*
X137750000Y-73200000D01*
X139051000Y-66899000D02*
X139051000Y-71899000D01*
X149961000Y-57523240D02*
X149961000Y-58476760D01*
X143425250Y-62524750D02*
X139051000Y-66899000D01*
X145913010Y-62524750D02*
X143425250Y-62524750D01*
%TO.N,Rotary A*%
X96213970Y-62900000D02*
X96306985Y-62993015D01*
X80300000Y-62900000D02*
X96213970Y-62900000D01*
%TD*%
M02*
