%TF.GenerationSoftware,KiCad,Pcbnew,9.0.6*%
%TF.CreationDate,2025-11-29T18:30:53-05:00*%
%TF.ProjectId,Generalist_Macro,47656e65-7261-46c6-9973-745f4d616372,rev?*%
%TF.SameCoordinates,Original*%
%TF.FileFunction,Profile,NP*%
%FSLAX46Y46*%
G04 Gerber Fmt 4.6, Leading zero omitted, Abs format (unit mm)*
G04 Created by KiCad (PCBNEW 9.0.6) date 2025-11-29 18:30:53*
%MOMM*%
%LPD*%
G01*
G04 APERTURE LIST*
%TA.AperFunction,Profile*%
%ADD10C,0.050000*%
%TD*%
%TA.AperFunction,Profile*%
%ADD11C,0.100000*%
%TD*%
G04 APERTURE END LIST*
D10*
X55128190Y-53836733D02*
X162028190Y-53836733D01*
X162028190Y-107436733D01*
X55128190Y-107436733D01*
X55128190Y-53836733D01*
D11*
%TO.C,D14*%
X124012501Y-90602842D02*
X124012501Y-89197158D01*
X124918048Y-88400000D02*
X126506952Y-88400000D01*
X126506952Y-91399999D02*
X124918047Y-91399999D01*
X127412499Y-89197158D02*
X127412499Y-90602842D01*
X123963016Y-88980280D02*
G75*
G02*
X124012501Y-89197158I-450505J-216876D01*
G01*
X123963016Y-88980281D02*
G75*
G02*
X124665789Y-88331701I450514J216880D01*
G01*
X124012501Y-90602843D02*
G75*
G02*
X123963016Y-90819720I-499990J-1D01*
G01*
X124665789Y-91468298D02*
G75*
G02*
X123963016Y-90819720I-252258J431701D01*
G01*
X124665789Y-91468298D02*
G75*
G02*
X124918047Y-91399999I252261J-431710D01*
G01*
X124918048Y-88400000D02*
G75*
G02*
X124665789Y-88331701I2J500009D01*
G01*
X126506953Y-91400000D02*
G75*
G02*
X126759211Y-91468299I-3J-500010D01*
G01*
X126759210Y-88331701D02*
G75*
G02*
X126506952Y-88399999I-252260J431711D01*
G01*
X126759211Y-88331703D02*
G75*
G02*
X127461981Y-88980279I252259J-431697D01*
G01*
X127412499Y-89197157D02*
G75*
G02*
X127461982Y-88980279I500031J-3D01*
G01*
X127461984Y-90819720D02*
G75*
G02*
X126759210Y-91468300I-450514J-216880D01*
G01*
X127461984Y-90819720D02*
G75*
G02*
X127412495Y-90602842I450216J216820D01*
G01*
%TO.C,D10*%
X86002501Y-71402842D02*
X86002501Y-69997158D01*
X86908048Y-69200000D02*
X88496952Y-69200000D01*
X88496952Y-72199999D02*
X86908047Y-72199999D01*
X89402499Y-69997158D02*
X89402499Y-71402842D01*
X85953016Y-69780280D02*
G75*
G02*
X86002501Y-69997158I-450505J-216876D01*
G01*
X85953016Y-69780281D02*
G75*
G02*
X86655789Y-69131701I450514J216880D01*
G01*
X86002501Y-71402843D02*
G75*
G02*
X85953016Y-71619720I-499990J-1D01*
G01*
X86655789Y-72268298D02*
G75*
G02*
X85953016Y-71619720I-252258J431701D01*
G01*
X86655789Y-72268298D02*
G75*
G02*
X86908047Y-72199999I252261J-431710D01*
G01*
X86908048Y-69200000D02*
G75*
G02*
X86655789Y-69131701I2J500009D01*
G01*
X88496953Y-72200000D02*
G75*
G02*
X88749211Y-72268299I-3J-500010D01*
G01*
X88749210Y-69131701D02*
G75*
G02*
X88496952Y-69199999I-252260J431711D01*
G01*
X88749211Y-69131703D02*
G75*
G02*
X89451981Y-69780279I252259J-431697D01*
G01*
X89402499Y-69997157D02*
G75*
G02*
X89451982Y-69780279I500031J-3D01*
G01*
X89451984Y-71619720D02*
G75*
G02*
X88749210Y-72268300I-450514J-216880D01*
G01*
X89451984Y-71619720D02*
G75*
G02*
X89402495Y-71402842I450216J216820D01*
G01*
%TO.C,D11*%
X105012501Y-71402842D02*
X105012501Y-69997158D01*
X105918048Y-69200000D02*
X107506952Y-69200000D01*
X107506952Y-72199999D02*
X105918047Y-72199999D01*
X108412499Y-69997158D02*
X108412499Y-71402842D01*
X104963016Y-69780280D02*
G75*
G02*
X105012501Y-69997158I-450505J-216876D01*
G01*
X104963016Y-69780281D02*
G75*
G02*
X105665789Y-69131701I450514J216880D01*
G01*
X105012501Y-71402843D02*
G75*
G02*
X104963016Y-71619720I-499990J-1D01*
G01*
X105665789Y-72268298D02*
G75*
G02*
X104963016Y-71619720I-252258J431701D01*
G01*
X105665789Y-72268298D02*
G75*
G02*
X105918047Y-72199999I252261J-431710D01*
G01*
X105918048Y-69200000D02*
G75*
G02*
X105665789Y-69131701I2J500009D01*
G01*
X107506953Y-72200000D02*
G75*
G02*
X107759211Y-72268299I-3J-500010D01*
G01*
X107759210Y-69131701D02*
G75*
G02*
X107506952Y-69199999I-252260J431711D01*
G01*
X107759211Y-69131703D02*
G75*
G02*
X108461981Y-69780279I252259J-431697D01*
G01*
X108412499Y-69997157D02*
G75*
G02*
X108461982Y-69780279I500031J-3D01*
G01*
X108461984Y-71619720D02*
G75*
G02*
X107759210Y-72268300I-450514J-216880D01*
G01*
X108461984Y-71619720D02*
G75*
G02*
X108412495Y-71402842I450216J216820D01*
G01*
%TO.C,D12*%
X123912501Y-71402842D02*
X123912501Y-69997158D01*
X124818048Y-69200000D02*
X126406952Y-69200000D01*
X126406952Y-72199999D02*
X124818047Y-72199999D01*
X127312499Y-69997158D02*
X127312499Y-71402842D01*
X123863016Y-69780280D02*
G75*
G02*
X123912501Y-69997158I-450505J-216876D01*
G01*
X123863016Y-69780281D02*
G75*
G02*
X124565789Y-69131701I450514J216880D01*
G01*
X123912501Y-71402843D02*
G75*
G02*
X123863016Y-71619720I-499990J-1D01*
G01*
X124565789Y-72268298D02*
G75*
G02*
X123863016Y-71619720I-252258J431701D01*
G01*
X124565789Y-72268298D02*
G75*
G02*
X124818047Y-72199999I252261J-431710D01*
G01*
X124818048Y-69200000D02*
G75*
G02*
X124565789Y-69131701I2J500009D01*
G01*
X126406953Y-72200000D02*
G75*
G02*
X126659211Y-72268299I-3J-500010D01*
G01*
X126659210Y-69131701D02*
G75*
G02*
X126406952Y-69199999I-252260J431711D01*
G01*
X126659211Y-69131703D02*
G75*
G02*
X127361981Y-69780279I252259J-431697D01*
G01*
X127312499Y-69997157D02*
G75*
G02*
X127361982Y-69780279I500031J-3D01*
G01*
X127361984Y-71619720D02*
G75*
G02*
X126659210Y-72268300I-450514J-216880D01*
G01*
X127361984Y-71619720D02*
G75*
G02*
X127312495Y-71402842I450216J216820D01*
G01*
%TO.C,D13*%
X143102501Y-90602842D02*
X143102501Y-89197158D01*
X144008048Y-88400000D02*
X145596952Y-88400000D01*
X145596952Y-91399999D02*
X144008047Y-91399999D01*
X146502499Y-89197158D02*
X146502499Y-90602842D01*
X143053016Y-88980280D02*
G75*
G02*
X143102501Y-89197158I-450505J-216876D01*
G01*
X143053016Y-88980281D02*
G75*
G02*
X143755789Y-88331701I450514J216880D01*
G01*
X143102501Y-90602843D02*
G75*
G02*
X143053016Y-90819720I-499990J-1D01*
G01*
X143755789Y-91468298D02*
G75*
G02*
X143053016Y-90819720I-252258J431701D01*
G01*
X143755789Y-91468298D02*
G75*
G02*
X144008047Y-91399999I252261J-431710D01*
G01*
X144008048Y-88400000D02*
G75*
G02*
X143755789Y-88331701I2J500009D01*
G01*
X145596953Y-91400000D02*
G75*
G02*
X145849211Y-91468299I-3J-500010D01*
G01*
X145849210Y-88331701D02*
G75*
G02*
X145596952Y-88399999I-252260J431711D01*
G01*
X145849211Y-88331703D02*
G75*
G02*
X146551981Y-88980279I252259J-431697D01*
G01*
X146502499Y-89197157D02*
G75*
G02*
X146551982Y-88980279I500031J-3D01*
G01*
X146551984Y-90819720D02*
G75*
G02*
X145849210Y-91468300I-450514J-216880D01*
G01*
X146551984Y-90819720D02*
G75*
G02*
X146502495Y-90602842I450216J216820D01*
G01*
%TO.C,D15*%
X105022501Y-90602842D02*
X105022501Y-89197158D01*
X105928048Y-88400000D02*
X107516952Y-88400000D01*
X107516952Y-91399999D02*
X105928047Y-91399999D01*
X108422499Y-89197158D02*
X108422499Y-90602842D01*
X104973016Y-88980280D02*
G75*
G02*
X105022501Y-89197158I-450505J-216876D01*
G01*
X104973016Y-88980281D02*
G75*
G02*
X105675789Y-88331701I450514J216880D01*
G01*
X105022501Y-90602843D02*
G75*
G02*
X104973016Y-90819720I-499990J-1D01*
G01*
X105675789Y-91468298D02*
G75*
G02*
X104973016Y-90819720I-252258J431701D01*
G01*
X105675789Y-91468298D02*
G75*
G02*
X105928047Y-91399999I252261J-431710D01*
G01*
X105928048Y-88400000D02*
G75*
G02*
X105675789Y-88331701I2J500009D01*
G01*
X107516953Y-91400000D02*
G75*
G02*
X107769211Y-91468299I-3J-500010D01*
G01*
X107769210Y-88331701D02*
G75*
G02*
X107516952Y-88399999I-252260J431711D01*
G01*
X107769211Y-88331703D02*
G75*
G02*
X108471981Y-88980279I252259J-431697D01*
G01*
X108422499Y-89197157D02*
G75*
G02*
X108471982Y-88980279I500031J-3D01*
G01*
X108471984Y-90819720D02*
G75*
G02*
X107769210Y-91468300I-450514J-216880D01*
G01*
X108471984Y-90819720D02*
G75*
G02*
X108422495Y-90602842I450216J216820D01*
G01*
%TO.C,D16*%
X86012501Y-90602842D02*
X86012501Y-89197158D01*
X86918048Y-88400000D02*
X88506952Y-88400000D01*
X88506952Y-91399999D02*
X86918047Y-91399999D01*
X89412499Y-89197158D02*
X89412499Y-90602842D01*
X85963016Y-88980280D02*
G75*
G02*
X86012501Y-89197158I-450505J-216876D01*
G01*
X85963016Y-88980281D02*
G75*
G02*
X86665789Y-88331701I450514J216880D01*
G01*
X86012501Y-90602843D02*
G75*
G02*
X85963016Y-90819720I-499990J-1D01*
G01*
X86665789Y-91468298D02*
G75*
G02*
X85963016Y-90819720I-252258J431701D01*
G01*
X86665789Y-91468298D02*
G75*
G02*
X86918047Y-91399999I252261J-431710D01*
G01*
X86918048Y-88400000D02*
G75*
G02*
X86665789Y-88331701I2J500009D01*
G01*
X88506953Y-91400000D02*
G75*
G02*
X88759211Y-91468299I-3J-500010D01*
G01*
X88759210Y-88331701D02*
G75*
G02*
X88506952Y-88399999I-252260J431711D01*
G01*
X88759211Y-88331703D02*
G75*
G02*
X89461981Y-88980279I252259J-431697D01*
G01*
X89412499Y-89197157D02*
G75*
G02*
X89461982Y-88980279I500031J-3D01*
G01*
X89461984Y-90819720D02*
G75*
G02*
X88759210Y-91468300I-450514J-216880D01*
G01*
X89461984Y-90819720D02*
G75*
G02*
X89412495Y-90602842I450216J216820D01*
G01*
%TD*%
M02*
