%TF.GenerationSoftware,KiCad,Pcbnew,9.0.6*%
%TF.CreationDate,2025-11-29T18:30:52-05:00*%
%TF.ProjectId,Generalist_Macro,47656e65-7261-46c6-9973-745f4d616372,rev?*%
%TF.SameCoordinates,Original*%
%TF.FileFunction,Copper,L1,Top*%
%TF.FilePolarity,Positive*%
%FSLAX46Y46*%
G04 Gerber Fmt 4.6, Leading zero omitted, Abs format (unit mm)*
G04 Created by KiCad (PCBNEW 9.0.6) date 2025-11-29 18:30:52*
%MOMM*%
%LPD*%
G01*
G04 APERTURE LIST*
G04 Aperture macros list*
%AMRoundRect*
0 Rectangle with rounded corners*
0 $1 Rounding radius*
0 $2 $3 $4 $5 $6 $7 $8 $9 X,Y pos of 4 corners*
0 Add a 4 corners polygon primitive as box body*
4,1,4,$2,$3,$4,$5,$6,$7,$8,$9,$2,$3,0*
0 Add four circle primitives for the rounded corners*
1,1,$1+$1,$2,$3*
1,1,$1+$1,$4,$5*
1,1,$1+$1,$6,$7*
1,1,$1+$1,$8,$9*
0 Add four rect primitives between the rounded corners*
20,1,$1+$1,$2,$3,$4,$5,0*
20,1,$1+$1,$4,$5,$6,$7,0*
20,1,$1+$1,$6,$7,$8,$9,0*
20,1,$1+$1,$8,$9,$2,$3,0*%
G04 Aperture macros list end*
%TA.AperFunction,ComponentPad*%
%ADD10C,2.200000*%
%TD*%
%TA.AperFunction,SMDPad,CuDef*%
%ADD11R,1.600000X0.850000*%
%TD*%
%TA.AperFunction,SMDPad,CuDef*%
%ADD12RoundRect,0.150000X-0.150000X-0.200000X0.150000X-0.200000X0.150000X0.200000X-0.150000X0.200000X0*%
%TD*%
%TA.AperFunction,ComponentPad*%
%ADD13R,1.700000X1.700000*%
%TD*%
%TA.AperFunction,ComponentPad*%
%ADD14C,1.700000*%
%TD*%
%TA.AperFunction,SMDPad,CuDef*%
%ADD15RoundRect,0.150000X0.150000X0.200000X-0.150000X0.200000X-0.150000X-0.200000X0.150000X-0.200000X0*%
%TD*%
%TA.AperFunction,ComponentPad*%
%ADD16R,2.000000X2.000000*%
%TD*%
%TA.AperFunction,ComponentPad*%
%ADD17C,2.000000*%
%TD*%
%TA.AperFunction,ComponentPad*%
%ADD18R,3.200000X2.000000*%
%TD*%
%TA.AperFunction,SMDPad,CuDef*%
%ADD19RoundRect,0.152400X1.063600X0.609600X-1.063600X0.609600X-1.063600X-0.609600X1.063600X-0.609600X0*%
%TD*%
%TA.AperFunction,ComponentPad*%
%ADD20C,1.524000*%
%TD*%
%TA.AperFunction,SMDPad,CuDef*%
%ADD21RoundRect,0.152400X-1.063600X-0.609600X1.063600X-0.609600X1.063600X0.609600X-1.063600X0.609600X0*%
%TD*%
%TA.AperFunction,ViaPad*%
%ADD22C,0.600000*%
%TD*%
%TA.AperFunction,Conductor*%
%ADD23C,0.200000*%
%TD*%
G04 APERTURE END LIST*
D10*
%TO.P,SW5,1,1*%
%TO.N,Net-(D5-A)*%
X84960000Y-94980000D03*
%TO.P,SW5,2,2*%
%TO.N,Column 1*%
X91310000Y-92440000D03*
%TD*%
D11*
%TO.P,D18,1,VDD*%
%TO.N,+5V*%
X104750000Y-56725000D03*
%TO.P,D18,2,DOUT*%
%TO.N,Net-(D18-DOUT)*%
X104750000Y-58475000D03*
%TO.P,D18,3,VSS*%
%TO.N,GND*%
X108250000Y-58475000D03*
%TO.P,D18,4,DIN*%
%TO.N,Net-(D17-DOUT)*%
X108250000Y-56725000D03*
%TD*%
D10*
%TO.P,SW1,1,1*%
%TO.N,Net-(D1-A)*%
X84950000Y-75780000D03*
%TO.P,SW1,2,2*%
%TO.N,Column 1*%
X91300000Y-73240000D03*
%TD*%
D11*
%TO.P,D24,1,VDD*%
%TO.N,+5V*%
X104810000Y-102400000D03*
%TO.P,D24,2,DOUT*%
%TO.N,Net-(D24-DOUT)*%
X104810000Y-104150000D03*
%TO.P,D24,3,VSS*%
%TO.N,GND*%
X108310000Y-104150000D03*
%TO.P,D24,4,DIN*%
%TO.N,Net-(D23-DOUT)*%
X108310000Y-102400000D03*
%TD*%
D10*
%TO.P,SW8,1,1*%
%TO.N,Net-(D8-A)*%
X142050000Y-94980000D03*
%TO.P,SW8,2,2*%
%TO.N,Column 4*%
X148400000Y-92440000D03*
%TD*%
%TO.P,SW7,1,1*%
%TO.N,Net-(D7-A)*%
X122960000Y-94980000D03*
%TO.P,SW7,2,2*%
%TO.N,Column 3*%
X129310000Y-92440000D03*
%TD*%
D11*
%TO.P,D22,1,VDD*%
%TO.N,+5V*%
X142890000Y-102400000D03*
%TO.P,D22,2,DOUT*%
%TO.N,Net-(D22-DOUT)*%
X142890000Y-104150000D03*
%TO.P,D22,3,VSS*%
%TO.N,GND*%
X146390000Y-104150000D03*
%TO.P,D22,4,DIN*%
%TO.N,Net-(D21-DOUT)*%
X146390000Y-102400000D03*
%TD*%
D12*
%TO.P,D7,1,K*%
%TO.N,Row 2*%
X70750000Y-99331500D03*
%TO.P,D7,2,A*%
%TO.N,Net-(D7-A)*%
X69350000Y-99331500D03*
%TD*%
D11*
%TO.P,D23,1,VDD*%
%TO.N,+5V*%
X123800000Y-102400000D03*
%TO.P,D23,2,DOUT*%
%TO.N,Net-(D23-DOUT)*%
X123800000Y-104150000D03*
%TO.P,D23,3,VSS*%
%TO.N,GND*%
X127300000Y-104150000D03*
%TO.P,D23,4,DIN*%
%TO.N,Net-(D22-DOUT)*%
X127300000Y-102400000D03*
%TD*%
D13*
%TO.P,J1,1,Pin_1*%
%TO.N,SDA*%
X141190000Y-58000000D03*
D14*
%TO.P,J1,2,Pin_2*%
%TO.N,SCL*%
X143730000Y-58000000D03*
%TO.P,J1,3,Pin_3*%
%TO.N,+5V*%
X146270000Y-58000000D03*
%TO.P,J1,4,Pin_4*%
%TO.N,GND*%
X148810000Y-58000000D03*
%TD*%
D15*
%TO.P,D3,1,K*%
%TO.N,Row 1*%
X59850000Y-85531500D03*
%TO.P,D3,2,A*%
%TO.N,Net-(D3-A)*%
X61250000Y-85531500D03*
%TD*%
D11*
%TO.P,D25,1,VDD*%
%TO.N,+5V*%
X85800000Y-102400000D03*
%TO.P,D25,2,DOUT*%
%TO.N,unconnected-(D25-DOUT-Pad2)*%
X85800000Y-104150000D03*
%TO.P,D25,3,VSS*%
%TO.N,GND*%
X89300000Y-104150000D03*
%TO.P,D25,4,DIN*%
%TO.N,Net-(D24-DOUT)*%
X89300000Y-102400000D03*
%TD*%
D10*
%TO.P,SW2,1,1*%
%TO.N,Net-(D2-A)*%
X103960000Y-75780000D03*
%TO.P,SW2,2,2*%
%TO.N,Column 2*%
X110310000Y-73240000D03*
%TD*%
%TO.P,SW3,1,1*%
%TO.N,Net-(D3-A)*%
X122860000Y-75780000D03*
%TO.P,SW3,2,2*%
%TO.N,Column 3*%
X129210000Y-73240000D03*
%TD*%
D11*
%TO.P,D17,1,VDD*%
%TO.N,+5V*%
X85740000Y-56725000D03*
%TO.P,D17,2,DOUT*%
%TO.N,Net-(D17-DOUT)*%
X85740000Y-58475000D03*
%TO.P,D17,3,VSS*%
%TO.N,GND*%
X89240000Y-58475000D03*
%TO.P,D17,4,DIN*%
%TO.N,Net-(D16-DOUT)*%
X89240000Y-56725000D03*
%TD*%
D10*
%TO.P,SW6,1,1*%
%TO.N,Net-(D6-A)*%
X103970000Y-94980000D03*
%TO.P,SW6,2,2*%
%TO.N,Column 2*%
X110320000Y-92440000D03*
%TD*%
D16*
%TO.P,SW13,A,A*%
%TO.N,Rotary A*%
X137750000Y-68200000D03*
D17*
%TO.P,SW13,B,B*%
%TO.N,Rotary B*%
X137750000Y-73200000D03*
%TO.P,SW13,C,C*%
%TO.N,GND*%
X137750000Y-70700000D03*
D18*
%TO.P,SW13,MP*%
%TO.N,N/C*%
X145250000Y-65100000D03*
X145250000Y-76300000D03*
D17*
%TO.P,SW13,S1,S1*%
%TO.N,Column 4*%
X152250000Y-73200000D03*
%TO.P,SW13,S2,S2*%
%TO.N,Net-(D4-A)*%
X152250000Y-68200000D03*
%TD*%
D12*
%TO.P,D6,1,K*%
%TO.N,Row 2*%
X70750000Y-92431500D03*
%TO.P,D6,2,A*%
%TO.N,Net-(D6-A)*%
X69350000Y-92431500D03*
%TD*%
D19*
%TO.P,U1,1,GPIO26/ADC0/A0*%
%TO.N,Column 1*%
X56845000Y-56680000D03*
D20*
X57680000Y-56680000D03*
D19*
%TO.P,U1,2,GPIO27/ADC1/A1*%
%TO.N,Column 2*%
X56845000Y-59220000D03*
D20*
X57680000Y-59220000D03*
D19*
%TO.P,U1,3,GPIO28/ADC2/A2*%
%TO.N,Column 3*%
X56845000Y-61760000D03*
D20*
X57680000Y-61760000D03*
D19*
%TO.P,U1,4,GPIO29/ADC3/A3*%
%TO.N,Column 4*%
X56845000Y-64300000D03*
D20*
X57680000Y-64300000D03*
D19*
%TO.P,U1,5,GPIO6/SDA*%
%TO.N,SDA*%
X56845000Y-66840000D03*
D20*
X57680000Y-66840000D03*
D19*
%TO.P,U1,6,GPIO7/SCL*%
%TO.N,SCL*%
X56845000Y-69380000D03*
D20*
X57680000Y-69380000D03*
D19*
%TO.P,U1,7,GPIO0/TX*%
%TO.N,Row 1*%
X56845000Y-71920000D03*
D20*
X57680000Y-71920000D03*
%TO.P,U1,8,GPIO1/RX*%
%TO.N,Net-(D10-DIN)*%
X72920000Y-71920000D03*
D21*
X73755000Y-71920000D03*
D20*
%TO.P,U1,9,GPIO2/SCK*%
%TO.N,Row 2*%
X72920000Y-69380000D03*
D21*
X73755000Y-69380000D03*
D20*
%TO.P,U1,10,GPIO4/MISO*%
%TO.N,Rotary A*%
X72920000Y-66840000D03*
D21*
X73755000Y-66840000D03*
D20*
%TO.P,U1,11,GPIO3/MOSI*%
%TO.N,Rotary B*%
X72920000Y-64300000D03*
D21*
X73755000Y-64300000D03*
D20*
%TO.P,U1,12,3V3*%
%TO.N,unconnected-(U1-3V3-Pad12)*%
X72920000Y-61760000D03*
D21*
X73755000Y-61760000D03*
D20*
%TO.P,U1,13,GND*%
%TO.N,GND*%
X72920000Y-59220000D03*
D21*
X73755000Y-59220000D03*
D20*
%TO.P,U1,14,VBUS*%
%TO.N,+5V*%
X72920000Y-56680000D03*
D21*
X73755000Y-56680000D03*
%TD*%
D11*
%TO.P,D19,1,VDD*%
%TO.N,+5V*%
X123650000Y-56725000D03*
%TO.P,D19,2,DOUT*%
%TO.N,Net-(D19-DOUT)*%
X123650000Y-58475000D03*
%TO.P,D19,3,VSS*%
%TO.N,GND*%
X127150000Y-58475000D03*
%TO.P,D19,4,DIN*%
%TO.N,Net-(D18-DOUT)*%
X127150000Y-56725000D03*
%TD*%
D15*
%TO.P,D8,1,K*%
%TO.N,Row 2*%
X59850000Y-99331500D03*
%TO.P,D8,2,A*%
%TO.N,Net-(D8-A)*%
X61250000Y-99331500D03*
%TD*%
%TO.P,D2,1,K*%
%TO.N,Row 1*%
X59850000Y-78631500D03*
%TO.P,D2,2,A*%
%TO.N,Net-(D2-A)*%
X61250000Y-78631500D03*
%TD*%
%TO.P,D5,1,K*%
%TO.N,Row 2*%
X59850000Y-92431500D03*
%TO.P,D5,2,A*%
%TO.N,Net-(D5-A)*%
X61250000Y-92431500D03*
%TD*%
D12*
%TO.P,D1,1,K*%
%TO.N,Row 1*%
X70750000Y-78631500D03*
%TO.P,D1,2,A*%
%TO.N,Net-(D1-A)*%
X69350000Y-78631500D03*
%TD*%
D11*
%TO.P,D21,1,VDD*%
%TO.N,+5V*%
X156450000Y-89025000D03*
%TO.P,D21,2,DOUT*%
%TO.N,Net-(D21-DOUT)*%
X156450000Y-90775000D03*
%TO.P,D21,3,VSS*%
%TO.N,GND*%
X159950000Y-90775000D03*
%TO.P,D21,4,DIN*%
%TO.N,Net-(D20-DOUT)*%
X159950000Y-89025000D03*
%TD*%
D12*
%TO.P,D4,1,K*%
%TO.N,Row 1*%
X70750000Y-85531500D03*
%TO.P,D4,2,A*%
%TO.N,Net-(D4-A)*%
X69350000Y-85531500D03*
%TD*%
D11*
%TO.P,D20,1,VDD*%
%TO.N,+5V*%
X156450000Y-69825000D03*
%TO.P,D20,2,DOUT*%
%TO.N,Net-(D20-DOUT)*%
X156450000Y-71575000D03*
%TO.P,D20,3,VSS*%
%TO.N,GND*%
X159950000Y-71575000D03*
%TO.P,D20,4,DIN*%
%TO.N,Net-(D19-DOUT)*%
X159950000Y-69825000D03*
%TD*%
D22*
%TO.N,Net-(D1-A)*%
X89500000Y-75800000D03*
X88300000Y-84500000D03*
X89500000Y-83300000D03*
X81800000Y-86700000D03*
X83900000Y-103000000D03*
%TO.N,Net-(D2-A)*%
X80600000Y-85900000D03*
X86500000Y-78600000D03*
X83900000Y-104200000D03*
%TO.N,Net-(D4-A)*%
X83900000Y-102000000D03*
X153900000Y-81300000D03*
X109600000Y-97400000D03*
X149100000Y-95000000D03*
%TO.N,Net-(D3-A)*%
X83900000Y-105000000D03*
X117500000Y-84975735D03*
X117500000Y-86900000D03*
X116675735Y-80924265D03*
%TO.N,Net-(D6-A)*%
X104000000Y-100700000D03*
%TO.N,Net-(D5-A)*%
X84100000Y-106235733D03*
%TO.N,Net-(D7-A)*%
X121200000Y-97800000D03*
%TO.N,Net-(D8-A)*%
X140600000Y-106600000D03*
X140300000Y-97300000D03*
%TO.N,Row 1*%
X78400000Y-85600000D03*
X56600000Y-74100000D03*
%TO.N,Row 2*%
X80000000Y-92300000D03*
X64500000Y-72100000D03*
%TO.N,+5V*%
X102400000Y-55100000D03*
X102400000Y-57000000D03*
X80400000Y-60200000D03*
X89600000Y-73300000D03*
X129510721Y-88493130D03*
X93900000Y-92000000D03*
X110196967Y-90039500D03*
%TO.N,GND*%
X160900000Y-73400000D03*
X121800000Y-85200000D03*
X102900000Y-85100000D03*
X140300000Y-86600000D03*
X129200000Y-58500000D03*
X103000000Y-86900000D03*
X110700000Y-58500000D03*
X121900000Y-87000000D03*
X141900000Y-86700000D03*
%TO.N,SDA*%
X111800000Y-60000000D03*
X90941000Y-60000000D03*
%TO.N,Net-(D16-DOUT)*%
X90200000Y-84200000D03*
%TO.N,SCL*%
X138800000Y-60000000D03*
X134800000Y-55800000D03*
%TO.N,Column 1*%
X91300000Y-81100000D03*
X82300000Y-80800000D03*
%TO.N,Column 2*%
X98000000Y-81700000D03*
X85400000Y-81700000D03*
%TO.N,Column 3*%
X85300000Y-82700000D03*
X98900000Y-82600000D03*
%TO.N,Rotary B*%
X79900000Y-61300000D03*
%TO.N,Rotary A*%
X80300000Y-62900000D03*
X96306985Y-62993015D03*
%TD*%
D23*
%TO.N,Net-(D1-A)*%
X81800000Y-86700000D02*
X86100000Y-86700000D01*
X86100000Y-86700000D02*
X88300000Y-84500000D01*
X89500000Y-83300000D02*
X89500000Y-75800000D01*
X66000000Y-102900000D02*
X66100000Y-103000000D01*
X66100000Y-103000000D02*
X83900000Y-103000000D01*
X66000000Y-78700000D02*
X66000000Y-102900000D01*
X66068500Y-78631500D02*
X66000000Y-78700000D01*
X69350000Y-78631500D02*
X66068500Y-78631500D01*
%TO.N,Net-(D2-A)*%
X64731500Y-78631500D02*
X64800000Y-78700000D01*
X61250000Y-78631500D02*
X64731500Y-78631500D01*
X64800000Y-78700000D02*
X64800000Y-104000000D01*
X64800000Y-104000000D02*
X64900000Y-104100000D01*
X61250000Y-78550000D02*
X61200000Y-78500000D01*
X61250000Y-78631500D02*
X61250000Y-78550000D01*
%TO.N,Net-(D3-A)*%
X63931500Y-85531500D02*
X64000000Y-85600000D01*
X61250000Y-85531500D02*
X63931500Y-85531500D01*
X64000000Y-85600000D02*
X64000000Y-104900000D01*
X64000000Y-104900000D02*
X64100000Y-105000000D01*
%TO.N,Net-(D8-A)*%
X62131500Y-99331500D02*
X62200000Y-99400000D01*
X62200000Y-106735733D02*
X62300000Y-106835733D01*
X61250000Y-99331500D02*
X62131500Y-99331500D01*
X62200000Y-99400000D02*
X62200000Y-106735733D01*
X62300000Y-106835733D02*
X62600000Y-106835733D01*
%TO.N,Net-(D2-A)*%
X64900000Y-104100000D02*
X83800000Y-104100000D01*
X83800000Y-104100000D02*
X83900000Y-104200000D01*
X86500000Y-82600000D02*
X86500000Y-78600000D01*
X80600000Y-85900000D02*
X83200000Y-85900000D01*
X83200000Y-85900000D02*
X86500000Y-82600000D01*
%TO.N,Net-(D4-A)*%
X67100000Y-101900000D02*
X83800000Y-101900000D01*
X109600000Y-97400000D02*
X109801000Y-97199000D01*
X137849686Y-97199000D02*
X141469686Y-93579000D01*
X69350000Y-85531500D02*
X67168500Y-85531500D01*
X109801000Y-97199000D02*
X137849686Y-97199000D01*
X147557686Y-93579000D02*
X148978686Y-95000000D01*
X148978686Y-95000000D02*
X149100000Y-95000000D01*
X67100000Y-85600000D02*
X67100000Y-101900000D01*
X67168500Y-85531500D02*
X67100000Y-85600000D01*
X83800000Y-101900000D02*
X83900000Y-102000000D01*
X141469686Y-93579000D02*
X147557686Y-93579000D01*
X153900000Y-81300000D02*
X153900000Y-69850000D01*
X153900000Y-69850000D02*
X152250000Y-68200000D01*
%TO.N,Net-(D3-A)*%
X117500000Y-86900000D02*
X117500000Y-84975735D01*
X117940000Y-80700000D02*
X122860000Y-75780000D01*
X64100000Y-105000000D02*
X83900000Y-105000000D01*
X116675735Y-80924265D02*
X116900000Y-80700000D01*
X116900000Y-80700000D02*
X117940000Y-80700000D01*
%TO.N,Net-(D6-A)*%
X69350000Y-92431500D02*
X68268500Y-92431500D01*
X67899000Y-92801000D02*
X67899000Y-99566100D01*
X67899000Y-99566100D02*
X69332900Y-101000000D01*
X68268500Y-92431500D02*
X67899000Y-92801000D01*
X69332900Y-101000000D02*
X103700000Y-101000000D01*
X103700000Y-101000000D02*
X104000000Y-100700000D01*
%TO.N,Net-(D5-A)*%
X61250000Y-92431500D02*
X62731500Y-92431500D01*
X62731500Y-92431500D02*
X63200000Y-92900000D01*
X83864267Y-106000000D02*
X84100000Y-106235733D01*
X63200000Y-92900000D02*
X63200000Y-106000000D01*
X63200000Y-106000000D02*
X83864267Y-106000000D01*
%TO.N,+5V*%
X105973500Y-101236500D02*
X104810000Y-101236500D01*
X104810000Y-101236500D02*
X104810000Y-102400000D01*
X126636500Y-101236500D02*
X125173000Y-102700000D01*
X109411000Y-102700000D02*
X109411000Y-101674000D01*
X125173000Y-102700000D02*
X109411000Y-102700000D01*
X109411000Y-101674000D02*
X107209000Y-101674000D01*
X107209000Y-101674000D02*
X107209000Y-103109000D01*
X107209000Y-103109000D02*
X105973500Y-101873500D01*
X105973500Y-101873500D02*
X105973500Y-101236500D01*
X105973500Y-101236500D02*
X105973500Y-101800000D01*
X105973500Y-101800000D02*
X101636500Y-101800000D01*
X101636500Y-101800000D02*
X101036500Y-102400000D01*
X88199000Y-101674000D02*
X88199000Y-102400000D01*
X101036500Y-102400000D02*
X90401000Y-102400000D01*
X90401000Y-101674000D02*
X88199000Y-101674000D01*
X90401000Y-102400000D02*
X90401000Y-101674000D01*
X88199000Y-102400000D02*
X85800000Y-102400000D01*
%TO.N,Net-(D7-A)*%
X118900000Y-100100000D02*
X121200000Y-97800000D01*
X69000000Y-100100000D02*
X118900000Y-100100000D01*
X68300000Y-99400000D02*
X69000000Y-100100000D01*
X69350000Y-99331500D02*
X68368500Y-99331500D01*
X68368500Y-99331500D02*
X68300000Y-99400000D01*
%TO.N,Net-(D8-A)*%
X140364267Y-106835733D02*
X140600000Y-106600000D01*
X62735733Y-106835733D02*
X62600000Y-106835733D01*
X62600000Y-106835733D02*
X140364267Y-106835733D01*
X140300000Y-97300000D02*
X140400000Y-97200000D01*
X140400000Y-97200000D02*
X140400000Y-96630000D01*
X140400000Y-96630000D02*
X142050000Y-94980000D01*
%TO.N,Row 1*%
X70750000Y-78631500D02*
X71431500Y-78631500D01*
X71431500Y-78631500D02*
X78400000Y-85600000D01*
X78331500Y-85531500D02*
X78400000Y-85600000D01*
X70750000Y-85531500D02*
X78331500Y-85531500D01*
X56931500Y-85531500D02*
X56600000Y-85200000D01*
X56600000Y-85200000D02*
X56600000Y-78500000D01*
X59850000Y-85531500D02*
X56931500Y-85531500D01*
X56600000Y-78500000D02*
X56600000Y-74100000D01*
X59850000Y-78631500D02*
X56731500Y-78631500D01*
X56731500Y-78631500D02*
X56600000Y-78500000D01*
%TO.N,Row 2*%
X80168500Y-99331500D02*
X80200000Y-99300000D01*
X80200000Y-99300000D02*
X80200000Y-92500000D01*
X70750000Y-99331500D02*
X80168500Y-99331500D01*
X80200000Y-92500000D02*
X80000000Y-92300000D01*
X70750000Y-92431500D02*
X79868500Y-92431500D01*
X79868500Y-92431500D02*
X80000000Y-92300000D01*
X55729190Y-99329190D02*
X55729190Y-92400000D01*
X59850000Y-92431500D02*
X55760690Y-92431500D01*
X55760690Y-92431500D02*
X55729190Y-92400000D01*
X63300000Y-73300000D02*
X64500000Y-72100000D01*
X55729190Y-73300000D02*
X63300000Y-73300000D01*
X55868500Y-99331500D02*
X55800000Y-99400000D01*
X55800000Y-99400000D02*
X55729190Y-99329190D01*
X59850000Y-99331500D02*
X55868500Y-99331500D01*
X55729190Y-92400000D02*
X55729190Y-73300000D01*
%TO.N,+5V*%
X87500000Y-73300000D02*
X89600000Y-73300000D01*
X125473000Y-102400000D02*
X123800000Y-102400000D01*
X157176000Y-70551000D02*
X156450000Y-69825000D01*
X125393326Y-84375735D02*
X129510721Y-88493130D01*
X161051000Y-69600000D02*
X161051000Y-70551000D01*
X85695000Y-56680000D02*
X85740000Y-56725000D01*
X161051000Y-69099000D02*
X161051000Y-69600000D01*
X144145000Y-101145000D02*
X126728000Y-101145000D01*
X102262267Y-54437733D02*
X121362733Y-54437733D01*
X87500000Y-73300000D02*
X87500000Y-82400000D01*
X92601000Y-87501000D02*
X90800000Y-85700000D01*
X155349000Y-86700000D02*
X155349000Y-87924000D01*
X73755000Y-56680000D02*
X82600000Y-56680000D01*
X101600000Y-55100000D02*
X102262267Y-54437733D01*
X107800000Y-87501000D02*
X110925265Y-84375735D01*
X161051000Y-70849000D02*
X155349000Y-70849000D01*
X107800000Y-87501000D02*
X92601000Y-87501000D01*
X155349000Y-86700000D02*
X155349000Y-89941000D01*
X93900000Y-88800000D02*
X93900000Y-92000000D01*
X121712500Y-54787500D02*
X142900000Y-54787500D01*
X121712500Y-54787500D02*
X123650000Y-56725000D01*
X101600000Y-55100000D02*
X102400000Y-55100000D01*
X110196968Y-90039499D02*
X110196968Y-89210498D01*
X80400000Y-60200000D02*
X81200000Y-61000000D01*
X126728000Y-101145000D02*
X126636500Y-101236500D01*
X121362733Y-54437733D02*
X121712500Y-54787500D01*
X151103000Y-59151000D02*
X161051000Y-69099000D01*
X81200000Y-61000000D02*
X81200000Y-72600000D01*
X144145000Y-101145000D02*
X142890000Y-102400000D01*
X102800000Y-57000000D02*
X103075000Y-56725000D01*
X143057500Y-54787500D02*
X146270000Y-58000000D01*
X155349000Y-89941000D02*
X144145000Y-101145000D01*
X110196968Y-89210498D02*
X108487470Y-87501000D01*
X81900000Y-73300000D02*
X87500000Y-73300000D01*
X90800000Y-85700000D02*
X93900000Y-88800000D01*
X82600000Y-56680000D02*
X85695000Y-56680000D01*
X142900000Y-54787500D02*
X147263500Y-59151000D01*
X110925265Y-84375735D02*
X125393326Y-84375735D01*
X147263500Y-59151000D02*
X151103000Y-59151000D01*
X142900000Y-54787500D02*
X143057500Y-54787500D01*
X87500000Y-82400000D02*
X90800000Y-85700000D01*
X108487470Y-87501000D02*
X107800000Y-87501000D01*
X81200000Y-72600000D02*
X81900000Y-73300000D01*
X102400000Y-57000000D02*
X102800000Y-57000000D01*
X84180000Y-55100000D02*
X101600000Y-55100000D01*
X82600000Y-56680000D02*
X84180000Y-55100000D01*
X155349000Y-87924000D02*
X156450000Y-89025000D01*
X161051000Y-70551000D02*
X157176000Y-70551000D01*
X155349000Y-70849000D02*
X155349000Y-86700000D01*
X161051000Y-69600000D02*
X161051000Y-70849000D01*
X103075000Y-56725000D02*
X104750000Y-56725000D01*
X110196967Y-90039500D02*
X110196968Y-90039499D01*
X126636500Y-101236500D02*
X125473000Y-102400000D01*
%TO.N,GND*%
X73755000Y-59220000D02*
X89180000Y-59220000D01*
X160900000Y-73400000D02*
X159950000Y-72450000D01*
X89300000Y-58535000D02*
X89240000Y-58475000D01*
X89300000Y-59100000D02*
X89300000Y-58535000D01*
X89180000Y-59220000D02*
X89300000Y-59100000D01*
X129200000Y-58500000D02*
X129175000Y-58475000D01*
X102900000Y-85100000D02*
X102900000Y-86800000D01*
X110675000Y-58475000D02*
X108250000Y-58475000D01*
X102900000Y-86800000D02*
X103000000Y-86900000D01*
X140300000Y-86600000D02*
X141800000Y-86600000D01*
X159950000Y-72450000D02*
X159950000Y-71575000D01*
X121800000Y-86900000D02*
X121900000Y-87000000D01*
X129175000Y-58475000D02*
X127150000Y-58475000D01*
X141800000Y-86600000D02*
X141900000Y-86700000D01*
X121800000Y-85200000D02*
X121800000Y-86900000D01*
X110700000Y-58500000D02*
X110675000Y-58475000D01*
%TO.N,SDA*%
X111800000Y-60000000D02*
X90941000Y-60000000D01*
%TO.N,Net-(D20-DOUT)*%
X156175000Y-71575000D02*
X159950000Y-75350000D01*
X159950000Y-75350000D02*
X159950000Y-89025000D01*
X156450000Y-71575000D02*
X156175000Y-71575000D01*
%TO.N,Net-(D16-DOUT)*%
X90341000Y-70299686D02*
X90341000Y-57826000D01*
X92701000Y-72659686D02*
X90341000Y-70299686D01*
X90341000Y-57826000D02*
X89240000Y-56725000D01*
X92701000Y-81699000D02*
X92701000Y-72659686D01*
X90200000Y-84200000D02*
X92701000Y-81699000D01*
%TO.N,Net-(D18-DOUT)*%
X104750000Y-58475000D02*
X105476000Y-57749000D01*
X126126000Y-57749000D02*
X127150000Y-56725000D01*
X105476000Y-57749000D02*
X126126000Y-57749000D01*
%TO.N,Net-(D19-DOUT)*%
X128974000Y-63799000D02*
X153924000Y-63799000D01*
X123650000Y-58475000D02*
X128974000Y-63799000D01*
X123650000Y-58475000D02*
X123775000Y-58475000D01*
X153924000Y-63799000D02*
X159950000Y-69825000D01*
X123775000Y-58475000D02*
X123900000Y-58600000D01*
%TO.N,SCL*%
X134800000Y-55800000D02*
X134800000Y-56000000D01*
X134800000Y-56000000D02*
X138800000Y-60000000D01*
%TO.N,Column 1*%
X91300000Y-81100000D02*
X91300000Y-73240000D01*
X57680000Y-56680000D02*
X71857000Y-70857000D01*
X71857000Y-72360310D02*
X80296690Y-80800000D01*
X71857000Y-70857000D02*
X71857000Y-72360310D01*
X80296690Y-80800000D02*
X82300000Y-80800000D01*
%TO.N,Column 2*%
X57680000Y-59220000D02*
X80160000Y-81700000D01*
X101850000Y-81700000D02*
X110310000Y-73240000D01*
X128729686Y-93841000D02*
X127328686Y-92440000D01*
X128629686Y-71839000D02*
X129790314Y-71839000D01*
X80160000Y-81700000D02*
X85400000Y-81700000D01*
X132182000Y-74230686D02*
X132182000Y-91549314D01*
X127328686Y-92440000D02*
X110320000Y-92440000D01*
X98000000Y-81700000D02*
X101850000Y-81700000D01*
X132182000Y-91549314D02*
X129890314Y-93841000D01*
X129890314Y-93841000D02*
X128729686Y-93841000D01*
X110310000Y-73240000D02*
X127228686Y-73240000D01*
X127228686Y-73240000D02*
X128629686Y-71839000D01*
X129790314Y-71839000D02*
X132182000Y-74230686D01*
%TO.N,Column 3*%
X129738470Y-92440000D02*
X129310000Y-92440000D01*
X129210000Y-73240000D02*
X131781000Y-75811000D01*
X119850000Y-82600000D02*
X129210000Y-73240000D01*
X98900000Y-82600000D02*
X119850000Y-82600000D01*
X78620000Y-82700000D02*
X85300000Y-82700000D01*
X131781000Y-75811000D02*
X131781000Y-90397470D01*
X57680000Y-61760000D02*
X78620000Y-82700000D01*
X131781000Y-90397470D02*
X129738470Y-92440000D01*
%TO.N,Column 4*%
X56845000Y-64300000D02*
X58061000Y-64300000D01*
X152250000Y-73200000D02*
X152250000Y-79450000D01*
X91379000Y-90397470D02*
X97362530Y-96381000D01*
X129069000Y-96381000D02*
X152250000Y-73200000D01*
X97362530Y-96381000D02*
X129069000Y-96381000D01*
X58061000Y-64300000D02*
X81219000Y-87458000D01*
X148400000Y-83300000D02*
X148400000Y-92440000D01*
X91379000Y-89402530D02*
X91379000Y-90397470D01*
X81219000Y-87458000D02*
X89434470Y-87458000D01*
X152250000Y-79450000D02*
X148400000Y-83300000D01*
X89434470Y-87458000D02*
X91379000Y-89402530D01*
%TO.N,Rotary B*%
X73755000Y-64300000D02*
X76900000Y-64300000D01*
X76900000Y-64300000D02*
X79900000Y-61300000D01*
%TO.N,Rotary A*%
X76360000Y-66840000D02*
X80300000Y-62900000D01*
X73755000Y-66840000D02*
X76360000Y-66840000D01*
X96306985Y-62993015D02*
X101513970Y-68200000D01*
X101513970Y-68200000D02*
X137750000Y-68200000D01*
%TO.N,Net-(D17-DOUT)*%
X85740000Y-58475000D02*
X88216000Y-55999000D01*
X88216000Y-55999000D02*
X107524000Y-55999000D01*
X107524000Y-55999000D02*
X108250000Y-56725000D01*
%TO.N,Net-(D21-DOUT)*%
X156450000Y-90775000D02*
X156450000Y-92340000D01*
X156450000Y-92340000D02*
X146390000Y-102400000D01*
%TO.N,Net-(D22-DOUT)*%
X142890000Y-104150000D02*
X129050000Y-104150000D01*
X129050000Y-104150000D02*
X127300000Y-102400000D01*
%TO.N,Net-(D23-DOUT)*%
X110060000Y-104150000D02*
X108310000Y-102400000D01*
X123800000Y-104150000D02*
X110060000Y-104150000D01*
%TO.N,Net-(D24-DOUT)*%
X104810000Y-104150000D02*
X91050000Y-104150000D01*
X91050000Y-104150000D02*
X89300000Y-102400000D01*
%TD*%
M02*
