%TF.GenerationSoftware,KiCad,Pcbnew,9.0.6*%
%TF.CreationDate,2025-11-29T18:30:52-05:00*%
%TF.ProjectId,Generalist_Macro,47656e65-7261-46c6-9973-745f4d616372,rev?*%
%TF.SameCoordinates,Original*%
%TF.FileFunction,Legend,Top*%
%TF.FilePolarity,Positive*%
%FSLAX46Y46*%
G04 Gerber Fmt 4.6, Leading zero omitted, Abs format (unit mm)*
G04 Created by KiCad (PCBNEW 9.0.6) date 2025-11-29 18:30:52*
%MOMM*%
%LPD*%
G01*
G04 APERTURE LIST*
%ADD10C,0.150000*%
%ADD11C,0.101600*%
%ADD12C,0.120000*%
%ADD13C,0.127000*%
%ADD14C,0.100000*%
%ADD15C,0.504000*%
G04 APERTURE END LIST*
D10*
X86166667Y-98181200D02*
X86309524Y-98228819D01*
X86309524Y-98228819D02*
X86547619Y-98228819D01*
X86547619Y-98228819D02*
X86642857Y-98181200D01*
X86642857Y-98181200D02*
X86690476Y-98133580D01*
X86690476Y-98133580D02*
X86738095Y-98038342D01*
X86738095Y-98038342D02*
X86738095Y-97943104D01*
X86738095Y-97943104D02*
X86690476Y-97847866D01*
X86690476Y-97847866D02*
X86642857Y-97800247D01*
X86642857Y-97800247D02*
X86547619Y-97752628D01*
X86547619Y-97752628D02*
X86357143Y-97705009D01*
X86357143Y-97705009D02*
X86261905Y-97657390D01*
X86261905Y-97657390D02*
X86214286Y-97609771D01*
X86214286Y-97609771D02*
X86166667Y-97514533D01*
X86166667Y-97514533D02*
X86166667Y-97419295D01*
X86166667Y-97419295D02*
X86214286Y-97324057D01*
X86214286Y-97324057D02*
X86261905Y-97276438D01*
X86261905Y-97276438D02*
X86357143Y-97228819D01*
X86357143Y-97228819D02*
X86595238Y-97228819D01*
X86595238Y-97228819D02*
X86738095Y-97276438D01*
X87071429Y-97228819D02*
X87309524Y-98228819D01*
X87309524Y-98228819D02*
X87500000Y-97514533D01*
X87500000Y-97514533D02*
X87690476Y-98228819D01*
X87690476Y-98228819D02*
X87928572Y-97228819D01*
X88785714Y-97228819D02*
X88309524Y-97228819D01*
X88309524Y-97228819D02*
X88261905Y-97705009D01*
X88261905Y-97705009D02*
X88309524Y-97657390D01*
X88309524Y-97657390D02*
X88404762Y-97609771D01*
X88404762Y-97609771D02*
X88642857Y-97609771D01*
X88642857Y-97609771D02*
X88738095Y-97657390D01*
X88738095Y-97657390D02*
X88785714Y-97705009D01*
X88785714Y-97705009D02*
X88833333Y-97800247D01*
X88833333Y-97800247D02*
X88833333Y-98038342D01*
X88833333Y-98038342D02*
X88785714Y-98133580D01*
X88785714Y-98133580D02*
X88738095Y-98181200D01*
X88738095Y-98181200D02*
X88642857Y-98228819D01*
X88642857Y-98228819D02*
X88404762Y-98228819D01*
X88404762Y-98228819D02*
X88309524Y-98181200D01*
X88309524Y-98181200D02*
X88261905Y-98133580D01*
X105285714Y-55304819D02*
X105285714Y-54304819D01*
X105285714Y-54304819D02*
X105523809Y-54304819D01*
X105523809Y-54304819D02*
X105666666Y-54352438D01*
X105666666Y-54352438D02*
X105761904Y-54447676D01*
X105761904Y-54447676D02*
X105809523Y-54542914D01*
X105809523Y-54542914D02*
X105857142Y-54733390D01*
X105857142Y-54733390D02*
X105857142Y-54876247D01*
X105857142Y-54876247D02*
X105809523Y-55066723D01*
X105809523Y-55066723D02*
X105761904Y-55161961D01*
X105761904Y-55161961D02*
X105666666Y-55257200D01*
X105666666Y-55257200D02*
X105523809Y-55304819D01*
X105523809Y-55304819D02*
X105285714Y-55304819D01*
X106809523Y-55304819D02*
X106238095Y-55304819D01*
X106523809Y-55304819D02*
X106523809Y-54304819D01*
X106523809Y-54304819D02*
X106428571Y-54447676D01*
X106428571Y-54447676D02*
X106333333Y-54542914D01*
X106333333Y-54542914D02*
X106238095Y-54590533D01*
X107380952Y-54733390D02*
X107285714Y-54685771D01*
X107285714Y-54685771D02*
X107238095Y-54638152D01*
X107238095Y-54638152D02*
X107190476Y-54542914D01*
X107190476Y-54542914D02*
X107190476Y-54495295D01*
X107190476Y-54495295D02*
X107238095Y-54400057D01*
X107238095Y-54400057D02*
X107285714Y-54352438D01*
X107285714Y-54352438D02*
X107380952Y-54304819D01*
X107380952Y-54304819D02*
X107571428Y-54304819D01*
X107571428Y-54304819D02*
X107666666Y-54352438D01*
X107666666Y-54352438D02*
X107714285Y-54400057D01*
X107714285Y-54400057D02*
X107761904Y-54495295D01*
X107761904Y-54495295D02*
X107761904Y-54542914D01*
X107761904Y-54542914D02*
X107714285Y-54638152D01*
X107714285Y-54638152D02*
X107666666Y-54685771D01*
X107666666Y-54685771D02*
X107571428Y-54733390D01*
X107571428Y-54733390D02*
X107380952Y-54733390D01*
X107380952Y-54733390D02*
X107285714Y-54781009D01*
X107285714Y-54781009D02*
X107238095Y-54828628D01*
X107238095Y-54828628D02*
X107190476Y-54923866D01*
X107190476Y-54923866D02*
X107190476Y-55114342D01*
X107190476Y-55114342D02*
X107238095Y-55209580D01*
X107238095Y-55209580D02*
X107285714Y-55257200D01*
X107285714Y-55257200D02*
X107380952Y-55304819D01*
X107380952Y-55304819D02*
X107571428Y-55304819D01*
X107571428Y-55304819D02*
X107666666Y-55257200D01*
X107666666Y-55257200D02*
X107714285Y-55209580D01*
X107714285Y-55209580D02*
X107761904Y-55114342D01*
X107761904Y-55114342D02*
X107761904Y-54923866D01*
X107761904Y-54923866D02*
X107714285Y-54828628D01*
X107714285Y-54828628D02*
X107666666Y-54781009D01*
X107666666Y-54781009D02*
X107571428Y-54733390D01*
X103528571Y-57087295D02*
X103071428Y-57087295D01*
X103300000Y-57087295D02*
X103300000Y-56287295D01*
X103300000Y-56287295D02*
X103223809Y-56401580D01*
X103223809Y-56401580D02*
X103147619Y-56477771D01*
X103147619Y-56477771D02*
X103071428Y-56515866D01*
X86156667Y-78981200D02*
X86299524Y-79028819D01*
X86299524Y-79028819D02*
X86537619Y-79028819D01*
X86537619Y-79028819D02*
X86632857Y-78981200D01*
X86632857Y-78981200D02*
X86680476Y-78933580D01*
X86680476Y-78933580D02*
X86728095Y-78838342D01*
X86728095Y-78838342D02*
X86728095Y-78743104D01*
X86728095Y-78743104D02*
X86680476Y-78647866D01*
X86680476Y-78647866D02*
X86632857Y-78600247D01*
X86632857Y-78600247D02*
X86537619Y-78552628D01*
X86537619Y-78552628D02*
X86347143Y-78505009D01*
X86347143Y-78505009D02*
X86251905Y-78457390D01*
X86251905Y-78457390D02*
X86204286Y-78409771D01*
X86204286Y-78409771D02*
X86156667Y-78314533D01*
X86156667Y-78314533D02*
X86156667Y-78219295D01*
X86156667Y-78219295D02*
X86204286Y-78124057D01*
X86204286Y-78124057D02*
X86251905Y-78076438D01*
X86251905Y-78076438D02*
X86347143Y-78028819D01*
X86347143Y-78028819D02*
X86585238Y-78028819D01*
X86585238Y-78028819D02*
X86728095Y-78076438D01*
X87061429Y-78028819D02*
X87299524Y-79028819D01*
X87299524Y-79028819D02*
X87490000Y-78314533D01*
X87490000Y-78314533D02*
X87680476Y-79028819D01*
X87680476Y-79028819D02*
X87918572Y-78028819D01*
X88823333Y-79028819D02*
X88251905Y-79028819D01*
X88537619Y-79028819D02*
X88537619Y-78028819D01*
X88537619Y-78028819D02*
X88442381Y-78171676D01*
X88442381Y-78171676D02*
X88347143Y-78266914D01*
X88347143Y-78266914D02*
X88251905Y-78314533D01*
X105345714Y-100979819D02*
X105345714Y-99979819D01*
X105345714Y-99979819D02*
X105583809Y-99979819D01*
X105583809Y-99979819D02*
X105726666Y-100027438D01*
X105726666Y-100027438D02*
X105821904Y-100122676D01*
X105821904Y-100122676D02*
X105869523Y-100217914D01*
X105869523Y-100217914D02*
X105917142Y-100408390D01*
X105917142Y-100408390D02*
X105917142Y-100551247D01*
X105917142Y-100551247D02*
X105869523Y-100741723D01*
X105869523Y-100741723D02*
X105821904Y-100836961D01*
X105821904Y-100836961D02*
X105726666Y-100932200D01*
X105726666Y-100932200D02*
X105583809Y-100979819D01*
X105583809Y-100979819D02*
X105345714Y-100979819D01*
X106298095Y-100075057D02*
X106345714Y-100027438D01*
X106345714Y-100027438D02*
X106440952Y-99979819D01*
X106440952Y-99979819D02*
X106679047Y-99979819D01*
X106679047Y-99979819D02*
X106774285Y-100027438D01*
X106774285Y-100027438D02*
X106821904Y-100075057D01*
X106821904Y-100075057D02*
X106869523Y-100170295D01*
X106869523Y-100170295D02*
X106869523Y-100265533D01*
X106869523Y-100265533D02*
X106821904Y-100408390D01*
X106821904Y-100408390D02*
X106250476Y-100979819D01*
X106250476Y-100979819D02*
X106869523Y-100979819D01*
X107726666Y-100313152D02*
X107726666Y-100979819D01*
X107488571Y-99932200D02*
X107250476Y-100646485D01*
X107250476Y-100646485D02*
X107869523Y-100646485D01*
X103588571Y-102762295D02*
X103131428Y-102762295D01*
X103360000Y-102762295D02*
X103360000Y-101962295D01*
X103360000Y-101962295D02*
X103283809Y-102076580D01*
X103283809Y-102076580D02*
X103207619Y-102152771D01*
X103207619Y-102152771D02*
X103131428Y-102190866D01*
X143256667Y-98181200D02*
X143399524Y-98228819D01*
X143399524Y-98228819D02*
X143637619Y-98228819D01*
X143637619Y-98228819D02*
X143732857Y-98181200D01*
X143732857Y-98181200D02*
X143780476Y-98133580D01*
X143780476Y-98133580D02*
X143828095Y-98038342D01*
X143828095Y-98038342D02*
X143828095Y-97943104D01*
X143828095Y-97943104D02*
X143780476Y-97847866D01*
X143780476Y-97847866D02*
X143732857Y-97800247D01*
X143732857Y-97800247D02*
X143637619Y-97752628D01*
X143637619Y-97752628D02*
X143447143Y-97705009D01*
X143447143Y-97705009D02*
X143351905Y-97657390D01*
X143351905Y-97657390D02*
X143304286Y-97609771D01*
X143304286Y-97609771D02*
X143256667Y-97514533D01*
X143256667Y-97514533D02*
X143256667Y-97419295D01*
X143256667Y-97419295D02*
X143304286Y-97324057D01*
X143304286Y-97324057D02*
X143351905Y-97276438D01*
X143351905Y-97276438D02*
X143447143Y-97228819D01*
X143447143Y-97228819D02*
X143685238Y-97228819D01*
X143685238Y-97228819D02*
X143828095Y-97276438D01*
X144161429Y-97228819D02*
X144399524Y-98228819D01*
X144399524Y-98228819D02*
X144590000Y-97514533D01*
X144590000Y-97514533D02*
X144780476Y-98228819D01*
X144780476Y-98228819D02*
X145018572Y-97228819D01*
X145542381Y-97657390D02*
X145447143Y-97609771D01*
X145447143Y-97609771D02*
X145399524Y-97562152D01*
X145399524Y-97562152D02*
X145351905Y-97466914D01*
X145351905Y-97466914D02*
X145351905Y-97419295D01*
X145351905Y-97419295D02*
X145399524Y-97324057D01*
X145399524Y-97324057D02*
X145447143Y-97276438D01*
X145447143Y-97276438D02*
X145542381Y-97228819D01*
X145542381Y-97228819D02*
X145732857Y-97228819D01*
X145732857Y-97228819D02*
X145828095Y-97276438D01*
X145828095Y-97276438D02*
X145875714Y-97324057D01*
X145875714Y-97324057D02*
X145923333Y-97419295D01*
X145923333Y-97419295D02*
X145923333Y-97466914D01*
X145923333Y-97466914D02*
X145875714Y-97562152D01*
X145875714Y-97562152D02*
X145828095Y-97609771D01*
X145828095Y-97609771D02*
X145732857Y-97657390D01*
X145732857Y-97657390D02*
X145542381Y-97657390D01*
X145542381Y-97657390D02*
X145447143Y-97705009D01*
X145447143Y-97705009D02*
X145399524Y-97752628D01*
X145399524Y-97752628D02*
X145351905Y-97847866D01*
X145351905Y-97847866D02*
X145351905Y-98038342D01*
X145351905Y-98038342D02*
X145399524Y-98133580D01*
X145399524Y-98133580D02*
X145447143Y-98181200D01*
X145447143Y-98181200D02*
X145542381Y-98228819D01*
X145542381Y-98228819D02*
X145732857Y-98228819D01*
X145732857Y-98228819D02*
X145828095Y-98181200D01*
X145828095Y-98181200D02*
X145875714Y-98133580D01*
X145875714Y-98133580D02*
X145923333Y-98038342D01*
X145923333Y-98038342D02*
X145923333Y-97847866D01*
X145923333Y-97847866D02*
X145875714Y-97752628D01*
X145875714Y-97752628D02*
X145828095Y-97705009D01*
X145828095Y-97705009D02*
X145732857Y-97657390D01*
X124166667Y-98181200D02*
X124309524Y-98228819D01*
X124309524Y-98228819D02*
X124547619Y-98228819D01*
X124547619Y-98228819D02*
X124642857Y-98181200D01*
X124642857Y-98181200D02*
X124690476Y-98133580D01*
X124690476Y-98133580D02*
X124738095Y-98038342D01*
X124738095Y-98038342D02*
X124738095Y-97943104D01*
X124738095Y-97943104D02*
X124690476Y-97847866D01*
X124690476Y-97847866D02*
X124642857Y-97800247D01*
X124642857Y-97800247D02*
X124547619Y-97752628D01*
X124547619Y-97752628D02*
X124357143Y-97705009D01*
X124357143Y-97705009D02*
X124261905Y-97657390D01*
X124261905Y-97657390D02*
X124214286Y-97609771D01*
X124214286Y-97609771D02*
X124166667Y-97514533D01*
X124166667Y-97514533D02*
X124166667Y-97419295D01*
X124166667Y-97419295D02*
X124214286Y-97324057D01*
X124214286Y-97324057D02*
X124261905Y-97276438D01*
X124261905Y-97276438D02*
X124357143Y-97228819D01*
X124357143Y-97228819D02*
X124595238Y-97228819D01*
X124595238Y-97228819D02*
X124738095Y-97276438D01*
X125071429Y-97228819D02*
X125309524Y-98228819D01*
X125309524Y-98228819D02*
X125500000Y-97514533D01*
X125500000Y-97514533D02*
X125690476Y-98228819D01*
X125690476Y-98228819D02*
X125928572Y-97228819D01*
X126214286Y-97228819D02*
X126880952Y-97228819D01*
X126880952Y-97228819D02*
X126452381Y-98228819D01*
X143425714Y-100979819D02*
X143425714Y-99979819D01*
X143425714Y-99979819D02*
X143663809Y-99979819D01*
X143663809Y-99979819D02*
X143806666Y-100027438D01*
X143806666Y-100027438D02*
X143901904Y-100122676D01*
X143901904Y-100122676D02*
X143949523Y-100217914D01*
X143949523Y-100217914D02*
X143997142Y-100408390D01*
X143997142Y-100408390D02*
X143997142Y-100551247D01*
X143997142Y-100551247D02*
X143949523Y-100741723D01*
X143949523Y-100741723D02*
X143901904Y-100836961D01*
X143901904Y-100836961D02*
X143806666Y-100932200D01*
X143806666Y-100932200D02*
X143663809Y-100979819D01*
X143663809Y-100979819D02*
X143425714Y-100979819D01*
X144378095Y-100075057D02*
X144425714Y-100027438D01*
X144425714Y-100027438D02*
X144520952Y-99979819D01*
X144520952Y-99979819D02*
X144759047Y-99979819D01*
X144759047Y-99979819D02*
X144854285Y-100027438D01*
X144854285Y-100027438D02*
X144901904Y-100075057D01*
X144901904Y-100075057D02*
X144949523Y-100170295D01*
X144949523Y-100170295D02*
X144949523Y-100265533D01*
X144949523Y-100265533D02*
X144901904Y-100408390D01*
X144901904Y-100408390D02*
X144330476Y-100979819D01*
X144330476Y-100979819D02*
X144949523Y-100979819D01*
X145330476Y-100075057D02*
X145378095Y-100027438D01*
X145378095Y-100027438D02*
X145473333Y-99979819D01*
X145473333Y-99979819D02*
X145711428Y-99979819D01*
X145711428Y-99979819D02*
X145806666Y-100027438D01*
X145806666Y-100027438D02*
X145854285Y-100075057D01*
X145854285Y-100075057D02*
X145901904Y-100170295D01*
X145901904Y-100170295D02*
X145901904Y-100265533D01*
X145901904Y-100265533D02*
X145854285Y-100408390D01*
X145854285Y-100408390D02*
X145282857Y-100979819D01*
X145282857Y-100979819D02*
X145901904Y-100979819D01*
X141668571Y-102762295D02*
X141211428Y-102762295D01*
X141440000Y-102762295D02*
X141440000Y-101962295D01*
X141440000Y-101962295D02*
X141363809Y-102076580D01*
X141363809Y-102076580D02*
X141287619Y-102152771D01*
X141287619Y-102152771D02*
X141211428Y-102190866D01*
X69311905Y-101086319D02*
X69311905Y-100086319D01*
X69311905Y-100086319D02*
X69550000Y-100086319D01*
X69550000Y-100086319D02*
X69692857Y-100133938D01*
X69692857Y-100133938D02*
X69788095Y-100229176D01*
X69788095Y-100229176D02*
X69835714Y-100324414D01*
X69835714Y-100324414D02*
X69883333Y-100514890D01*
X69883333Y-100514890D02*
X69883333Y-100657747D01*
X69883333Y-100657747D02*
X69835714Y-100848223D01*
X69835714Y-100848223D02*
X69788095Y-100943461D01*
X69788095Y-100943461D02*
X69692857Y-101038700D01*
X69692857Y-101038700D02*
X69550000Y-101086319D01*
X69550000Y-101086319D02*
X69311905Y-101086319D01*
X70216667Y-100086319D02*
X70883333Y-100086319D01*
X70883333Y-100086319D02*
X70454762Y-101086319D01*
X124335714Y-100979819D02*
X124335714Y-99979819D01*
X124335714Y-99979819D02*
X124573809Y-99979819D01*
X124573809Y-99979819D02*
X124716666Y-100027438D01*
X124716666Y-100027438D02*
X124811904Y-100122676D01*
X124811904Y-100122676D02*
X124859523Y-100217914D01*
X124859523Y-100217914D02*
X124907142Y-100408390D01*
X124907142Y-100408390D02*
X124907142Y-100551247D01*
X124907142Y-100551247D02*
X124859523Y-100741723D01*
X124859523Y-100741723D02*
X124811904Y-100836961D01*
X124811904Y-100836961D02*
X124716666Y-100932200D01*
X124716666Y-100932200D02*
X124573809Y-100979819D01*
X124573809Y-100979819D02*
X124335714Y-100979819D01*
X125288095Y-100075057D02*
X125335714Y-100027438D01*
X125335714Y-100027438D02*
X125430952Y-99979819D01*
X125430952Y-99979819D02*
X125669047Y-99979819D01*
X125669047Y-99979819D02*
X125764285Y-100027438D01*
X125764285Y-100027438D02*
X125811904Y-100075057D01*
X125811904Y-100075057D02*
X125859523Y-100170295D01*
X125859523Y-100170295D02*
X125859523Y-100265533D01*
X125859523Y-100265533D02*
X125811904Y-100408390D01*
X125811904Y-100408390D02*
X125240476Y-100979819D01*
X125240476Y-100979819D02*
X125859523Y-100979819D01*
X126192857Y-99979819D02*
X126811904Y-99979819D01*
X126811904Y-99979819D02*
X126478571Y-100360771D01*
X126478571Y-100360771D02*
X126621428Y-100360771D01*
X126621428Y-100360771D02*
X126716666Y-100408390D01*
X126716666Y-100408390D02*
X126764285Y-100456009D01*
X126764285Y-100456009D02*
X126811904Y-100551247D01*
X126811904Y-100551247D02*
X126811904Y-100789342D01*
X126811904Y-100789342D02*
X126764285Y-100884580D01*
X126764285Y-100884580D02*
X126716666Y-100932200D01*
X126716666Y-100932200D02*
X126621428Y-100979819D01*
X126621428Y-100979819D02*
X126335714Y-100979819D01*
X126335714Y-100979819D02*
X126240476Y-100932200D01*
X126240476Y-100932200D02*
X126192857Y-100884580D01*
X122578571Y-102762295D02*
X122121428Y-102762295D01*
X122350000Y-102762295D02*
X122350000Y-101962295D01*
X122350000Y-101962295D02*
X122273809Y-102076580D01*
X122273809Y-102076580D02*
X122197619Y-102152771D01*
X122197619Y-102152771D02*
X122121428Y-102190866D01*
X144926666Y-54184819D02*
X144926666Y-54899104D01*
X144926666Y-54899104D02*
X144879047Y-55041961D01*
X144879047Y-55041961D02*
X144783809Y-55137200D01*
X144783809Y-55137200D02*
X144640952Y-55184819D01*
X144640952Y-55184819D02*
X144545714Y-55184819D01*
X145926666Y-55184819D02*
X145355238Y-55184819D01*
X145640952Y-55184819D02*
X145640952Y-54184819D01*
X145640952Y-54184819D02*
X145545714Y-54327676D01*
X145545714Y-54327676D02*
X145450476Y-54422914D01*
X145450476Y-54422914D02*
X145355238Y-54470533D01*
X59811905Y-84686319D02*
X59811905Y-83686319D01*
X59811905Y-83686319D02*
X60050000Y-83686319D01*
X60050000Y-83686319D02*
X60192857Y-83733938D01*
X60192857Y-83733938D02*
X60288095Y-83829176D01*
X60288095Y-83829176D02*
X60335714Y-83924414D01*
X60335714Y-83924414D02*
X60383333Y-84114890D01*
X60383333Y-84114890D02*
X60383333Y-84257747D01*
X60383333Y-84257747D02*
X60335714Y-84448223D01*
X60335714Y-84448223D02*
X60288095Y-84543461D01*
X60288095Y-84543461D02*
X60192857Y-84638700D01*
X60192857Y-84638700D02*
X60050000Y-84686319D01*
X60050000Y-84686319D02*
X59811905Y-84686319D01*
X60716667Y-83686319D02*
X61335714Y-83686319D01*
X61335714Y-83686319D02*
X61002381Y-84067271D01*
X61002381Y-84067271D02*
X61145238Y-84067271D01*
X61145238Y-84067271D02*
X61240476Y-84114890D01*
X61240476Y-84114890D02*
X61288095Y-84162509D01*
X61288095Y-84162509D02*
X61335714Y-84257747D01*
X61335714Y-84257747D02*
X61335714Y-84495842D01*
X61335714Y-84495842D02*
X61288095Y-84591080D01*
X61288095Y-84591080D02*
X61240476Y-84638700D01*
X61240476Y-84638700D02*
X61145238Y-84686319D01*
X61145238Y-84686319D02*
X60859524Y-84686319D01*
X60859524Y-84686319D02*
X60764286Y-84638700D01*
X60764286Y-84638700D02*
X60716667Y-84591080D01*
X86335714Y-100979819D02*
X86335714Y-99979819D01*
X86335714Y-99979819D02*
X86573809Y-99979819D01*
X86573809Y-99979819D02*
X86716666Y-100027438D01*
X86716666Y-100027438D02*
X86811904Y-100122676D01*
X86811904Y-100122676D02*
X86859523Y-100217914D01*
X86859523Y-100217914D02*
X86907142Y-100408390D01*
X86907142Y-100408390D02*
X86907142Y-100551247D01*
X86907142Y-100551247D02*
X86859523Y-100741723D01*
X86859523Y-100741723D02*
X86811904Y-100836961D01*
X86811904Y-100836961D02*
X86716666Y-100932200D01*
X86716666Y-100932200D02*
X86573809Y-100979819D01*
X86573809Y-100979819D02*
X86335714Y-100979819D01*
X87288095Y-100075057D02*
X87335714Y-100027438D01*
X87335714Y-100027438D02*
X87430952Y-99979819D01*
X87430952Y-99979819D02*
X87669047Y-99979819D01*
X87669047Y-99979819D02*
X87764285Y-100027438D01*
X87764285Y-100027438D02*
X87811904Y-100075057D01*
X87811904Y-100075057D02*
X87859523Y-100170295D01*
X87859523Y-100170295D02*
X87859523Y-100265533D01*
X87859523Y-100265533D02*
X87811904Y-100408390D01*
X87811904Y-100408390D02*
X87240476Y-100979819D01*
X87240476Y-100979819D02*
X87859523Y-100979819D01*
X88764285Y-99979819D02*
X88288095Y-99979819D01*
X88288095Y-99979819D02*
X88240476Y-100456009D01*
X88240476Y-100456009D02*
X88288095Y-100408390D01*
X88288095Y-100408390D02*
X88383333Y-100360771D01*
X88383333Y-100360771D02*
X88621428Y-100360771D01*
X88621428Y-100360771D02*
X88716666Y-100408390D01*
X88716666Y-100408390D02*
X88764285Y-100456009D01*
X88764285Y-100456009D02*
X88811904Y-100551247D01*
X88811904Y-100551247D02*
X88811904Y-100789342D01*
X88811904Y-100789342D02*
X88764285Y-100884580D01*
X88764285Y-100884580D02*
X88716666Y-100932200D01*
X88716666Y-100932200D02*
X88621428Y-100979819D01*
X88621428Y-100979819D02*
X88383333Y-100979819D01*
X88383333Y-100979819D02*
X88288095Y-100932200D01*
X88288095Y-100932200D02*
X88240476Y-100884580D01*
X105166667Y-78981200D02*
X105309524Y-79028819D01*
X105309524Y-79028819D02*
X105547619Y-79028819D01*
X105547619Y-79028819D02*
X105642857Y-78981200D01*
X105642857Y-78981200D02*
X105690476Y-78933580D01*
X105690476Y-78933580D02*
X105738095Y-78838342D01*
X105738095Y-78838342D02*
X105738095Y-78743104D01*
X105738095Y-78743104D02*
X105690476Y-78647866D01*
X105690476Y-78647866D02*
X105642857Y-78600247D01*
X105642857Y-78600247D02*
X105547619Y-78552628D01*
X105547619Y-78552628D02*
X105357143Y-78505009D01*
X105357143Y-78505009D02*
X105261905Y-78457390D01*
X105261905Y-78457390D02*
X105214286Y-78409771D01*
X105214286Y-78409771D02*
X105166667Y-78314533D01*
X105166667Y-78314533D02*
X105166667Y-78219295D01*
X105166667Y-78219295D02*
X105214286Y-78124057D01*
X105214286Y-78124057D02*
X105261905Y-78076438D01*
X105261905Y-78076438D02*
X105357143Y-78028819D01*
X105357143Y-78028819D02*
X105595238Y-78028819D01*
X105595238Y-78028819D02*
X105738095Y-78076438D01*
X106071429Y-78028819D02*
X106309524Y-79028819D01*
X106309524Y-79028819D02*
X106500000Y-78314533D01*
X106500000Y-78314533D02*
X106690476Y-79028819D01*
X106690476Y-79028819D02*
X106928572Y-78028819D01*
X107261905Y-78124057D02*
X107309524Y-78076438D01*
X107309524Y-78076438D02*
X107404762Y-78028819D01*
X107404762Y-78028819D02*
X107642857Y-78028819D01*
X107642857Y-78028819D02*
X107738095Y-78076438D01*
X107738095Y-78076438D02*
X107785714Y-78124057D01*
X107785714Y-78124057D02*
X107833333Y-78219295D01*
X107833333Y-78219295D02*
X107833333Y-78314533D01*
X107833333Y-78314533D02*
X107785714Y-78457390D01*
X107785714Y-78457390D02*
X107214286Y-79028819D01*
X107214286Y-79028819D02*
X107833333Y-79028819D01*
X124066667Y-78981200D02*
X124209524Y-79028819D01*
X124209524Y-79028819D02*
X124447619Y-79028819D01*
X124447619Y-79028819D02*
X124542857Y-78981200D01*
X124542857Y-78981200D02*
X124590476Y-78933580D01*
X124590476Y-78933580D02*
X124638095Y-78838342D01*
X124638095Y-78838342D02*
X124638095Y-78743104D01*
X124638095Y-78743104D02*
X124590476Y-78647866D01*
X124590476Y-78647866D02*
X124542857Y-78600247D01*
X124542857Y-78600247D02*
X124447619Y-78552628D01*
X124447619Y-78552628D02*
X124257143Y-78505009D01*
X124257143Y-78505009D02*
X124161905Y-78457390D01*
X124161905Y-78457390D02*
X124114286Y-78409771D01*
X124114286Y-78409771D02*
X124066667Y-78314533D01*
X124066667Y-78314533D02*
X124066667Y-78219295D01*
X124066667Y-78219295D02*
X124114286Y-78124057D01*
X124114286Y-78124057D02*
X124161905Y-78076438D01*
X124161905Y-78076438D02*
X124257143Y-78028819D01*
X124257143Y-78028819D02*
X124495238Y-78028819D01*
X124495238Y-78028819D02*
X124638095Y-78076438D01*
X124971429Y-78028819D02*
X125209524Y-79028819D01*
X125209524Y-79028819D02*
X125400000Y-78314533D01*
X125400000Y-78314533D02*
X125590476Y-79028819D01*
X125590476Y-79028819D02*
X125828572Y-78028819D01*
X126114286Y-78028819D02*
X126733333Y-78028819D01*
X126733333Y-78028819D02*
X126400000Y-78409771D01*
X126400000Y-78409771D02*
X126542857Y-78409771D01*
X126542857Y-78409771D02*
X126638095Y-78457390D01*
X126638095Y-78457390D02*
X126685714Y-78505009D01*
X126685714Y-78505009D02*
X126733333Y-78600247D01*
X126733333Y-78600247D02*
X126733333Y-78838342D01*
X126733333Y-78838342D02*
X126685714Y-78933580D01*
X126685714Y-78933580D02*
X126638095Y-78981200D01*
X126638095Y-78981200D02*
X126542857Y-79028819D01*
X126542857Y-79028819D02*
X126257143Y-79028819D01*
X126257143Y-79028819D02*
X126161905Y-78981200D01*
X126161905Y-78981200D02*
X126114286Y-78933580D01*
X86275714Y-55304819D02*
X86275714Y-54304819D01*
X86275714Y-54304819D02*
X86513809Y-54304819D01*
X86513809Y-54304819D02*
X86656666Y-54352438D01*
X86656666Y-54352438D02*
X86751904Y-54447676D01*
X86751904Y-54447676D02*
X86799523Y-54542914D01*
X86799523Y-54542914D02*
X86847142Y-54733390D01*
X86847142Y-54733390D02*
X86847142Y-54876247D01*
X86847142Y-54876247D02*
X86799523Y-55066723D01*
X86799523Y-55066723D02*
X86751904Y-55161961D01*
X86751904Y-55161961D02*
X86656666Y-55257200D01*
X86656666Y-55257200D02*
X86513809Y-55304819D01*
X86513809Y-55304819D02*
X86275714Y-55304819D01*
X87799523Y-55304819D02*
X87228095Y-55304819D01*
X87513809Y-55304819D02*
X87513809Y-54304819D01*
X87513809Y-54304819D02*
X87418571Y-54447676D01*
X87418571Y-54447676D02*
X87323333Y-54542914D01*
X87323333Y-54542914D02*
X87228095Y-54590533D01*
X88132857Y-54304819D02*
X88799523Y-54304819D01*
X88799523Y-54304819D02*
X88370952Y-55304819D01*
X84518571Y-57087295D02*
X84061428Y-57087295D01*
X84290000Y-57087295D02*
X84290000Y-56287295D01*
X84290000Y-56287295D02*
X84213809Y-56401580D01*
X84213809Y-56401580D02*
X84137619Y-56477771D01*
X84137619Y-56477771D02*
X84061428Y-56515866D01*
X105176667Y-98181200D02*
X105319524Y-98228819D01*
X105319524Y-98228819D02*
X105557619Y-98228819D01*
X105557619Y-98228819D02*
X105652857Y-98181200D01*
X105652857Y-98181200D02*
X105700476Y-98133580D01*
X105700476Y-98133580D02*
X105748095Y-98038342D01*
X105748095Y-98038342D02*
X105748095Y-97943104D01*
X105748095Y-97943104D02*
X105700476Y-97847866D01*
X105700476Y-97847866D02*
X105652857Y-97800247D01*
X105652857Y-97800247D02*
X105557619Y-97752628D01*
X105557619Y-97752628D02*
X105367143Y-97705009D01*
X105367143Y-97705009D02*
X105271905Y-97657390D01*
X105271905Y-97657390D02*
X105224286Y-97609771D01*
X105224286Y-97609771D02*
X105176667Y-97514533D01*
X105176667Y-97514533D02*
X105176667Y-97419295D01*
X105176667Y-97419295D02*
X105224286Y-97324057D01*
X105224286Y-97324057D02*
X105271905Y-97276438D01*
X105271905Y-97276438D02*
X105367143Y-97228819D01*
X105367143Y-97228819D02*
X105605238Y-97228819D01*
X105605238Y-97228819D02*
X105748095Y-97276438D01*
X106081429Y-97228819D02*
X106319524Y-98228819D01*
X106319524Y-98228819D02*
X106510000Y-97514533D01*
X106510000Y-97514533D02*
X106700476Y-98228819D01*
X106700476Y-98228819D02*
X106938572Y-97228819D01*
X107748095Y-97228819D02*
X107557619Y-97228819D01*
X107557619Y-97228819D02*
X107462381Y-97276438D01*
X107462381Y-97276438D02*
X107414762Y-97324057D01*
X107414762Y-97324057D02*
X107319524Y-97466914D01*
X107319524Y-97466914D02*
X107271905Y-97657390D01*
X107271905Y-97657390D02*
X107271905Y-98038342D01*
X107271905Y-98038342D02*
X107319524Y-98133580D01*
X107319524Y-98133580D02*
X107367143Y-98181200D01*
X107367143Y-98181200D02*
X107462381Y-98228819D01*
X107462381Y-98228819D02*
X107652857Y-98228819D01*
X107652857Y-98228819D02*
X107748095Y-98181200D01*
X107748095Y-98181200D02*
X107795714Y-98133580D01*
X107795714Y-98133580D02*
X107843333Y-98038342D01*
X107843333Y-98038342D02*
X107843333Y-97800247D01*
X107843333Y-97800247D02*
X107795714Y-97705009D01*
X107795714Y-97705009D02*
X107748095Y-97657390D01*
X107748095Y-97657390D02*
X107652857Y-97609771D01*
X107652857Y-97609771D02*
X107462381Y-97609771D01*
X107462381Y-97609771D02*
X107367143Y-97657390D01*
X107367143Y-97657390D02*
X107319524Y-97705009D01*
X107319524Y-97705009D02*
X107271905Y-97800247D01*
X138740476Y-63907200D02*
X138883333Y-63954819D01*
X138883333Y-63954819D02*
X139121428Y-63954819D01*
X139121428Y-63954819D02*
X139216666Y-63907200D01*
X139216666Y-63907200D02*
X139264285Y-63859580D01*
X139264285Y-63859580D02*
X139311904Y-63764342D01*
X139311904Y-63764342D02*
X139311904Y-63669104D01*
X139311904Y-63669104D02*
X139264285Y-63573866D01*
X139264285Y-63573866D02*
X139216666Y-63526247D01*
X139216666Y-63526247D02*
X139121428Y-63478628D01*
X139121428Y-63478628D02*
X138930952Y-63431009D01*
X138930952Y-63431009D02*
X138835714Y-63383390D01*
X138835714Y-63383390D02*
X138788095Y-63335771D01*
X138788095Y-63335771D02*
X138740476Y-63240533D01*
X138740476Y-63240533D02*
X138740476Y-63145295D01*
X138740476Y-63145295D02*
X138788095Y-63050057D01*
X138788095Y-63050057D02*
X138835714Y-63002438D01*
X138835714Y-63002438D02*
X138930952Y-62954819D01*
X138930952Y-62954819D02*
X139169047Y-62954819D01*
X139169047Y-62954819D02*
X139311904Y-63002438D01*
X139645238Y-62954819D02*
X139883333Y-63954819D01*
X139883333Y-63954819D02*
X140073809Y-63240533D01*
X140073809Y-63240533D02*
X140264285Y-63954819D01*
X140264285Y-63954819D02*
X140502381Y-62954819D01*
X141407142Y-63954819D02*
X140835714Y-63954819D01*
X141121428Y-63954819D02*
X141121428Y-62954819D01*
X141121428Y-62954819D02*
X141026190Y-63097676D01*
X141026190Y-63097676D02*
X140930952Y-63192914D01*
X140930952Y-63192914D02*
X140835714Y-63240533D01*
X141740476Y-62954819D02*
X142359523Y-62954819D01*
X142359523Y-62954819D02*
X142026190Y-63335771D01*
X142026190Y-63335771D02*
X142169047Y-63335771D01*
X142169047Y-63335771D02*
X142264285Y-63383390D01*
X142264285Y-63383390D02*
X142311904Y-63431009D01*
X142311904Y-63431009D02*
X142359523Y-63526247D01*
X142359523Y-63526247D02*
X142359523Y-63764342D01*
X142359523Y-63764342D02*
X142311904Y-63859580D01*
X142311904Y-63859580D02*
X142264285Y-63907200D01*
X142264285Y-63907200D02*
X142169047Y-63954819D01*
X142169047Y-63954819D02*
X141883333Y-63954819D01*
X141883333Y-63954819D02*
X141788095Y-63907200D01*
X141788095Y-63907200D02*
X141740476Y-63859580D01*
X69311905Y-94186319D02*
X69311905Y-93186319D01*
X69311905Y-93186319D02*
X69550000Y-93186319D01*
X69550000Y-93186319D02*
X69692857Y-93233938D01*
X69692857Y-93233938D02*
X69788095Y-93329176D01*
X69788095Y-93329176D02*
X69835714Y-93424414D01*
X69835714Y-93424414D02*
X69883333Y-93614890D01*
X69883333Y-93614890D02*
X69883333Y-93757747D01*
X69883333Y-93757747D02*
X69835714Y-93948223D01*
X69835714Y-93948223D02*
X69788095Y-94043461D01*
X69788095Y-94043461D02*
X69692857Y-94138700D01*
X69692857Y-94138700D02*
X69550000Y-94186319D01*
X69550000Y-94186319D02*
X69311905Y-94186319D01*
X70740476Y-93186319D02*
X70550000Y-93186319D01*
X70550000Y-93186319D02*
X70454762Y-93233938D01*
X70454762Y-93233938D02*
X70407143Y-93281557D01*
X70407143Y-93281557D02*
X70311905Y-93424414D01*
X70311905Y-93424414D02*
X70264286Y-93614890D01*
X70264286Y-93614890D02*
X70264286Y-93995842D01*
X70264286Y-93995842D02*
X70311905Y-94091080D01*
X70311905Y-94091080D02*
X70359524Y-94138700D01*
X70359524Y-94138700D02*
X70454762Y-94186319D01*
X70454762Y-94186319D02*
X70645238Y-94186319D01*
X70645238Y-94186319D02*
X70740476Y-94138700D01*
X70740476Y-94138700D02*
X70788095Y-94091080D01*
X70788095Y-94091080D02*
X70835714Y-93995842D01*
X70835714Y-93995842D02*
X70835714Y-93757747D01*
X70835714Y-93757747D02*
X70788095Y-93662509D01*
X70788095Y-93662509D02*
X70740476Y-93614890D01*
X70740476Y-93614890D02*
X70645238Y-93567271D01*
X70645238Y-93567271D02*
X70454762Y-93567271D01*
X70454762Y-93567271D02*
X70359524Y-93614890D01*
X70359524Y-93614890D02*
X70311905Y-93662509D01*
X70311905Y-93662509D02*
X70264286Y-93757747D01*
D11*
X56316190Y-51953479D02*
X56316190Y-52467526D01*
X56316190Y-52467526D02*
X56346428Y-52528002D01*
X56346428Y-52528002D02*
X56376666Y-52558241D01*
X56376666Y-52558241D02*
X56437142Y-52588479D01*
X56437142Y-52588479D02*
X56558095Y-52588479D01*
X56558095Y-52588479D02*
X56618571Y-52558241D01*
X56618571Y-52558241D02*
X56648809Y-52528002D01*
X56648809Y-52528002D02*
X56679047Y-52467526D01*
X56679047Y-52467526D02*
X56679047Y-51953479D01*
X57314047Y-52588479D02*
X56951190Y-52588479D01*
X57132618Y-52588479D02*
X57132618Y-51953479D01*
X57132618Y-51953479D02*
X57072142Y-52044193D01*
X57072142Y-52044193D02*
X57011666Y-52104669D01*
X57011666Y-52104669D02*
X56951190Y-52134907D01*
D10*
X124185714Y-55304819D02*
X124185714Y-54304819D01*
X124185714Y-54304819D02*
X124423809Y-54304819D01*
X124423809Y-54304819D02*
X124566666Y-54352438D01*
X124566666Y-54352438D02*
X124661904Y-54447676D01*
X124661904Y-54447676D02*
X124709523Y-54542914D01*
X124709523Y-54542914D02*
X124757142Y-54733390D01*
X124757142Y-54733390D02*
X124757142Y-54876247D01*
X124757142Y-54876247D02*
X124709523Y-55066723D01*
X124709523Y-55066723D02*
X124661904Y-55161961D01*
X124661904Y-55161961D02*
X124566666Y-55257200D01*
X124566666Y-55257200D02*
X124423809Y-55304819D01*
X124423809Y-55304819D02*
X124185714Y-55304819D01*
X125709523Y-55304819D02*
X125138095Y-55304819D01*
X125423809Y-55304819D02*
X125423809Y-54304819D01*
X125423809Y-54304819D02*
X125328571Y-54447676D01*
X125328571Y-54447676D02*
X125233333Y-54542914D01*
X125233333Y-54542914D02*
X125138095Y-54590533D01*
X126185714Y-55304819D02*
X126376190Y-55304819D01*
X126376190Y-55304819D02*
X126471428Y-55257200D01*
X126471428Y-55257200D02*
X126519047Y-55209580D01*
X126519047Y-55209580D02*
X126614285Y-55066723D01*
X126614285Y-55066723D02*
X126661904Y-54876247D01*
X126661904Y-54876247D02*
X126661904Y-54495295D01*
X126661904Y-54495295D02*
X126614285Y-54400057D01*
X126614285Y-54400057D02*
X126566666Y-54352438D01*
X126566666Y-54352438D02*
X126471428Y-54304819D01*
X126471428Y-54304819D02*
X126280952Y-54304819D01*
X126280952Y-54304819D02*
X126185714Y-54352438D01*
X126185714Y-54352438D02*
X126138095Y-54400057D01*
X126138095Y-54400057D02*
X126090476Y-54495295D01*
X126090476Y-54495295D02*
X126090476Y-54733390D01*
X126090476Y-54733390D02*
X126138095Y-54828628D01*
X126138095Y-54828628D02*
X126185714Y-54876247D01*
X126185714Y-54876247D02*
X126280952Y-54923866D01*
X126280952Y-54923866D02*
X126471428Y-54923866D01*
X126471428Y-54923866D02*
X126566666Y-54876247D01*
X126566666Y-54876247D02*
X126614285Y-54828628D01*
X126614285Y-54828628D02*
X126661904Y-54733390D01*
X122428571Y-57087295D02*
X121971428Y-57087295D01*
X122200000Y-57087295D02*
X122200000Y-56287295D01*
X122200000Y-56287295D02*
X122123809Y-56401580D01*
X122123809Y-56401580D02*
X122047619Y-56477771D01*
X122047619Y-56477771D02*
X121971428Y-56515866D01*
X59811905Y-98486319D02*
X59811905Y-97486319D01*
X59811905Y-97486319D02*
X60050000Y-97486319D01*
X60050000Y-97486319D02*
X60192857Y-97533938D01*
X60192857Y-97533938D02*
X60288095Y-97629176D01*
X60288095Y-97629176D02*
X60335714Y-97724414D01*
X60335714Y-97724414D02*
X60383333Y-97914890D01*
X60383333Y-97914890D02*
X60383333Y-98057747D01*
X60383333Y-98057747D02*
X60335714Y-98248223D01*
X60335714Y-98248223D02*
X60288095Y-98343461D01*
X60288095Y-98343461D02*
X60192857Y-98438700D01*
X60192857Y-98438700D02*
X60050000Y-98486319D01*
X60050000Y-98486319D02*
X59811905Y-98486319D01*
X60954762Y-97914890D02*
X60859524Y-97867271D01*
X60859524Y-97867271D02*
X60811905Y-97819652D01*
X60811905Y-97819652D02*
X60764286Y-97724414D01*
X60764286Y-97724414D02*
X60764286Y-97676795D01*
X60764286Y-97676795D02*
X60811905Y-97581557D01*
X60811905Y-97581557D02*
X60859524Y-97533938D01*
X60859524Y-97533938D02*
X60954762Y-97486319D01*
X60954762Y-97486319D02*
X61145238Y-97486319D01*
X61145238Y-97486319D02*
X61240476Y-97533938D01*
X61240476Y-97533938D02*
X61288095Y-97581557D01*
X61288095Y-97581557D02*
X61335714Y-97676795D01*
X61335714Y-97676795D02*
X61335714Y-97724414D01*
X61335714Y-97724414D02*
X61288095Y-97819652D01*
X61288095Y-97819652D02*
X61240476Y-97867271D01*
X61240476Y-97867271D02*
X61145238Y-97914890D01*
X61145238Y-97914890D02*
X60954762Y-97914890D01*
X60954762Y-97914890D02*
X60859524Y-97962509D01*
X60859524Y-97962509D02*
X60811905Y-98010128D01*
X60811905Y-98010128D02*
X60764286Y-98105366D01*
X60764286Y-98105366D02*
X60764286Y-98295842D01*
X60764286Y-98295842D02*
X60811905Y-98391080D01*
X60811905Y-98391080D02*
X60859524Y-98438700D01*
X60859524Y-98438700D02*
X60954762Y-98486319D01*
X60954762Y-98486319D02*
X61145238Y-98486319D01*
X61145238Y-98486319D02*
X61240476Y-98438700D01*
X61240476Y-98438700D02*
X61288095Y-98391080D01*
X61288095Y-98391080D02*
X61335714Y-98295842D01*
X61335714Y-98295842D02*
X61335714Y-98105366D01*
X61335714Y-98105366D02*
X61288095Y-98010128D01*
X61288095Y-98010128D02*
X61240476Y-97962509D01*
X61240476Y-97962509D02*
X61145238Y-97914890D01*
X59811905Y-77786319D02*
X59811905Y-76786319D01*
X59811905Y-76786319D02*
X60050000Y-76786319D01*
X60050000Y-76786319D02*
X60192857Y-76833938D01*
X60192857Y-76833938D02*
X60288095Y-76929176D01*
X60288095Y-76929176D02*
X60335714Y-77024414D01*
X60335714Y-77024414D02*
X60383333Y-77214890D01*
X60383333Y-77214890D02*
X60383333Y-77357747D01*
X60383333Y-77357747D02*
X60335714Y-77548223D01*
X60335714Y-77548223D02*
X60288095Y-77643461D01*
X60288095Y-77643461D02*
X60192857Y-77738700D01*
X60192857Y-77738700D02*
X60050000Y-77786319D01*
X60050000Y-77786319D02*
X59811905Y-77786319D01*
X60764286Y-76881557D02*
X60811905Y-76833938D01*
X60811905Y-76833938D02*
X60907143Y-76786319D01*
X60907143Y-76786319D02*
X61145238Y-76786319D01*
X61145238Y-76786319D02*
X61240476Y-76833938D01*
X61240476Y-76833938D02*
X61288095Y-76881557D01*
X61288095Y-76881557D02*
X61335714Y-76976795D01*
X61335714Y-76976795D02*
X61335714Y-77072033D01*
X61335714Y-77072033D02*
X61288095Y-77214890D01*
X61288095Y-77214890D02*
X60716667Y-77786319D01*
X60716667Y-77786319D02*
X61335714Y-77786319D01*
X59811905Y-91586319D02*
X59811905Y-90586319D01*
X59811905Y-90586319D02*
X60050000Y-90586319D01*
X60050000Y-90586319D02*
X60192857Y-90633938D01*
X60192857Y-90633938D02*
X60288095Y-90729176D01*
X60288095Y-90729176D02*
X60335714Y-90824414D01*
X60335714Y-90824414D02*
X60383333Y-91014890D01*
X60383333Y-91014890D02*
X60383333Y-91157747D01*
X60383333Y-91157747D02*
X60335714Y-91348223D01*
X60335714Y-91348223D02*
X60288095Y-91443461D01*
X60288095Y-91443461D02*
X60192857Y-91538700D01*
X60192857Y-91538700D02*
X60050000Y-91586319D01*
X60050000Y-91586319D02*
X59811905Y-91586319D01*
X61288095Y-90586319D02*
X60811905Y-90586319D01*
X60811905Y-90586319D02*
X60764286Y-91062509D01*
X60764286Y-91062509D02*
X60811905Y-91014890D01*
X60811905Y-91014890D02*
X60907143Y-90967271D01*
X60907143Y-90967271D02*
X61145238Y-90967271D01*
X61145238Y-90967271D02*
X61240476Y-91014890D01*
X61240476Y-91014890D02*
X61288095Y-91062509D01*
X61288095Y-91062509D02*
X61335714Y-91157747D01*
X61335714Y-91157747D02*
X61335714Y-91395842D01*
X61335714Y-91395842D02*
X61288095Y-91491080D01*
X61288095Y-91491080D02*
X61240476Y-91538700D01*
X61240476Y-91538700D02*
X61145238Y-91586319D01*
X61145238Y-91586319D02*
X60907143Y-91586319D01*
X60907143Y-91586319D02*
X60811905Y-91538700D01*
X60811905Y-91538700D02*
X60764286Y-91491080D01*
X69311905Y-80386319D02*
X69311905Y-79386319D01*
X69311905Y-79386319D02*
X69550000Y-79386319D01*
X69550000Y-79386319D02*
X69692857Y-79433938D01*
X69692857Y-79433938D02*
X69788095Y-79529176D01*
X69788095Y-79529176D02*
X69835714Y-79624414D01*
X69835714Y-79624414D02*
X69883333Y-79814890D01*
X69883333Y-79814890D02*
X69883333Y-79957747D01*
X69883333Y-79957747D02*
X69835714Y-80148223D01*
X69835714Y-80148223D02*
X69788095Y-80243461D01*
X69788095Y-80243461D02*
X69692857Y-80338700D01*
X69692857Y-80338700D02*
X69550000Y-80386319D01*
X69550000Y-80386319D02*
X69311905Y-80386319D01*
X70835714Y-80386319D02*
X70264286Y-80386319D01*
X70550000Y-80386319D02*
X70550000Y-79386319D01*
X70550000Y-79386319D02*
X70454762Y-79529176D01*
X70454762Y-79529176D02*
X70359524Y-79624414D01*
X70359524Y-79624414D02*
X70264286Y-79672033D01*
X156985714Y-87604819D02*
X156985714Y-86604819D01*
X156985714Y-86604819D02*
X157223809Y-86604819D01*
X157223809Y-86604819D02*
X157366666Y-86652438D01*
X157366666Y-86652438D02*
X157461904Y-86747676D01*
X157461904Y-86747676D02*
X157509523Y-86842914D01*
X157509523Y-86842914D02*
X157557142Y-87033390D01*
X157557142Y-87033390D02*
X157557142Y-87176247D01*
X157557142Y-87176247D02*
X157509523Y-87366723D01*
X157509523Y-87366723D02*
X157461904Y-87461961D01*
X157461904Y-87461961D02*
X157366666Y-87557200D01*
X157366666Y-87557200D02*
X157223809Y-87604819D01*
X157223809Y-87604819D02*
X156985714Y-87604819D01*
X157938095Y-86700057D02*
X157985714Y-86652438D01*
X157985714Y-86652438D02*
X158080952Y-86604819D01*
X158080952Y-86604819D02*
X158319047Y-86604819D01*
X158319047Y-86604819D02*
X158414285Y-86652438D01*
X158414285Y-86652438D02*
X158461904Y-86700057D01*
X158461904Y-86700057D02*
X158509523Y-86795295D01*
X158509523Y-86795295D02*
X158509523Y-86890533D01*
X158509523Y-86890533D02*
X158461904Y-87033390D01*
X158461904Y-87033390D02*
X157890476Y-87604819D01*
X157890476Y-87604819D02*
X158509523Y-87604819D01*
X159461904Y-87604819D02*
X158890476Y-87604819D01*
X159176190Y-87604819D02*
X159176190Y-86604819D01*
X159176190Y-86604819D02*
X159080952Y-86747676D01*
X159080952Y-86747676D02*
X158985714Y-86842914D01*
X158985714Y-86842914D02*
X158890476Y-86890533D01*
X155228571Y-89387295D02*
X154771428Y-89387295D01*
X155000000Y-89387295D02*
X155000000Y-88587295D01*
X155000000Y-88587295D02*
X154923809Y-88701580D01*
X154923809Y-88701580D02*
X154847619Y-88777771D01*
X154847619Y-88777771D02*
X154771428Y-88815866D01*
X69311905Y-87286319D02*
X69311905Y-86286319D01*
X69311905Y-86286319D02*
X69550000Y-86286319D01*
X69550000Y-86286319D02*
X69692857Y-86333938D01*
X69692857Y-86333938D02*
X69788095Y-86429176D01*
X69788095Y-86429176D02*
X69835714Y-86524414D01*
X69835714Y-86524414D02*
X69883333Y-86714890D01*
X69883333Y-86714890D02*
X69883333Y-86857747D01*
X69883333Y-86857747D02*
X69835714Y-87048223D01*
X69835714Y-87048223D02*
X69788095Y-87143461D01*
X69788095Y-87143461D02*
X69692857Y-87238700D01*
X69692857Y-87238700D02*
X69550000Y-87286319D01*
X69550000Y-87286319D02*
X69311905Y-87286319D01*
X70740476Y-86619652D02*
X70740476Y-87286319D01*
X70502381Y-86238700D02*
X70264286Y-86952985D01*
X70264286Y-86952985D02*
X70883333Y-86952985D01*
X156985714Y-68404819D02*
X156985714Y-67404819D01*
X156985714Y-67404819D02*
X157223809Y-67404819D01*
X157223809Y-67404819D02*
X157366666Y-67452438D01*
X157366666Y-67452438D02*
X157461904Y-67547676D01*
X157461904Y-67547676D02*
X157509523Y-67642914D01*
X157509523Y-67642914D02*
X157557142Y-67833390D01*
X157557142Y-67833390D02*
X157557142Y-67976247D01*
X157557142Y-67976247D02*
X157509523Y-68166723D01*
X157509523Y-68166723D02*
X157461904Y-68261961D01*
X157461904Y-68261961D02*
X157366666Y-68357200D01*
X157366666Y-68357200D02*
X157223809Y-68404819D01*
X157223809Y-68404819D02*
X156985714Y-68404819D01*
X157938095Y-67500057D02*
X157985714Y-67452438D01*
X157985714Y-67452438D02*
X158080952Y-67404819D01*
X158080952Y-67404819D02*
X158319047Y-67404819D01*
X158319047Y-67404819D02*
X158414285Y-67452438D01*
X158414285Y-67452438D02*
X158461904Y-67500057D01*
X158461904Y-67500057D02*
X158509523Y-67595295D01*
X158509523Y-67595295D02*
X158509523Y-67690533D01*
X158509523Y-67690533D02*
X158461904Y-67833390D01*
X158461904Y-67833390D02*
X157890476Y-68404819D01*
X157890476Y-68404819D02*
X158509523Y-68404819D01*
X159128571Y-67404819D02*
X159223809Y-67404819D01*
X159223809Y-67404819D02*
X159319047Y-67452438D01*
X159319047Y-67452438D02*
X159366666Y-67500057D01*
X159366666Y-67500057D02*
X159414285Y-67595295D01*
X159414285Y-67595295D02*
X159461904Y-67785771D01*
X159461904Y-67785771D02*
X159461904Y-68023866D01*
X159461904Y-68023866D02*
X159414285Y-68214342D01*
X159414285Y-68214342D02*
X159366666Y-68309580D01*
X159366666Y-68309580D02*
X159319047Y-68357200D01*
X159319047Y-68357200D02*
X159223809Y-68404819D01*
X159223809Y-68404819D02*
X159128571Y-68404819D01*
X159128571Y-68404819D02*
X159033333Y-68357200D01*
X159033333Y-68357200D02*
X158985714Y-68309580D01*
X158985714Y-68309580D02*
X158938095Y-68214342D01*
X158938095Y-68214342D02*
X158890476Y-68023866D01*
X158890476Y-68023866D02*
X158890476Y-67785771D01*
X158890476Y-67785771D02*
X158938095Y-67595295D01*
X158938095Y-67595295D02*
X158985714Y-67500057D01*
X158985714Y-67500057D02*
X159033333Y-67452438D01*
X159033333Y-67452438D02*
X159128571Y-67404819D01*
X155228571Y-70187295D02*
X154771428Y-70187295D01*
X155000000Y-70187295D02*
X155000000Y-69387295D01*
X155000000Y-69387295D02*
X154923809Y-69501580D01*
X154923809Y-69501580D02*
X154847619Y-69577771D01*
X154847619Y-69577771D02*
X154771428Y-69615866D01*
D12*
%TO.C,SW5*%
X80515000Y-82915000D02*
X94485000Y-82915000D01*
X80515000Y-96885000D02*
X80515000Y-82915000D01*
X94485000Y-82915000D02*
X94485000Y-96885000D01*
X94485000Y-96885000D02*
X80515000Y-96885000D01*
%TO.C,D18*%
X103700000Y-55600000D02*
X103700000Y-59600000D01*
X103700000Y-55600000D02*
X109300000Y-55600000D01*
X103700000Y-59600000D02*
X108700000Y-59600000D01*
X109300000Y-59000000D02*
X108700000Y-59600000D01*
X109300000Y-59000000D02*
X109300000Y-55600000D01*
%TO.C,SW1*%
X80505000Y-63715000D02*
X94475000Y-63715000D01*
X80505000Y-77685000D02*
X80505000Y-63715000D01*
X94475000Y-63715000D02*
X94475000Y-77685000D01*
X94475000Y-77685000D02*
X80505000Y-77685000D01*
%TO.C,D24*%
X103760000Y-101275000D02*
X103760000Y-105275000D01*
X103760000Y-101275000D02*
X109360000Y-101275000D01*
X103760000Y-105275000D02*
X108760000Y-105275000D01*
X109360000Y-104675000D02*
X108760000Y-105275000D01*
X109360000Y-104675000D02*
X109360000Y-101275000D01*
%TO.C,SW8*%
X137605000Y-82915000D02*
X151575000Y-82915000D01*
X137605000Y-96885000D02*
X137605000Y-82915000D01*
X151575000Y-82915000D02*
X151575000Y-96885000D01*
X151575000Y-96885000D02*
X137605000Y-96885000D01*
%TO.C,SW7*%
X118515000Y-82915000D02*
X132485000Y-82915000D01*
X118515000Y-96885000D02*
X118515000Y-82915000D01*
X132485000Y-82915000D02*
X132485000Y-96885000D01*
X132485000Y-96885000D02*
X118515000Y-96885000D01*
%TO.C,D22*%
X141840000Y-101275000D02*
X141840000Y-105275000D01*
X141840000Y-101275000D02*
X147440000Y-101275000D01*
X141840000Y-105275000D02*
X146840000Y-105275000D01*
X147440000Y-104675000D02*
X146840000Y-105275000D01*
X147440000Y-104675000D02*
X147440000Y-101275000D01*
%TO.C,D7*%
X69350000Y-98731500D02*
X71310000Y-98731500D01*
X69350000Y-99931500D02*
X71310000Y-99931500D01*
X71310000Y-99931500D02*
X71310000Y-98731500D01*
%TO.C,D23*%
X122750000Y-101275000D02*
X122750000Y-105275000D01*
X122750000Y-101275000D02*
X128350000Y-101275000D01*
X122750000Y-105275000D02*
X127750000Y-105275000D01*
X128350000Y-104675000D02*
X127750000Y-105275000D01*
X128350000Y-104675000D02*
X128350000Y-101275000D01*
%TO.C,J1*%
X139810000Y-59380000D02*
X139810000Y-58000000D01*
X141190000Y-59380000D02*
X139810000Y-59380000D01*
X142460000Y-56620000D02*
X150190000Y-56620000D01*
X142460000Y-59380000D02*
X142460000Y-56620000D01*
X142460000Y-59380000D02*
X150190000Y-59380000D01*
X150190000Y-59380000D02*
X150190000Y-56620000D01*
%TO.C,D3*%
X61250000Y-86131500D02*
X59290000Y-86131500D01*
X61250000Y-84931500D02*
X59290000Y-84931500D01*
X59290000Y-84931500D02*
X59290000Y-86131500D01*
%TO.C,D25*%
X84750000Y-101275000D02*
X84750000Y-105275000D01*
X84750000Y-101275000D02*
X90350000Y-101275000D01*
X84750000Y-105275000D02*
X89750000Y-105275000D01*
X90350000Y-104675000D02*
X89750000Y-105275000D01*
X90350000Y-104675000D02*
X90350000Y-101275000D01*
%TO.C,SW2*%
X99515000Y-63715000D02*
X113485000Y-63715000D01*
X99515000Y-77685000D02*
X99515000Y-63715000D01*
X113485000Y-63715000D02*
X113485000Y-77685000D01*
X113485000Y-77685000D02*
X99515000Y-77685000D01*
%TO.C,SW3*%
X118415000Y-63715000D02*
X132385000Y-63715000D01*
X118415000Y-77685000D02*
X118415000Y-63715000D01*
X132385000Y-63715000D02*
X132385000Y-77685000D01*
X132385000Y-77685000D02*
X118415000Y-77685000D01*
%TO.C,D17*%
X84690000Y-55600000D02*
X84690000Y-59600000D01*
X84690000Y-55600000D02*
X90290000Y-55600000D01*
X84690000Y-59600000D02*
X89690000Y-59600000D01*
X90290000Y-59000000D02*
X89690000Y-59600000D01*
X90290000Y-59000000D02*
X90290000Y-55600000D01*
%TO.C,SW6*%
X99525000Y-82915000D02*
X113495000Y-82915000D01*
X99525000Y-96885000D02*
X99525000Y-82915000D01*
X113495000Y-82915000D02*
X113495000Y-96885000D01*
X113495000Y-96885000D02*
X99525000Y-96885000D01*
%TO.C,SW13*%
X137450000Y-66600000D02*
X138050000Y-66600000D01*
X137750000Y-66900000D02*
X137450000Y-66600000D01*
X138050000Y-66600000D02*
X137750000Y-66900000D01*
X139150000Y-64800000D02*
X139150000Y-76600000D01*
X143250000Y-64800000D02*
X139150000Y-64800000D01*
X143250000Y-76600000D02*
X139150000Y-76600000D01*
X144750000Y-70700000D02*
X145750000Y-70700000D01*
X145250000Y-70200000D02*
X145250000Y-71200000D01*
X147250000Y-64800000D02*
X151350000Y-64800000D01*
X151350000Y-64800000D02*
X151350000Y-67200000D01*
X151350000Y-69400000D02*
X151350000Y-72000000D01*
X151350000Y-74200000D02*
X151350000Y-76600000D01*
X151350000Y-76600000D02*
X147250000Y-76600000D01*
X148250000Y-70700000D02*
G75*
G02*
X142250000Y-70700000I-3000000J0D01*
G01*
X142250000Y-70700000D02*
G75*
G02*
X148250000Y-70700000I3000000J0D01*
G01*
%TO.C,D6*%
X69350000Y-91831500D02*
X71310000Y-91831500D01*
X69350000Y-93031500D02*
X71310000Y-93031500D01*
X71310000Y-93031500D02*
X71310000Y-91831500D01*
D13*
%TO.C,U1*%
X56410000Y-72809000D02*
X56410000Y-55664000D01*
X58315000Y-74714000D02*
X72285000Y-74714000D01*
X60805000Y-53759000D02*
X60808728Y-52848728D01*
X61308728Y-52349000D02*
X69304000Y-52349000D01*
X69804000Y-52849000D02*
X69804000Y-53759000D01*
D14*
X72285000Y-53759000D02*
X58315000Y-53759000D01*
D13*
X72285000Y-53759000D02*
X58315000Y-53759000D01*
X74190000Y-72809000D02*
X74190000Y-55664000D01*
X56410000Y-55664000D02*
G75*
G02*
X58315000Y-53759000I1905001J-1D01*
G01*
X58315000Y-74714000D02*
G75*
G02*
X56410000Y-72809000I1J1905001D01*
G01*
X60808728Y-52848728D02*
G75*
G02*
X61308728Y-52349001I500018J-291D01*
G01*
X69304000Y-52349000D02*
G75*
G02*
X69804000Y-52849000I0J-500000D01*
G01*
X72285000Y-53759000D02*
G75*
G02*
X74190000Y-55664000I0J-1905000D01*
G01*
X74190000Y-72809000D02*
G75*
G02*
X72285000Y-74714000I-1905000J0D01*
G01*
D15*
X56602000Y-54000000D02*
G75*
G02*
X56098000Y-54000000I-252000J0D01*
G01*
X56098000Y-54000000D02*
G75*
G02*
X56602000Y-54000000I252000J0D01*
G01*
X57745000Y-54880000D02*
G75*
G02*
X57241000Y-54880000I-252000J0D01*
G01*
X57241000Y-54880000D02*
G75*
G02*
X57745000Y-54880000I252000J0D01*
G01*
D12*
%TO.C,D19*%
X122600000Y-55600000D02*
X122600000Y-59600000D01*
X122600000Y-55600000D02*
X128200000Y-55600000D01*
X122600000Y-59600000D02*
X127600000Y-59600000D01*
X128200000Y-59000000D02*
X127600000Y-59600000D01*
X128200000Y-59000000D02*
X128200000Y-55600000D01*
%TO.C,D8*%
X61250000Y-99931500D02*
X59290000Y-99931500D01*
X61250000Y-98731500D02*
X59290000Y-98731500D01*
X59290000Y-98731500D02*
X59290000Y-99931500D01*
%TO.C,D2*%
X61250000Y-79231500D02*
X59290000Y-79231500D01*
X61250000Y-78031500D02*
X59290000Y-78031500D01*
X59290000Y-78031500D02*
X59290000Y-79231500D01*
%TO.C,D5*%
X61250000Y-93031500D02*
X59290000Y-93031500D01*
X61250000Y-91831500D02*
X59290000Y-91831500D01*
X59290000Y-91831500D02*
X59290000Y-93031500D01*
%TO.C,D1*%
X69350000Y-78031500D02*
X71310000Y-78031500D01*
X69350000Y-79231500D02*
X71310000Y-79231500D01*
X71310000Y-79231500D02*
X71310000Y-78031500D01*
%TO.C,D21*%
X155400000Y-87900000D02*
X155400000Y-91900000D01*
X155400000Y-87900000D02*
X161000000Y-87900000D01*
X155400000Y-91900000D02*
X160400000Y-91900000D01*
X161000000Y-91300000D02*
X160400000Y-91900000D01*
X161000000Y-91300000D02*
X161000000Y-87900000D01*
%TO.C,D4*%
X69350000Y-84931500D02*
X71310000Y-84931500D01*
X69350000Y-86131500D02*
X71310000Y-86131500D01*
X71310000Y-86131500D02*
X71310000Y-84931500D01*
%TO.C,D20*%
X155400000Y-68700000D02*
X155400000Y-72700000D01*
X155400000Y-68700000D02*
X161000000Y-68700000D01*
X155400000Y-72700000D02*
X160400000Y-72700000D01*
X161000000Y-72100000D02*
X160400000Y-72700000D01*
X161000000Y-72100000D02*
X161000000Y-68700000D01*
%TD*%
M02*
