%TF.GenerationSoftware,KiCad,Pcbnew,9.0.6*%
%TF.CreationDate,2025-11-29T18:30:52-05:00*%
%TF.ProjectId,Generalist_Macro,47656e65-7261-46c6-9973-745f4d616372,rev?*%
%TF.SameCoordinates,Original*%
%TF.FileFunction,Soldermask,Top*%
%TF.FilePolarity,Negative*%
%FSLAX46Y46*%
G04 Gerber Fmt 4.6, Leading zero omitted, Abs format (unit mm)*
G04 Created by KiCad (PCBNEW 9.0.6) date 2025-11-29 18:30:52*
%MOMM*%
%LPD*%
G01*
G04 APERTURE LIST*
G04 Aperture macros list*
%AMRoundRect*
0 Rectangle with rounded corners*
0 $1 Rounding radius*
0 $2 $3 $4 $5 $6 $7 $8 $9 X,Y pos of 4 corners*
0 Add a 4 corners polygon primitive as box body*
4,1,4,$2,$3,$4,$5,$6,$7,$8,$9,$2,$3,0*
0 Add four circle primitives for the rounded corners*
1,1,$1+$1,$2,$3*
1,1,$1+$1,$4,$5*
1,1,$1+$1,$6,$7*
1,1,$1+$1,$8,$9*
0 Add four rect primitives between the rounded corners*
20,1,$1+$1,$2,$3,$4,$5,0*
20,1,$1+$1,$4,$5,$6,$7,0*
20,1,$1+$1,$6,$7,$8,$9,0*
20,1,$1+$1,$8,$9,$2,$3,0*%
G04 Aperture macros list end*
%ADD10C,1.700000*%
%ADD11C,4.000000*%
%ADD12C,2.200000*%
%ADD13R,1.600000X0.850000*%
%ADD14RoundRect,0.150000X-0.150000X-0.200000X0.150000X-0.200000X0.150000X0.200000X-0.150000X0.200000X0*%
%ADD15R,1.700000X1.700000*%
%ADD16RoundRect,0.150000X0.150000X0.200000X-0.150000X0.200000X-0.150000X-0.200000X0.150000X-0.200000X0*%
%ADD17R,2.000000X2.000000*%
%ADD18C,2.000000*%
%ADD19R,3.200000X2.000000*%
%ADD20RoundRect,0.152400X1.063600X0.609600X-1.063600X0.609600X-1.063600X-0.609600X1.063600X-0.609600X0*%
%ADD21C,1.524000*%
%ADD22RoundRect,0.152400X-1.063600X-0.609600X1.063600X-0.609600X1.063600X0.609600X-1.063600X0.609600X0*%
G04 APERTURE END LIST*
D10*
%TO.C,SW5*%
X92580000Y-89900000D03*
D11*
X87500000Y-89900000D03*
D10*
X82420000Y-89900000D03*
D12*
X84960000Y-94980000D03*
X91310000Y-92440000D03*
%TD*%
D13*
%TO.C,D18*%
X104750000Y-56725000D03*
X104750000Y-58475000D03*
X108250000Y-58475000D03*
X108250000Y-56725000D03*
%TD*%
D10*
%TO.C,SW1*%
X92570000Y-70700000D03*
D11*
X87490000Y-70700000D03*
D10*
X82410000Y-70700000D03*
D12*
X84950000Y-75780000D03*
X91300000Y-73240000D03*
%TD*%
D13*
%TO.C,D24*%
X104810000Y-102400000D03*
X104810000Y-104150000D03*
X108310000Y-104150000D03*
X108310000Y-102400000D03*
%TD*%
D10*
%TO.C,SW8*%
X149670000Y-89900000D03*
D11*
X144590000Y-89900000D03*
D10*
X139510000Y-89900000D03*
D12*
X142050000Y-94980000D03*
X148400000Y-92440000D03*
%TD*%
D10*
%TO.C,SW7*%
X130580000Y-89900000D03*
D11*
X125500000Y-89900000D03*
D10*
X120420000Y-89900000D03*
D12*
X122960000Y-94980000D03*
X129310000Y-92440000D03*
%TD*%
D13*
%TO.C,D22*%
X142890000Y-102400000D03*
X142890000Y-104150000D03*
X146390000Y-104150000D03*
X146390000Y-102400000D03*
%TD*%
D14*
%TO.C,D7*%
X70750000Y-99331500D03*
X69350000Y-99331500D03*
%TD*%
D13*
%TO.C,D23*%
X123800000Y-102400000D03*
X123800000Y-104150000D03*
X127300000Y-104150000D03*
X127300000Y-102400000D03*
%TD*%
D15*
%TO.C,J1*%
X141190000Y-58000000D03*
D10*
X143730000Y-58000000D03*
X146270000Y-58000000D03*
X148810000Y-58000000D03*
%TD*%
D16*
%TO.C,D3*%
X59850000Y-85531500D03*
X61250000Y-85531500D03*
%TD*%
D13*
%TO.C,D25*%
X85800000Y-102400000D03*
X85800000Y-104150000D03*
X89300000Y-104150000D03*
X89300000Y-102400000D03*
%TD*%
D10*
%TO.C,SW2*%
X111580000Y-70700000D03*
D11*
X106500000Y-70700000D03*
D10*
X101420000Y-70700000D03*
D12*
X103960000Y-75780000D03*
X110310000Y-73240000D03*
%TD*%
D10*
%TO.C,SW3*%
X130480000Y-70700000D03*
D11*
X125400000Y-70700000D03*
D10*
X120320000Y-70700000D03*
D12*
X122860000Y-75780000D03*
X129210000Y-73240000D03*
%TD*%
D13*
%TO.C,D17*%
X85740000Y-56725000D03*
X85740000Y-58475000D03*
X89240000Y-58475000D03*
X89240000Y-56725000D03*
%TD*%
D10*
%TO.C,SW6*%
X111590000Y-89900000D03*
D11*
X106510000Y-89900000D03*
D10*
X101430000Y-89900000D03*
D12*
X103970000Y-94980000D03*
X110320000Y-92440000D03*
%TD*%
D17*
%TO.C,SW13*%
X137750000Y-68200000D03*
D18*
X137750000Y-73200000D03*
X137750000Y-70700000D03*
D19*
X145250000Y-65100000D03*
X145250000Y-76300000D03*
D18*
X152250000Y-73200000D03*
X152250000Y-68200000D03*
%TD*%
D14*
%TO.C,D6*%
X70750000Y-92431500D03*
X69350000Y-92431500D03*
%TD*%
D20*
%TO.C,U1*%
X56845000Y-56680000D03*
D21*
X57680000Y-56680000D03*
D20*
X56845000Y-59220000D03*
D21*
X57680000Y-59220000D03*
D20*
X56845000Y-61760000D03*
D21*
X57680000Y-61760000D03*
D20*
X56845000Y-64300000D03*
D21*
X57680000Y-64300000D03*
D20*
X56845000Y-66840000D03*
D21*
X57680000Y-66840000D03*
D20*
X56845000Y-69380000D03*
D21*
X57680000Y-69380000D03*
D20*
X56845000Y-71920000D03*
D21*
X57680000Y-71920000D03*
X72920000Y-71920000D03*
D22*
X73755000Y-71920000D03*
D21*
X72920000Y-69380000D03*
D22*
X73755000Y-69380000D03*
D21*
X72920000Y-66840000D03*
D22*
X73755000Y-66840000D03*
D21*
X72920000Y-64300000D03*
D22*
X73755000Y-64300000D03*
D21*
X72920000Y-61760000D03*
D22*
X73755000Y-61760000D03*
D21*
X72920000Y-59220000D03*
D22*
X73755000Y-59220000D03*
D21*
X72920000Y-56680000D03*
D22*
X73755000Y-56680000D03*
%TD*%
D13*
%TO.C,D19*%
X123650000Y-56725000D03*
X123650000Y-58475000D03*
X127150000Y-58475000D03*
X127150000Y-56725000D03*
%TD*%
D16*
%TO.C,D8*%
X59850000Y-99331500D03*
X61250000Y-99331500D03*
%TD*%
%TO.C,D2*%
X59850000Y-78631500D03*
X61250000Y-78631500D03*
%TD*%
%TO.C,D5*%
X59850000Y-92431500D03*
X61250000Y-92431500D03*
%TD*%
D14*
%TO.C,D1*%
X70750000Y-78631500D03*
X69350000Y-78631500D03*
%TD*%
D13*
%TO.C,D21*%
X156450000Y-89025000D03*
X156450000Y-90775000D03*
X159950000Y-90775000D03*
X159950000Y-89025000D03*
%TD*%
D14*
%TO.C,D4*%
X70750000Y-85531500D03*
X69350000Y-85531500D03*
%TD*%
D13*
%TO.C,D20*%
X156450000Y-69825000D03*
X156450000Y-71575000D03*
X159950000Y-71575000D03*
X159950000Y-69825000D03*
%TD*%
M02*
